<svg xmlns="http://www.w3.org/2000/svg" xmlns:xlink="http://www.w3.org/1999/xlink" id="body_1" preserveAspectRatio="xMinYMin meet" viewBox="0 0 1121 793"><defs><clipPath id="1"><path d="M0 595L0 -0.276001L0 -0.276001L841.89 -0.276001L841.89 -0.276001L841.89 595L841.89 595L0 595z" /></clipPath><clipPath id="2"><path d="M0 595L841.89 595L841.89 595L841.89 -0.276001L841.89 -0.276001L0 -0.276001z" /></clipPath><clipPath id="3"><path d="M0 595L841.89 595L841.89 595L841.89 -0.276001L841.89 -0.276001L0 -0.276001z" /></clipPath><clipPath id="4"><path d="M0 595L841.89 595L841.89 595L841.89 -0.276001L841.89 -0.276001L0 -0.276001z" /></clipPath><clipPath id="5"><path d="M0 595L841.89 595L841.89 595L841.89 -0.276001L841.89 -0.276001L0 -0.276001z" /></clipPath><clipPath id="6"><path d="M0 595L841.89 595L841.89 595L841.89 -0.276001L841.89 -0.276001L0 -0.276001z" /></clipPath></defs><g transform="matrix(1.333333 0 0 1.333333 0 0)"><g><g clip-path="url(#1)"><path transform="matrix(1 0 0 -1 0 595)" d="M28.3465 339.7033L274.9605 339.7033" stroke="#221E1F" stroke-width="0.25" fill="none" /><path transform="matrix(1 0 0 -1 0 595)" d="M28.346 339.603L274.96 339.603L274.96 339.603L274.96 330.129L274.96 330.129L28.346 330.129z" stroke="none" fill="#E8E9EA" fill-rule="winding" /><path transform="matrix(1 0 0 -1 0 595)" d="M28.3465 330.1926L274.9605 330.1926" stroke="#565759" stroke-width="0.125" fill="none" /><path transform="matrix(1 0 0 -1 0 595)" d="M28.3465 320.3926L274.9605 320.3926" stroke="#565759" stroke-width="0.125" fill="none" /><path transform="matrix(1 0 0 -1 0 595)" d="M28.3465 310.5926L274.9605 310.5926" stroke="#565759" stroke-width="0.125" fill="none" /><path transform="matrix(1 0 0 -1 0 595)" d="M28.346 310.523L274.96 310.523L274.96 310.523L274.96 300.729L274.96 300.729L28.346 300.729z" stroke="none" fill="#E8E9EA" fill-rule="winding" /><path transform="matrix(1 0 0 -1 0 595)" d="M28.3465 300.7926L274.9605 300.7926" stroke="#565759" stroke-width="0.125" fill="none" /><path transform="matrix(1 0 0 -1 0 595)" d="M28.3465 290.9926L274.9605 290.9926" stroke="#565759" stroke-width="0.125" fill="none" /><path transform="matrix(1 0 0 -1 0 595)" d="M28.3465 281.1926L274.9605 281.1926" stroke="#565759" stroke-width="0.125" fill="none" /><path transform="matrix(1 0 0 -1 0 595)" d="M28.346 281.123L274.96 281.123L274.96 281.123L274.96 271.329L274.96 271.329L28.346 271.329z" stroke="none" fill="#E8E9EA" fill-rule="winding" /><path transform="matrix(1 0 0 -1 0 595)" d="M28.3465 271.3926L274.9605 271.3926" stroke="#565759" stroke-width="0.125" fill="none" /><path transform="matrix(1 0 0 -1 0 595)" d="M28.346 271.323L274.96 271.323L274.96 271.323L274.96 261.529L274.96 261.529L28.346 261.529z" stroke="none" fill="#E8E9EA" fill-rule="winding" /><path transform="matrix(1 0 0 -1 0 595)" d="M28.3465 261.5926L274.9605 261.5926" stroke="#565759" stroke-width="0.125" fill="none" /><path transform="matrix(1 0 0 -1 0 595)" d="M28.346 261.523L274.96 261.523L274.96 261.523L274.96 251.729L274.96 251.729L28.346 251.729z" stroke="none" fill="#E8E9EA" fill-rule="winding" /><path transform="matrix(1 0 0 -1 0 595)" d="M28.3465 251.7926L274.9605 251.7926" stroke="#565759" stroke-width="0.125" fill="none" /><path transform="matrix(1 0 0 -1 0 595)" d="M28.3465 231.9033L274.9605 231.9033" stroke="#221E1F" stroke-width="0.25" fill="none" /><path transform="matrix(1 0 0 -1 0 595)" d="M28.346 231.803L274.96 231.803L274.96 231.803L274.96 222.329L274.96 222.329L28.346 222.329z" stroke="none" fill="#E8E9EA" fill-rule="winding" /><path transform="matrix(1 0 0 -1 0 595)" d="M28.3465 222.3926L274.9605 222.3926" stroke="#565759" stroke-width="0.125" fill="none" /><path transform="matrix(1 0 0 -1 0 595)" d="M28.3465 202.7926L274.9605 202.7926" stroke="#565759" stroke-width="0.125" fill="none" /><path transform="matrix(1 0 0 -1 0 595)" d="M28.3465 192.9926L274.9605 192.9926" stroke="#565759" stroke-width="0.125" fill="none" /><path transform="matrix(1 0 0 -1 0 595)" d="M28.346 192.923L274.96 192.923L274.96 192.923L274.96 183.129L274.96 183.129L28.346 183.129z" stroke="none" fill="#E8E9EA" fill-rule="winding" /><path transform="matrix(1 0 0 -1 0 595)" d="M28.3465 183.1926L274.9605 183.1926" stroke="#565759" stroke-width="0.125" fill="none" /><path transform="matrix(1 0 0 -1 0 595)" d="M28.3465 173.3926L274.9605 173.3926" stroke="#565759" stroke-width="0.125" fill="none" /><path transform="matrix(1 0 0 -1 0 595)" d="M28.346 173.323L274.96 173.323L274.96 173.323L274.96 163.529L274.96 163.529L28.346 163.529z" stroke="none" fill="#E8E9EA" fill-rule="winding" /><path transform="matrix(1 0 0 -1 0 595)" d="M28.3465 163.5926L274.9605 163.5926" stroke="#565759" stroke-width="0.125" fill="none" /><path transform="matrix(1 0 0 -1 0 595)" d="M28.3465 153.7926L274.9605 153.7926" stroke="#565759" stroke-width="0.125" fill="none" /><path transform="matrix(1 0 0 -1 0 595)" d="M28.3465 133.9033L274.9605 133.9033" stroke="#221E1F" stroke-width="0.25" fill="none" /><path transform="matrix(1 0 0 -1 0 595)" d="M28.346 133.803L274.96 133.803L274.96 133.803L274.96 124.329L274.96 124.329L28.346 124.329z" stroke="none" fill="#E8E9EA" fill-rule="winding" /><path transform="matrix(1 0 0 -1 0 595)" d="M28.3465 124.3926L274.9605 124.3926" stroke="#565759" stroke-width="0.125" fill="none" /><path transform="matrix(1 0 0 -1 0 595)" d="M28.346 124.323L274.96 124.323L274.96 124.323L274.96 114.529L274.96 114.529L28.346 114.529z" stroke="none" fill="#E8E9EA" fill-rule="winding" /><path transform="matrix(1 0 0 -1 0 595)" d="M28.3465 114.5926L274.9605 114.5926" stroke="#565759" stroke-width="0.125" fill="none" /><path transform="matrix(1 0 0 -1 0 595)" d="M28.3465 104.7926L274.9605 104.7926" stroke="#565759" stroke-width="0.125" fill="none" /><path transform="matrix(1 0 0 -1 0 595)" d="M28.3465 94.9926L274.9605 94.9926" stroke="#565759" stroke-width="0.125" fill="none" /><path transform="matrix(1 0 0 -1 0 595)" d="M28.3465 85.1926L274.9605 85.1926" stroke="#565759" stroke-width="0.125" fill="none" /><path transform="matrix(1 0 0 -1 0 595)" d="M28.3465 75.3926L274.9605 75.3926" stroke="#565759" stroke-width="0.125" fill="none" /><path transform="matrix(1 0 0 -1 0 595)" d="M28.346 75.323L274.96 75.323L274.96 75.323L274.96 65.529L274.96 65.529L28.346 65.529z" stroke="none" fill="#E8E9EA" fill-rule="winding" /><path transform="matrix(1 0 0 -1 0 595)" d="M28.3465 65.5926L274.9605 65.5926" stroke="#565759" stroke-width="0.125" fill="none" /><path transform="matrix(1 0 0 -1 0 595)" d="M28.3465 55.7926L274.9605 55.7926" stroke="#565759" stroke-width="0.125" fill="none" /><path transform="matrix(1 0 0 -1 0 595)" d="M28.3465 45.9926L274.9605 45.9926" stroke="#565759" stroke-width="0.125" fill="none" /><path transform="matrix(1 0 0 -1 0 595)" d="M300.4725 545.5034L547.0865 545.5034" stroke="#221E1F" stroke-width="0.25" fill="none" /><path transform="matrix(1 0 0 -1 0 595)" d="M300.472 545.403L547.086 545.403L547.086 545.403L547.086 535.929L547.086 535.929L300.472 535.929z" stroke="none" fill="#E8E9EA" fill-rule="winding" /><path transform="matrix(1 0 0 -1 0 595)" d="M300.4725 535.9926L547.0865 535.9926" stroke="#565759" stroke-width="0.125" fill="none" /><path transform="matrix(1 0 0 -1 0 595)" d="M300.472 535.923L547.086 535.923L547.086 535.923L547.086 526.129L547.086 526.129L300.472 526.129z" stroke="none" fill="#E8E9EA" fill-rule="winding" /><path transform="matrix(1 0 0 -1 0 595)" d="M300.4725 526.1926L547.0865 526.1926" stroke="#565759" stroke-width="0.125" fill="none" /><path transform="matrix(1 0 0 -1 0 595)" d="M300.472 526.123L547.086 526.123L547.086 526.123L547.086 516.329L547.086 516.329L300.472 516.329z" stroke="none" fill="#E8E9EA" fill-rule="winding" /><path transform="matrix(1 0 0 -1 0 595)" d="M300.4725 516.3926L547.0865 516.3926" stroke="#565759" stroke-width="0.125" fill="none" /><path transform="matrix(1 0 0 -1 0 595)" d="M300.472 516.323L547.086 516.323L547.086 516.323L547.086 506.529L547.086 506.529L300.472 506.529z" stroke="none" fill="#E8E9EA" fill-rule="winding" /><path transform="matrix(1 0 0 -1 0 595)" d="M300.4725 506.5926L547.0865 506.5926" stroke="#565759" stroke-width="0.125" fill="none" /><path transform="matrix(1 0 0 -1 0 595)" d="M300.4725 496.7926L547.0865 496.7926" stroke="#565759" stroke-width="0.125" fill="none" /><path transform="matrix(1 0 0 -1 0 595)" d="M300.4725 486.9926L547.0865 486.9926" stroke="#565759" stroke-width="0.125" fill="none" /><path transform="matrix(1 0 0 -1 0 595)" d="M300.4725 477.1926L547.0865 477.1926" stroke="#565759" stroke-width="0.125" fill="none" /><path transform="matrix(1 0 0 -1 0 595)" d="M300.4725 467.3926L547.0865 467.3926" stroke="#565759" stroke-width="0.125" fill="none" /><path transform="matrix(1 0 0 -1 0 595)" d="M300.472 467.323L547.086 467.323L547.086 467.323L547.086 457.529L547.086 457.529L300.472 457.529z" stroke="none" fill="#E8E9EA" fill-rule="winding" /><path transform="matrix(1 0 0 -1 0 595)" d="M300.4725 457.5926L547.0865 457.5926" stroke="#565759" stroke-width="0.125" fill="none" /><path transform="matrix(1 0 0 -1 0 595)" d="M300.472 457.523L547.086 457.523L547.086 457.523L547.086 447.729L547.086 447.729L300.472 447.729z" stroke="none" fill="#E8E9EA" fill-rule="winding" /><path transform="matrix(1 0 0 -1 0 595)" d="M300.4725 447.7926L547.0865 447.7926" stroke="#565759" stroke-width="0.125" fill="none" /><path transform="matrix(1 0 0 -1 0 595)" d="M300.472 447.723L547.086 447.723L547.086 447.723L547.086 437.929L547.086 437.929L300.472 437.929z" stroke="none" fill="#E8E9EA" fill-rule="winding" /><path transform="matrix(1 0 0 -1 0 595)" d="M300.4725 437.9926L547.0865 437.9926" stroke="#565759" stroke-width="0.125" fill="none" /><path transform="matrix(1 0 0 -1 0 595)" d="M300.472 437.923L547.086 437.923L547.086 437.923L547.086 428.129L547.086 428.129L300.472 428.129z" stroke="none" fill="#E8E9EA" fill-rule="winding" /><path transform="matrix(1 0 0 -1 0 595)" d="M300.4725 428.1926L547.0865 428.1926" stroke="#565759" stroke-width="0.125" fill="none" /><path transform="matrix(1 0 0 -1 0 595)" d="M300.472 428.123L547.086 428.123L547.086 428.123L547.086 418.329L547.086 418.329L300.472 418.329z" stroke="none" fill="#E8E9EA" fill-rule="winding" /><path transform="matrix(1 0 0 -1 0 595)" d="M300.4725 418.3926L547.0865 418.3926" stroke="#565759" stroke-width="0.125" fill="none" /><path transform="matrix(1 0 0 -1 0 595)" d="M300.3875 418.323L463.6843 418.323L463.6843 418.323L463.6843 408.529L463.6843 408.529L300.3875 408.529z" stroke="none" fill="#E8E9EA" fill-rule="winding" /><path transform="matrix(1 0 0 -1 0 595)" d="M300.4725 408.5926L547.0865 408.5926" stroke="#565759" stroke-width="0.125" fill="none" /><path transform="matrix(1 0 0 -1 0 595)" d="M300.472 408.523L547.086 408.523L547.086 408.523L547.086 398.729L547.086 398.729L300.472 398.729z" stroke="none" fill="#E8E9EA" fill-rule="winding" /><path transform="matrix(1 0 0 -1 0 595)" d="M300.4725 398.7926L547.0865 398.7926" stroke="#565759" stroke-width="0.125" fill="none" /><path transform="matrix(1 0 0 -1 0 595)" d="M300.472 398.723L547.086 398.723L547.086 398.723L547.086 388.929L547.086 388.929L300.472 388.929z" stroke="none" fill="#E8E9EA" fill-rule="winding" /><path transform="matrix(1 0 0 -1 0 595)" d="M300.4725 388.9926L547.0865 388.9926" stroke="#565759" stroke-width="0.125" fill="none" /><path transform="matrix(1 0 0 -1 0 595)" d="M300.472 388.923L547.086 388.923L547.086 388.923L547.086 379.129L547.086 379.129L300.472 379.129z" stroke="none" fill="#E8E9EA" fill-rule="winding" /><path transform="matrix(1 0 0 -1 0 595)" d="M300.4725 379.1926L547.0865 379.1926" stroke="#565759" stroke-width="0.125" fill="none" /><path transform="matrix(1 0 0 -1 0 595)" d="M300.472 379.123L547.086 379.123L547.086 379.123L547.086 369.329L547.086 369.329L300.472 369.329z" stroke="none" fill="#E8E9EA" fill-rule="winding" /><path transform="matrix(1 0 0 -1 0 595)" d="M300.4725 369.3926L547.0865 369.3926" stroke="#565759" stroke-width="0.125" fill="none" /><path transform="matrix(1 0 0 -1 0 595)" d="M300.472 369.323L547.086 369.323L547.086 369.323L547.086 359.529L547.086 359.529L300.472 359.529z" stroke="none" fill="#E8E9EA" fill-rule="winding" /><path transform="matrix(1 0 0 -1 0 595)" d="M300.4725 359.5926L547.0865 359.5926" stroke="#565759" stroke-width="0.125" fill="none" /><path transform="matrix(1 0 0 -1 0 595)" d="M300.472 359.523L547.086 359.523L547.086 359.523L547.086 349.729L547.086 349.729L300.472 349.729z" stroke="none" fill="#E8E9EA" fill-rule="winding" /><path transform="matrix(1 0 0 -1 0 595)" d="M300.4725 349.7926L547.0865 349.7926" stroke="#565759" stroke-width="0.125" fill="none" /><path transform="matrix(1 0 0 -1 0 595)" d="M300.472 349.723L547.086 349.723L547.086 349.723L547.086 339.929L547.086 339.929L300.472 339.929z" stroke="none" fill="#E8E9EA" fill-rule="winding" /><path transform="matrix(1 0 0 -1 0 595)" d="M300.4725 339.9926L547.0865 339.9926" stroke="#565759" stroke-width="0.125" fill="none" /><path transform="matrix(1 0 0 -1 0 595)" d="M300.4725 330.1926L547.0865 330.1926" stroke="#565759" stroke-width="0.125" fill="none" /><path transform="matrix(1 0 0 -1 0 595)" d="M300.4725 320.3926L547.0865 320.3926" stroke="#565759" stroke-width="0.125" fill="none" /><path transform="matrix(1 0 0 -1 0 595)" d="M300.4725 310.5926L547.0865 310.5926" stroke="#565759" stroke-width="0.125" fill="none" /><path transform="matrix(1 0 0 -1 0 595)" d="M300.4725 300.7926L547.0865 300.7926" stroke="#565759" stroke-width="0.125" fill="none" /><path transform="matrix(1 0 0 -1 0 595)" d="M300.4725 290.9926L547.0865 290.9926" stroke="#565759" stroke-width="0.125" fill="none" /><path transform="matrix(1 0 0 -1 0 595)" d="M300.472 290.923L547.086 290.923L547.086 290.923L547.086 281.129L547.086 281.129L300.472 281.129z" stroke="none" fill="#E8E9EA" fill-rule="winding" /><path transform="matrix(1 0 0 -1 0 595)" d="M300.4725 281.1926L547.0865 281.1926" stroke="#565759" stroke-width="0.125" fill="none" /><path transform="matrix(1 0 0 -1 0 595)" d="M300.4725 271.3926L547.0865 271.3926" stroke="#565759" stroke-width="0.125" fill="none" /><path transform="matrix(1 0 0 -1 0 595)" d="M300.4725 261.5926L547.0865 261.5926" stroke="#565759" stroke-width="0.125" fill="none" /><path transform="matrix(1 0 0 -1 0 595)" d="M300.472 261.523L547.086 261.523L547.086 261.523L547.086 251.729L547.086 251.729L300.472 251.729z" stroke="none" fill="#E8E9EA" fill-rule="winding" /><path transform="matrix(1 0 0 -1 0 595)" d="M300.4725 251.7926L547.0865 251.7926" stroke="#565759" stroke-width="0.125" fill="none" /><path transform="matrix(1 0 0 -1 0 595)" d="M300.472 251.723L547.086 251.723L547.086 251.723L547.086 241.929L547.086 241.929L300.472 241.929z" stroke="none" fill="#E8E9EA" fill-rule="winding" /><path transform="matrix(1 0 0 -1 0 595)" d="M300.4725 241.9926L547.0865 241.9926" stroke="#565759" stroke-width="0.125" fill="none" /><path transform="matrix(1 0 0 -1 0 595)" d="M300.4725 232.1926L547.0865 232.1926" stroke="#565759" stroke-width="0.125" fill="none" /><path transform="matrix(1 0 0 -1 0 595)" d="M300.4725 222.3926L547.0865 222.3926" stroke="#565759" stroke-width="0.125" fill="none" /><path transform="matrix(1 0 0 -1 0 595)" d="M300.4725 212.5926L547.0865 212.5926" stroke="#565759" stroke-width="0.125" fill="none" /><path transform="matrix(1 0 0 -1 0 595)" d="M300.4725 202.7926L547.0865 202.7926" stroke="#565759" stroke-width="0.125" fill="none" /><path transform="matrix(1 0 0 -1 0 595)" d="M300.4725 192.9926L547.0865 192.9926" stroke="#565759" stroke-width="0.125" fill="none" /><path transform="matrix(1 0 0 -1 0 595)" d="M300.4725 183.1926L547.0865 183.1926" stroke="#565759" stroke-width="0.125" fill="none" /><path transform="matrix(1 0 0 -1 0 595)" d="M300.4725 173.3926L547.0865 173.3926" stroke="#565759" stroke-width="0.125" fill="none" /><path transform="matrix(1 0 0 -1 0 595)" d="M300.472 173.323L547.086 173.323L547.086 173.323L547.086 163.529L547.086 163.529L300.472 163.529z" stroke="none" fill="#E8E9EA" fill-rule="winding" /><path transform="matrix(1 0 0 -1 0 595)" d="M300.4725 163.5926L547.0865 163.5926" stroke="#565759" stroke-width="0.125" fill="none" /><path transform="matrix(1 0 0 -1 0 595)" d="M300.4725 143.7034L547.0865 143.7034" stroke="#221E1F" stroke-width="0.25" fill="none" /><path transform="matrix(1 0 0 -1 0 595)" d="M300.472 143.603L547.086 143.603L547.086 143.603L547.086 134.129L547.086 134.129L300.472 134.129z" stroke="none" fill="#E8E9EA" fill-rule="winding" /><path transform="matrix(1 0 0 -1 0 595)" d="M300.4725 134.1926L547.0865 134.1926" stroke="#565759" stroke-width="0.125" fill="none" /><path transform="matrix(1 0 0 -1 0 595)" d="M300.472 134.123L547.086 134.123L547.086 134.123L547.086 124.329L547.086 124.329L300.472 124.329z" stroke="none" fill="#E8E9EA" fill-rule="winding" /><path transform="matrix(1 0 0 -1 0 595)" d="M300.4725 124.3926L547.0865 124.3926" stroke="#565759" stroke-width="0.125" fill="none" /><path transform="matrix(1 0 0 -1 0 595)" d="M300.4725 114.5926L547.0865 114.5926" stroke="#565759" stroke-width="0.125" fill="none" /><path transform="matrix(1 0 0 -1 0 595)" d="M300.472 114.523L547.086 114.523L547.086 114.523L547.086 104.729L547.086 104.729L300.472 104.729z" stroke="none" fill="#E8E9EA" fill-rule="winding" /><path transform="matrix(1 0 0 -1 0 595)" d="M300.4725 104.7926L547.0865 104.7926" stroke="#565759" stroke-width="0.125" fill="none" /><path transform="matrix(1 0 0 -1 0 595)" d="M300.4725 94.9926L547.0865 94.9926" stroke="#565759" stroke-width="0.125" fill="none" /><path transform="matrix(1 0 0 -1 0 595)" d="M300.472 94.923L547.086 94.923L547.086 94.923L547.086 85.129L547.086 85.129L300.472 85.129z" stroke="none" fill="#E8E9EA" fill-rule="winding" /><path transform="matrix(1 0 0 -1 0 595)" d="M300.4725 85.1926L547.0865 85.1926" stroke="#565759" stroke-width="0.125" fill="none" /><path transform="matrix(1 0 0 -1 0 595)" d="M300.4725 75.3926L547.0865 75.3926" stroke="#565759" stroke-width="0.125" fill="none" /><path transform="matrix(1 0 0 -1 0 595)" d="M300.472 75.323L547.086 75.323L547.086 75.323L547.086 65.529L547.086 65.529L300.472 65.529z" stroke="none" fill="#E8E9EA" fill-rule="winding" /><path transform="matrix(1 0 0 -1 0 595)" d="M300.4725 65.5926L547.0865 65.5926" stroke="#565759" stroke-width="0.125" fill="none" /><path transform="matrix(1 0 0 -1 0 595)" d="M300.472 65.523L547.086 65.523L547.086 65.523L547.086 55.729L547.086 55.729L300.472 55.729z" stroke="none" fill="#E8E9EA" fill-rule="winding" /><path transform="matrix(1 0 0 -1 0 595)" d="M300.4725 55.7926L547.0865 55.7926" stroke="#565759" stroke-width="0.125" fill="none" /><path transform="matrix(1 0 0 -1 0 595)" d="M300.4725 45.9926L547.0865 45.9926" stroke="#565759" stroke-width="0.125" fill="none" /><path transform="matrix(1 0 0 -1 0 595)" d="M300.4725 36.1926L547.0865 36.1926" stroke="#565759" stroke-width="0.125" fill="none" /><path transform="matrix(1 0 0 -1 0 595)" d="M300.4725 26.3926L547.0865 26.3926" stroke="#565759" stroke-width="0.125" fill="none" /><path transform="matrix(1 0 0 -1 0 595)" d="M572.5984 545.5034L819.2124 545.5034" stroke="#221E1F" stroke-width="0.25" fill="none" /><path transform="matrix(1 0 0 -1 0 595)" d="M572.598 545.403L819.212 545.403L819.212 545.403L819.212 535.929L819.212 535.929L572.598 535.929z" stroke="none" fill="#E8E9EA" fill-rule="winding" /><path transform="matrix(1 0 0 -1 0 595)" d="M572.5984 535.9927L819.2124 535.9927" stroke="#565759" stroke-width="0.125" fill="none" /><path transform="matrix(1 0 0 -1 0 595)" d="M572.598 535.923L819.212 535.923L819.212 535.923L819.212 526.129L819.212 526.129L572.598 526.129z" stroke="none" fill="#E8E9EA" fill-rule="winding" /><path transform="matrix(1 0 0 -1 0 595)" d="M572.5984 526.1927L819.2124 526.1927" stroke="#565759" stroke-width="0.125" fill="none" /><path transform="matrix(1 0 0 -1 0 595)" d="M572.598 526.123L819.212 526.123L819.212 526.123L819.212 516.329L819.212 516.329L572.598 516.329z" stroke="none" fill="#E8E9EA" fill-rule="winding" /><path transform="matrix(1 0 0 -1 0 595)" d="M572.5984 516.3927L819.2124 516.3927" stroke="#565759" stroke-width="0.125" fill="none" /><path transform="matrix(1 0 0 -1 0 595)" d="M572.5984 506.5927L819.2124 506.5927" stroke="#565759" stroke-width="0.125" fill="none" /><path transform="matrix(1 0 0 -1 0 595)" d="M572.5984 486.9926L819.2124 486.9926" stroke="#565759" stroke-width="0.125" fill="none" /><path transform="matrix(1 0 0 -1 0 595)" d="M572.598 486.923L819.212 486.923L819.212 486.923L819.212 477.129L819.212 477.129L572.598 477.129z" stroke="none" fill="#E8E9EA" fill-rule="winding" /><path transform="matrix(1 0 0 -1 0 595)" d="M572.5984 477.1927L819.2124 477.1927" stroke="#565759" stroke-width="0.125" fill="none" /><path transform="matrix(1 0 0 -1 0 595)" d="M572.5984 467.3926L819.2124 467.3926" stroke="#565759" stroke-width="0.125" fill="none" /><path transform="matrix(1 0 0 -1 0 595)" d="M572.598 467.323L819.212 467.323L819.212 467.323L819.212 457.529L819.212 457.529L572.598 457.529z" stroke="none" fill="#E8E9EA" fill-rule="winding" /><path transform="matrix(1 0 0 -1 0 595)" d="M572.5984 457.5927L819.2124 457.5927" stroke="#565759" stroke-width="0.125" fill="none" /><path transform="matrix(1 0 0 -1 0 595)" d="M572.598 457.523L819.212 457.523L819.212 457.523L819.212 447.729L819.212 447.729L572.598 447.729z" stroke="none" fill="#E8E9EA" fill-rule="winding" /><path transform="matrix(1 0 0 -1 0 595)" d="M572.5984 447.7926L819.2124 447.7926" stroke="#565759" stroke-width="0.125" fill="none" /><path transform="matrix(1 0 0 -1 0 595)" d="M572.5984 437.9926L819.2124 437.9926" stroke="#565759" stroke-width="0.125" fill="none" /><path transform="matrix(1 0 0 -1 0 595)" d="M572.598 437.923L819.212 437.923L819.212 437.923L819.212 428.129L819.212 428.129L572.598 428.129z" stroke="none" fill="#E8E9EA" fill-rule="winding" /><path transform="matrix(1 0 0 -1 0 595)" d="M572.5984 428.1927L819.2124 428.1927" stroke="#565759" stroke-width="0.125" fill="none" /><path transform="matrix(1 0 0 -1 0 595)" d="M572.598 428.123L819.212 428.123L819.212 428.123L819.212 418.329L819.212 418.329L572.598 418.329z" stroke="none" fill="#E8E9EA" fill-rule="winding" /><path transform="matrix(1 0 0 -1 0 595)" d="M572.5984 418.3927L819.2124 418.3927" stroke="#565759" stroke-width="0.125" fill="none" /><path transform="matrix(1 0 0 -1 0 595)" d="M572.598 418.323L819.212 418.323L819.212 418.323L819.212 408.529L819.212 408.529L572.598 408.529z" stroke="none" fill="#E8E9EA" fill-rule="winding" /><path transform="matrix(1 0 0 -1 0 595)" d="M572.5984 408.5927L819.2124 408.5927" stroke="#565759" stroke-width="0.125" fill="none" /><path transform="matrix(1 0 0 -1 0 595)" d="M572.598 408.523L819.212 408.523L819.212 408.523L819.212 398.729L819.212 398.729L572.598 398.729z" stroke="none" fill="#E8E9EA" fill-rule="winding" /><path transform="matrix(1 0 0 -1 0 595)" d="M572.5984 398.7926L819.2124 398.7926" stroke="#565759" stroke-width="0.125" fill="none" /><path transform="matrix(1 0 0 -1 0 595)" d="M572.598 398.723L819.212 398.723L819.212 398.723L819.212 388.929L819.212 388.929L572.598 388.929z" stroke="none" fill="#E8E9EA" fill-rule="winding" /><path transform="matrix(1 0 0 -1 0 595)" d="M572.5984 388.9926L819.2124 388.9926" stroke="#565759" stroke-width="0.125" fill="none" /><path transform="matrix(1 0 0 -1 0 595)" d="M572.5984 379.1927L819.2124 379.1927" stroke="#565759" stroke-width="0.125" fill="none" /><path transform="matrix(1 0 0 -1 0 595)" d="M572.5984 369.3927L819.2124 369.3927" stroke="#565759" stroke-width="0.125" fill="none" /><path transform="matrix(1 0 0 -1 0 595)" d="M572.5984 359.5927L819.2124 359.5927" stroke="#565759" stroke-width="0.125" fill="none" /><path transform="matrix(1 0 0 -1 0 595)" d="M572.5984 349.7926L819.2124 349.7926" stroke="#565759" stroke-width="0.125" fill="none" /><path transform="matrix(1 0 0 -1 0 595)" d="M572.598 349.723L819.212 349.723L819.212 349.723L819.212 339.929L819.212 339.929L572.598 339.929z" stroke="none" fill="#E8E9EA" fill-rule="winding" /><path transform="matrix(1 0 0 -1 0 595)" d="M572.5984 339.9926L819.2124 339.9926" stroke="#565759" stroke-width="0.125" fill="none" /><path transform="matrix(1 0 0 -1 0 595)" d="M572.5984 330.1927L819.2124 330.1927" stroke="#565759" stroke-width="0.125" fill="none" /><path transform="matrix(1 0 0 -1 0 595)" d="M572.5984 320.3927L819.2124 320.3927" stroke="#565759" stroke-width="0.125" fill="none" /><path transform="matrix(1 0 0 -1 0 595)" d="M572.5984 310.5927L819.2124 310.5927" stroke="#565759" stroke-width="0.125" fill="none" /><path transform="matrix(1 0 0 -1 0 595)" d="M572.5984 300.7927L819.2124 300.7927" stroke="#565759" stroke-width="0.125" fill="none" /><path transform="matrix(1 0 0 -1 0 595)" d="M572.5984 290.9926L819.2124 290.9926" stroke="#565759" stroke-width="0.125" fill="none" /><path transform="matrix(1 0 0 -1 0 595)" d="M572.598 290.923L819.212 290.923L819.212 290.923L819.212 281.129L819.212 281.129L572.598 281.129z" stroke="none" fill="#E8E9EA" fill-rule="winding" /><path transform="matrix(1 0 0 -1 0 595)" d="M572.5984 281.1927L819.2124 281.1927" stroke="#565759" stroke-width="0.125" fill="none" /><path transform="matrix(1 0 0 -1 0 595)" d="M572.5984 271.3926L819.2124 271.3926" stroke="#565759" stroke-width="0.125" fill="none" /><path transform="matrix(1 0 0 -1 0 595)" d="M572.5984 261.5927L819.2124 261.5927" stroke="#565759" stroke-width="0.125" fill="none" /><path transform="matrix(1 0 0 -1 0 595)" d="M572.5984 251.7927L819.2124 251.7927" stroke="#565759" stroke-width="0.125" fill="none" /><path transform="matrix(1 0 0 -1 0 595)" d="M572.5984 241.9927L819.2124 241.9927" stroke="#565759" stroke-width="0.125" fill="none" /><path transform="matrix(1 0 0 -1 0 595)" d="M572.5984 222.1034L819.2124 222.1034" stroke="#221E1F" stroke-width="0.25" fill="none" /><path transform="matrix(1 0 0 -1 0 595)" d="M572.598 222.003L819.212 222.003L819.212 222.003L819.212 212.529L819.212 212.529L572.598 212.529z" stroke="none" fill="#E8E9EA" fill-rule="winding" /><path transform="matrix(1 0 0 -1 0 595)" d="M572.5984 212.5927L819.2124 212.5927" stroke="#565759" stroke-width="0.125" fill="none" /><path transform="matrix(1 0 0 -1 0 595)" d="M572.5984 202.7927L819.2124 202.7927" stroke="#565759" stroke-width="0.125" fill="none" /><path transform="matrix(1 0 0 -1 0 595)" d="M572.5984 192.9927L819.2124 192.9927" stroke="#565759" stroke-width="0.125" fill="none" /><path transform="matrix(1 0 0 -1 0 595)" d="M572.598 192.923L819.212 192.923L819.212 192.923L819.212 183.129L819.212 183.129L572.598 183.129z" stroke="none" fill="#E8E9EA" fill-rule="winding" /><path transform="matrix(1 0 0 -1 0 595)" d="M572.5984 183.1927L819.2124 183.1927" stroke="#565759" stroke-width="0.125" fill="none" /><path transform="matrix(1 0 0 -1 0 595)" d="M572.5984 173.3927L819.2124 173.3927" stroke="#565759" stroke-width="0.125" fill="none" /><path transform="matrix(1 0 0 -1 0 595)" d="M572.5984 153.5034L819.2124 153.5034" stroke="#221E1F" stroke-width="0.25" fill="none" /><path transform="matrix(1 0 0 -1 0 595)" d="M572.598 153.403L819.212 153.403L819.212 153.403L819.212 143.929L819.212 143.929L572.598 143.929z" stroke="none" fill="#E8E9EA" fill-rule="winding" /><path transform="matrix(1 0 0 -1 0 595)" d="M572.5984 143.9927L819.2124 143.9927" stroke="#565759" stroke-width="0.125" fill="none" /><path transform="matrix(1 0 0 -1 0 595)" d="M572.598 143.923L819.212 143.923L819.212 143.923L819.212 134.129L819.212 134.129L572.598 134.129z" stroke="none" fill="#E8E9EA" fill-rule="winding" /><path transform="matrix(1 0 0 -1 0 595)" d="M572.5984 134.1927L819.2124 134.1927" stroke="#565759" stroke-width="0.125" fill="none" /><path transform="matrix(1 0 0 -1 0 595)" d="M572.598 134.123L819.212 134.123L819.212 134.123L819.212 124.329L819.212 124.329L572.598 124.329z" stroke="none" fill="#E8E9EA" fill-rule="winding" /><path transform="matrix(1 0 0 -1 0 595)" d="M572.5984 124.3927L819.2124 124.3927" stroke="#565759" stroke-width="0.125" fill="none" /><path transform="matrix(1 0 0 -1 0 595)" d="M572.5984 104.5034L819.2124 104.5034" stroke="#221E1F" stroke-width="0.25" fill="none" /><path transform="matrix(1 0 0 -1 0 595)" d="M572.598 104.403L819.212 104.403L819.212 104.403L819.212 94.929L819.212 94.929L572.598 94.929z" stroke="none" fill="#E8E9EA" fill-rule="winding" /><path transform="matrix(1 0 0 -1 0 595)" d="M572.5984 94.9927L819.2124 94.9927" stroke="#565759" stroke-width="0.125" fill="none" /><path transform="matrix(1 0 0 -1 0 595)" d="M572.598 94.923L819.212 94.923L819.212 94.923L819.212 85.129L819.212 85.129L572.598 85.129z" stroke="none" fill="#E8E9EA" fill-rule="winding" /><path transform="matrix(1 0 0 -1 0 595)" d="M572.5984 85.1927L819.2124 85.1927" stroke="#565759" stroke-width="0.125" fill="none" /><path transform="matrix(1 0 0 -1 0 595)" d="M572.598 85.123L819.212 85.123L819.212 85.123L819.212 75.329L819.212 75.329L572.598 75.329z" stroke="none" fill="#E8E9EA" fill-rule="winding" /><path transform="matrix(1 0 0 -1 0 595)" d="M572.5984 75.3927L819.2124 75.3927" stroke="#565759" stroke-width="0.125" fill="none" /><path transform="matrix(1 0 0 -1 0 595)" d="M572.598 75.323L819.212 75.323L819.212 75.323L819.212 65.529L819.212 65.529L572.598 65.529z" stroke="none" fill="#E8E9EA" fill-rule="winding" /><path transform="matrix(1 0 0 -1 0 595)" d="M572.5984 65.5927L819.2124 65.5927" stroke="#565759" stroke-width="0.125" fill="none" /><path transform="matrix(1 0 0 -1 0 595)" d="M572.5984 45.7034L819.2124 45.7034" stroke="#221E1F" stroke-width="0.25" fill="none" /><path transform="matrix(1 0 0 -1 0 595)" d="M572.5984 36.1927L819.2124 36.1927" stroke="#565759" stroke-width="0.125" fill="none" /><path transform="matrix(1 0 0 -1 0 595)" d="M572.5984 26.3927L819.2124 26.3927" stroke="#565759" stroke-width="0.125" fill="none" /><path transform="matrix(1 0 0 -1 0 595)" d="M19.843 358.016L277.796 358.016L277.796 358.016L277.796 493.229L277.796 493.229L19.843 493.229z" stroke="none" fill="#E8E9EA" fill-rule="winding" /><path transform="matrix(1 0 0 -1 0 595)" d="M28.3465 447.7926L269.2915 447.7926" stroke="#565759" stroke-width="0.125" fill="none" /><path transform="matrix(1 0 0 -1 0 595)" d="M28.3465 437.9926L269.2915 437.9926" stroke="#565759" stroke-width="0.125" fill="none" /><path transform="matrix(1 0 0 -1 0 595)" d="M28.3465 428.1926L269.2915 428.1926" stroke="#565759" stroke-width="0.125" fill="none" /><path transform="matrix(1 0 0 -1 0 595)" d="M28.3465 418.3926L269.2915 418.3926" stroke="#565759" stroke-width="0.125" fill="none" /><path transform="matrix(1 0 0 -1 0 595)" d="M28.3465 408.5926L269.2915 408.5926" stroke="#565759" stroke-width="0.125" fill="none" /><path transform="matrix(1 0 0 -1 0 595)" d="M28.3465 398.7926L269.2915 398.7926" stroke="#565759" stroke-width="0.125" fill="none" /><path transform="matrix(1 0 0 -1 0 595)" d="M28.3465 388.9926L269.2915 388.9926" stroke="#565759" stroke-width="0.125" fill="none" /><path transform="matrix(1 0 0 -1 0 595)" d="M28.3465 379.1926L269.2915 379.1926" stroke="#565759" stroke-width="0.125" fill="none" /><path transform="matrix(1 0 0 -1 0 595)" d="M28.3465 369.3926L269.2915 369.3926" stroke="#565759" stroke-width="0.125" fill="none" /><path transform="matrix(1 0 0 -1 0 595)" d="M28.346 537.625L46.988 537.625L46.988 537.625L46.988 556.267L46.988 556.267L28.346 556.267z" stroke="none" fill="#221E1F" fill-rule="winding" /><path transform="matrix(1 0 0 -1 0 595)" d="M37.085 539.955L30.094 539.955L30.094 539.955L30.094 541.12L30.094 541.12L37.085 541.12z" stroke="none" fill="#FFFFFF" fill-rule="winding" /><path transform="matrix(1 0 0 -1 0 595)" d="M30.729 553.935L31.753 553.935L31.753 553.935L31.753 549.283L31.753 549.283L30.729 549.283z" stroke="none" fill="#FFFFFF" fill-rule="winding" /><path transform="matrix(1 0 0 -1 0 595)" d="M30.077 549.283L32.404 549.283L32.404 549.283L32.404 550.136L32.404 550.136L30.077 550.136z" stroke="none" fill="#FFFFFF" fill-rule="winding" /><path transform="matrix(1 0 0 -1 0 595)" d="M30.077 553.082L32.404 553.082L32.404 553.082L32.404 553.935L32.404 553.935L30.077 553.935z" stroke="none" fill="#FFFFFF" fill-rule="winding" /><g clip-path="url(#2)"><path transform="matrix(1 0 0 -1 0 595)" d="M34.6366 549.2164C 34.2736 549.2164 33.9686 549.2853 33.7226 549.4224C 33.4766 549.5594 33.2736 549.7234 33.1146 549.9144L33.1146 549.9144L33.7596 550.6324C 33.8926 550.4864 34.0266 550.3714 34.1616 550.2894C 34.2966 550.2074 34.4456 550.1664 34.6096 550.1664C 34.8046 550.1664 34.9576 550.2274 35.0686 550.3494C 35.1796 550.4714 35.2346 550.6674 35.2346 550.9374L35.2346 550.9374L35.2346 553.9354L35.2346 553.9354L36.2846 553.9354L36.2846 553.9354L36.2846 550.8914C 36.2846 550.6124 36.2476 550.3704 36.1716 550.1664C 36.0966 549.9634 35.9876 549.7903 35.8466 549.6484C 35.7046 549.5063 35.5306 549.3994 35.3246 549.3264C 35.1186 549.2534 34.8896 549.2164 34.6366 549.2164" stroke="none" fill="#FFFFFF" fill-rule="winding" /></g><path transform="matrix(1 0 0 -1 0 595)" d="M51.607 556.248L55.709 556.248L55.709 556.248L55.709 537.602L55.709 537.602L51.607 537.602z" stroke="none" fill="#221E1F" fill-rule="winding" /><g clip-path="url(#3)"><path transform="matrix(1 0 0 -1 0 595)" d="M56.8007 551.8794L60.8497 551.8794L60.8497 551.8794L60.8497 549.8554C 61.7817 551.0534 62.9807 552.1454 65.0317 552.1454C 68.0947 552.1454 69.8797 550.1214 69.8797 546.8454L69.8797 546.8454L69.8797 537.6024L69.8797 537.6024L65.8307 537.6024L65.8307 537.6024L65.8307 545.5664C 65.8307 547.4844 64.9247 548.4704 63.3797 548.4704C 61.8347 548.4704 60.8497 547.4844 60.8497 545.5664L60.8497 545.5664L60.8497 537.6024L60.8497 537.6024L56.8007 537.6024z" stroke="none" fill="#221E1F" fill-rule="winding" /><path transform="matrix(1 0 0 -1 0 595)" d="M72.0625 541.6509L72.0625 548.4169L72.0625 548.4169L70.3575 548.4169L70.3575 548.4169L70.3575 551.8789L70.3575 551.8789L72.0625 551.8789L72.0625 551.8789L72.0625 555.5289L72.0625 555.5289L76.1115 555.5289L76.1115 555.5289L76.1115 551.8789L76.1115 551.8789L79.4675 551.8789L79.4675 551.8789L79.4675 548.4169L79.4675 548.4169L76.1115 548.4169L76.1115 548.4169L76.1115 542.3169C 76.1115 541.3849 76.5105 540.9319 77.4165 540.9319C 78.1625 540.9319 78.8285 541.1179 79.4145 541.4379L79.4145 541.4379L79.4145 538.1879C 78.5615 537.6819 77.5765 537.3619 76.2175 537.3619C 73.7405 537.3619 72.0625 538.3479 72.0625 541.6509" stroke="none" fill="#221E1F" fill-rule="winding" /><path transform="matrix(1 0 0 -1 0 595)" d="M89.4291 545.8599C 89.1891 547.6709 88.1241 548.8959 86.4191 548.8959C 84.7411 548.8959 83.6491 547.6979 83.3291 545.8599zM79.3601 544.6609L79.3601 544.7139C 79.3601 548.7899 82.2631 552.1459 86.4191 552.1459C 91.1871 552.1459 93.3711 548.4429 93.3711 544.3949C 93.3711 544.0749 93.3441 543.7019 93.3181 543.3289L93.3181 543.3289L83.3821 543.3289C 83.7821 541.4909 85.0601 540.5319 86.8721 540.5319C 88.2301 540.5319 89.2161 540.9579 90.3341 541.9969L90.3341 541.9969L92.6521 539.9459C 91.3201 538.2949 89.4021 537.2829 86.8181 537.2829C 82.5301 537.2829 79.3601 540.2929 79.3601 544.6609" stroke="none" fill="#221E1F" fill-rule="winding" /></g><path transform="matrix(1 0 0 -1 0 595)" d="M94.143 557.047L98.192 557.047L98.192 557.047L98.192 537.602L98.192 537.602L94.143 537.602z" stroke="none" fill="#221E1F" fill-rule="winding" /><path transform="matrix(1 0 0 -1 0 595)" d="M99.043 557.047L103.092 557.047L103.092 557.047L103.092 537.602L103.092 537.602L99.043 537.602z" stroke="none" fill="#221E1F" fill-rule="winding" /><path transform="matrix(1 0 0 -1 0 595)" d="M104.21 551.879L108.259 551.879L108.259 551.879L108.259 537.6021L108.259 537.6021L104.21 537.6021zM104.103 557.047L108.365 557.047L108.365 557.047L108.365 553.451L108.365 553.451L104.103 553.451z" stroke="none" fill="#221E1F" fill-rule="winding" /><g clip-path="url(#4)"><path transform="matrix(1 0 0 -1 0 595)" d="M108.5508 540.1326L111.1348 543.0096C 112.1998 541.8376 113.2388 541.1447 114.5438 541.1447C 116.0888 541.1447 117.0478 542.0776 117.0478 544.2346L117.0478 544.2346L117.0478 556.2476L117.0478 556.2476L121.2568 556.2476L121.2568 556.2476L121.2568 544.0486C 121.2568 541.8376 120.6168 540.1856 119.4988 539.0676C 118.3528 537.9216 116.6748 537.3356 114.6508 537.3356C 111.7468 537.3356 109.8298 538.6146 108.5508 540.1326" stroke="none" fill="#221E1F" fill-rule="winding" /></g><path transform="matrix(1 0 0 -1 0 595)" d="M127.968 556.248L132.07 556.248L132.07 556.248L132.07 537.602L132.07 537.602L127.968 537.602z" stroke="none" fill="#221E1F" fill-rule="winding" /><g clip-path="url(#5)"><path transform="matrix(1 0 0 -1 0 595)" d="M137.6361 552.5449L137.6361 541.3049L137.6361 541.3049L140.8061 541.3049C 144.1621 541.3049 146.4261 543.5689 146.4261 546.8719L146.4261 546.8719L146.4261 546.9249C 146.4261 550.2279 144.1621 552.5449 140.8061 552.5449zM133.5341 556.2479L140.8061 556.2479C 146.6661 556.2479 150.7151 552.226 150.7151 546.9779L150.7151 546.9779L150.7151 546.9249C 150.7151 541.6779 146.6661 537.6019 140.8061 537.6019L140.8061 537.6019L133.5341 537.6019z" stroke="none" fill="#221E1F" fill-rule="winding" /></g><path transform="matrix(1 0 0 -1 0 595)" d="M151.6194 556.2479L165.6834 556.2479L165.6834 556.2479L165.6834 552.5989L165.6834 552.5989L155.6954 552.5989L155.6954 552.5989L155.6954 548.8159L155.6954 548.8159L164.4854 548.8159L164.4854 548.8159L164.4854 545.1669L164.4854 545.1669L155.6954 545.1669L155.6954 545.1669L155.6954 541.252L155.6954 541.252L165.8164 541.252L165.8164 541.252L165.8164 537.6019L165.8164 537.6019L151.6194 537.6019z" stroke="none" fill="#221E1F" fill-rule="winding" /><path transform="matrix(1 0 0 -1 0 595)" d="M178.6812 545.407L176.2042 551.453L176.2042 551.453L173.7272 545.407zM174.3662 556.381L178.1482 556.381L178.1482 556.381L186.1392 537.602L186.1392 537.602L181.8512 537.602L181.8512 537.602L180.1462 541.784L180.1462 541.784L172.2622 541.784L172.2622 541.784L170.5572 537.602L170.5572 537.602L166.3752 537.602z" stroke="none" fill="#221E1F" fill-rule="winding" /><path transform="matrix(1 0 0 -1 0 595)" d="M28.346 29.103L55.346 29.103L55.346 29.103L55.346 37.256L55.346 37.256L28.346 37.256z" stroke="none" fill="#E8E9EA" fill-rule="winding" /><path transform="matrix(1 0 0 -1 0 595)" d="M28.3465 37.3081L55.3605 37.3081" stroke="#A8AAAD" stroke-width="0.25" fill="none" /><path transform="matrix(1 0 0 -1 0 595)" d="M28.3465 29.0542L55.3605 29.0542" stroke="#A8AAAD" stroke-width="0.25" fill="none" /><path transform="matrix(1 0 0 -1 0 595)" d="M206.4249 524.9167L218.4179 523.2027L218.4179 523.2027L218.4179 534.5147L218.4179 534.5147L206.4249 534.5147zM219.4179 522.0507L205.4249 524.0497L205.4249 524.0497L205.4249 535.5147L205.4249 535.5147L219.4179 535.5147z" stroke="none" fill="#A8AAAD" fill-rule="winding" /><path transform="matrix(1 0 0 -1 0 595)" d="M221.8543 522.7125L238.2343 520.3715L238.2343 520.3715L238.2343 534.5145L238.2343 534.5145L221.8543 534.5145zM239.2343 519.2195L220.8543 521.8455L220.8543 521.8455L220.8543 535.5145L220.8543 535.5145L239.2343 535.5145z" stroke="none" fill="#A8AAAD" fill-rule="winding" /><path transform="matrix(1 0 0 -1 0 595)" d="M221.8543 537.952L238.2343 537.951L238.2343 537.951L238.2343 552.146L238.2343 552.146L221.8543 549.806zM239.2343 536.951L220.8543 536.952L220.8543 536.952L220.8543 550.674L220.8543 550.674L239.2343 553.299z" stroke="none" fill="#A8AAAD" fill-rule="winding" /><path transform="matrix(1 0 0 -1 0 595)" d="M206.4249 537.952L218.4179 537.952L218.4179 537.952L218.4179 549.314L218.4179 549.314L206.4249 547.6021zM219.4179 536.952L205.4249 536.952L205.4249 536.952L205.4249 548.4691L205.4249 548.4691L219.4179 550.467z" stroke="none" fill="#A8AAAD" fill-rule="winding" /><g clip-path="url(#6)"><path transform="matrix(1 0 0 -1 0 595)" d="M264.0394 549.8052C 264.3274 549.8052 264.5834 549.7022 264.8054 549.4962C 264.9814 549.3322 265.1114 549.1532 265.1944 548.9572C 265.2054 549.0572 265.2084 549.1602 265.2044 549.2622C 265.1864 549.6972 265.0294 550.0702 264.7724 550.2852C 264.5724 550.4532 264.2964 550.5352 264.0024 550.5082C 263.7364 550.4842 263.4984 550.3672 263.3494 550.1872C 263.1154 549.9032 262.9764 549.6052 262.9324 549.2842C 263.0884 549.4872 263.3094 549.6392 263.5904 549.7302C 263.7484 549.7802 263.8974 549.8052 264.0394 549.8052M264.7014 546.8052C 264.4794 546.8052 264.3074 546.9192 264.1974 547.0192C 264.0354 547.1672 263.9884 547.4032 264.0814 547.6022C 264.4764 548.4352 264.2644 548.6332 264.1234 548.7642C 264.0854 548.8002 264.0584 548.8302 263.8974 548.7782C 263.7964 548.7462 263.5594 548.6692 263.7034 548.0812C 263.7414 547.9252 263.7034 547.7622 263.6004 547.6402C 263.4984 547.5172 263.3434 547.4482 263.1844 547.4632C 262.4904 547.5092 262.0094 548.0062 261.9314 548.7562C 261.8544 549.5162 262.0724 550.2122 262.5784 550.8242C 262.9014 551.2142 263.3744 551.4562 263.9134 551.5052C 264.4634 551.5532 265.0134 551.3892 265.4154 551.0502C 265.8924 550.6502 266.1724 550.0302 266.2034 549.3042C 266.2374 548.4912 265.9504 547.7012 265.4344 547.1892C 265.1534 546.9012 264.9054 546.8052 264.7014 546.8052M259.9024 550.1452C 259.7014 550.1452 259.5014 550.0552 259.3404 549.8922C 259.2054 549.7562 259.1084 549.5352 259.0574 549.2802C 259.1714 549.4612 259.3314 549.6032 259.5224 549.6862C 259.9844 549.8902 260.3274 549.8352 260.5654 549.7062C 260.5194 549.7802 260.4634 549.8522 260.3964 549.9232C 260.2614 550.0662 260.0934 550.1432 259.9104 550.1452zM259.4354 546.6242C 259.2264 546.6242 259.0244 546.6992 258.8594 546.8412C 258.7754 546.9132 258.6924 546.9882 258.6194 547.0732C 257.8214 547.9672 257.8244 549.7812 258.6294 550.5952C 258.9834 550.9552 259.4364 551.1392 259.9204 551.1452C 260.3754 551.1402 260.8024 550.9502 261.1234 550.6092C 261.6174 550.0852 261.7904 549.4772 261.6894 548.6382C 261.6204 548.0522 261.2544 547.7862 261.1174 547.6852C 260.9734 547.5812 260.7854 547.5612 260.6234 547.6312C 260.4614 547.7012 260.3484 547.8512 260.3264 548.0272L260.3264 548.0272L260.3094 548.1722C 260.2814 548.4322 260.2624 548.6042 260.1084 548.8042C 260.1064 548.8222 260.0554 548.8282 259.9224 548.7702C 259.9134 548.7652 259.8794 548.7272 259.8684 548.6502C 259.8594 548.5982 259.8454 548.4192 260.0174 548.2462C 260.3904 547.8772 260.4564 547.3792 260.1814 547.0062C 260.0304 546.7992 259.7894 546.6592 259.5364 546.6302C 259.5024 546.6262 259.4684 546.6242 259.4354 546.6242M261.7544 546.0512C 261.5684 546.0502 260.9854 545.7542 260.4444 545.3292C 260.2294 545.1602 259.5734 544.6442 259.5374 544.4612C 259.5854 544.2962 260.2974 543.8122 260.5324 543.6542L260.5324 543.6542L260.6334 543.5842C 261.0744 543.2802 261.2684 543.1732 261.5504 543.2942C 262.2714 543.5972 262.9334 543.9982 263.6334 544.4222C 263.9174 544.5942 264.2034 544.7662 264.4914 544.9312C 263.4644 545.5232 262.0364 546.0402 261.7544 546.0512M261.3354 542.2462C 260.8134 542.2462 260.3954 542.5342 260.0664 542.7602L260.0664 542.7602L259.9694 542.8262C 259.1194 543.4042 258.5594 543.8292 258.5384 544.4352C 258.5164 545.0392 259.0344 545.4932 259.8274 546.1152C 260.0254 546.2722 261.0534 547.0512 261.7554 547.0512C 262.3364 547.0512 264.1534 546.3082 265.0844 545.7542C 265.4244 545.5502 265.6184 545.2442 265.6134 544.9132C 265.6094 544.5942 265.4194 544.3072 265.0944 544.1252C 264.7774 543.9452 264.4644 543.7562 264.1514 543.5662C 263.4514 543.1422 262.7264 542.7042 261.9374 542.3732C 261.7234 542.2832 261.5224 542.2462 261.3354 542.2462M258.5494 523.8412C 259.2304 523.3062 261.5294 522.0442 262.8584 522.0442L262.8584 522.0442L262.8604 522.0442C 264.3314 522.0462 266.0984 522.9532 267.4724 524.4142C 267.6954 524.6492 267.7824 524.8482 267.7834 525.1232C 267.7844 525.3612 267.7584 525.6902 267.7314 526.0592C 267.6234 527.5152 267.5724 528.6812 267.9794 529.3382C 270.0234 532.6262 269.8374 533.2912 269.4684 534.6172L269.4684 534.6172L269.4394 534.7252C 268.9434 536.5172 268.5504 536.9922 268.0074 537.6502C 267.5844 538.1622 267.0594 538.7982 266.3824 540.1552C 266.2694 540.3822 266.2014 540.4192 266.1984 540.4192C 266.1994 540.4192 266.1254 540.4262 265.9154 540.3102C 265.4734 540.0662 265.0274 539.8332 264.5814 539.5992C 264.0204 539.3062 263.4604 539.0132 262.9114 538.7012C 262.0204 538.1952 261.1154 538.2672 260.2234 538.9222L260.2234 538.9222L260.0794 539.0322C 259.7854 539.2562 258.8914 539.9302 258.4684 539.8722C 258.4284 539.8662 258.4034 539.8542 258.3704 539.8072C 257.8104 539.0102 257.3544 538.2272 256.9144 537.4692C 256.7484 537.1852 256.5854 536.9052 256.4194 536.6292C 256.2064 536.2712 256.0574 535.8722 255.9014 535.4492C 255.7564 535.0582 255.6064 534.6542 255.3964 534.2662C 255.0514 533.6312 255.0254 533.3262 254.9734 532.7182C 254.9574 532.5382 254.9404 532.3362 254.9124 532.1042C 254.7694 530.9112 255.3484 529.8802 256.7354 528.8572C 257.0524 528.6242 257.4324 528.4002 257.8344 528.1642C 258.5564 527.7392 259.3034 527.2992 259.8404 526.7132C 260.1694 526.3532 260.2064 525.9872 260.1784 525.7442C 260.0914 524.9662 259.2414 524.3262 258.5494 523.8412M262.8594 521.0442C 261.1614 521.0442 257.7044 522.8472 257.4244 523.6912C 257.3764 523.8362 257.2644 524.3292 257.8324 524.5652C 258.2544 524.8542 259.1414 525.4702 259.1854 525.8552C 259.1884 525.8822 259.1944 525.9382 259.1024 526.0392C 258.6674 526.5142 257.9864 526.9152 257.3284 527.3022C 256.9214 527.5412 256.5014 527.7882 256.1424 528.0522C 254.4584 529.2932 253.7324 530.6572 253.9194 532.2222C 253.9454 532.4432 253.9614 532.6332 253.9764 532.8052C 254.0334 533.4552 254.0744 533.9242 254.5174 534.7442C 254.6944 535.0692 254.8254 535.4222 254.9624 535.7962C 255.1284 536.2442 255.2994 536.7072 255.5624 537.1432C 255.7254 537.4162 255.8864 537.6922 256.0494 537.9722C 256.5004 538.7482 256.9674 539.5502 257.5514 540.3812C 257.7374 540.6452 257.9994 540.8112 258.3144 540.8602C 259.1464 540.9872 260.1494 540.2352 260.6844 539.8282L260.6844 539.8282L260.8154 539.7282C 261.3924 539.3062 261.8714 539.2582 262.4164 539.5702C 262.9764 539.8882 263.5464 540.1872 264.1174 540.4852C 264.5574 540.7152 264.9974 540.9462 265.4324 541.1852C 265.6904 541.3282 266.0834 541.5022 266.4974 541.3742C 266.9184 541.2432 267.1434 540.8702 267.2774 540.6012C 267.9034 539.3472 268.3684 538.7842 268.7794 538.2862C 269.3534 537.5902 269.8494 536.9892 270.4024 534.9932L270.4024 534.9932L270.4324 534.8852C 270.8854 533.2552 271.0074 532.3152 268.8294 528.8092C 268.5604 528.3792 268.6654 526.9732 268.7284 526.1332C 268.7584 525.7332 268.7844 525.3762 268.7834 525.1192C 268.7824 524.5892 268.5964 524.1472 268.2004 523.7272C 266.6444 522.0742 264.5984 521.0462 262.8614 521.0442zM248.7694 521.7522C 248.8104 521.7522 248.9974 521.6442 249.4094 521.5792C 251.6084 521.2282 253.3484 520.7412 254.8874 520.0472C 255.1414 519.9312 255.4364 519.8662 255.7484 519.7962L255.7484 519.7962L255.9884 519.7412C 256.3284 519.6622 256.6844 519.7372 256.9594 519.9542C 257.2434 520.1762 257.4084 520.5132 257.4124 520.8802C 257.4154 521.2752 257.2724 521.6422 256.9724 522.0042C 255.8964 523.2972 255.0434 524.4002 254.1224 525.8992C 253.7884 526.4432 253.5684 526.7362 253.1474 527.0332C 252.9564 527.1692 252.8304 527.2152 252.7704 527.2282C 252.7694 527.2082 252.7534 527.1602 252.7404 527.0812C 252.4344 525.2802 251.7924 525.2462 250.0794 525.1562L250.0794 525.1562L249.6234 525.1362C 249.5444 525.1352 249.3574 525.1342 249.2984 525.1082C 249.2854 525.0902 249.1644 524.9822 249.2704 524.5522C 249.3114 524.3842 249.3574 524.2382 249.3994 524.1042C 249.6344 523.3522 249.7264 522.7942 248.8944 521.9332C 248.7764 521.8112 248.7614 521.7502 248.7604 521.7492C 248.7624 521.7512 248.7654 521.7522 248.7694 521.7522M256.2564 518.7102C 256.0904 518.7102 255.9234 518.7292 255.7574 518.7682L255.7574 518.7682L255.5304 518.8202C 255.1824 518.8982 254.8244 518.9782 254.4764 519.1342C 253.0204 519.7922 251.3604 520.2552 249.2514 520.5902C 248.2494 520.7502 247.9134 521.1612 247.8074 521.4772C 247.7204 521.7392 247.7134 522.1512 248.1754 522.6292C 248.6574 523.1272 248.6214 523.2442 248.4454 523.8052C 248.3974 523.9582 248.3454 524.1242 248.2994 524.3132C 248.0934 525.1482 248.3784 525.6212 248.6554 525.8692C 248.9424 526.1312 249.3654 526.1342 249.6184 526.1362L249.6184 526.1362L250.0264 526.1542C 251.5814 526.2362 251.5814 526.2362 251.7534 527.2492C 251.8524 527.8302 252.1484 528.0662 252.3774 528.1622C 252.7604 528.3182 253.2104 528.2132 253.7244 527.8492C 254.3334 527.4192 254.6514 526.9482 254.9734 526.4222C 255.8644 524.9742 256.6934 523.9032 257.7424 522.6422C 258.1934 522.0982 258.4184 521.5022 258.4124 520.8702C 258.4054 520.1982 258.1004 519.5772 257.5764 519.1672C 257.1934 518.8672 256.7304 518.7102 256.2564 518.7102M270.4764 524.8942C 270.4844 523.9752 270.3874 523.0722 270.1864 522.1842C 270.1364 521.9652 270.0814 521.7672 270.0284 521.5812C 269.9714 521.3822 269.9184 521.1992 269.8854 521.0162C 269.8824 520.9972 269.8774 520.9782 269.8724 520.9592C 269.5524 519.8972 269.8074 519.5812 270.1304 519.3962C 270.3194 519.2862 270.4284 519.3172 270.8554 519.5942C 270.9484 519.6552 271.0404 519.7152 271.1364 519.7702C 271.2654 519.8492 272.1754 520.5302 272.8394 521.0282L272.8394 521.0282L273.7764 521.7272C 274.1704 522.0222 274.7864 522.2482 275.2804 522.4292C 275.4404 522.4882 275.5824 522.5402 275.6894 522.5852C 275.9404 522.6922 276.0524 522.8012 276.0724 522.8622C 276.0864 522.9062 276.0474 522.9782 276.0354 522.9992C 276.0364 522.9882 275.8744 523.0632 275.5214 523.1142C 274.9724 523.1932 274.5694 523.4042 274.3234 523.7422C 273.9254 524.2852 274.0414 524.9672 274.1434 525.5692C 274.1814 525.7922 274.2204 526.0092 274.2214 526.2032C 274.1974 526.1652 274.1734 526.1302 274.1564 526.1012C 274.0934 526.0062 274.0364 525.9212 273.9854 525.8602C 273.2834 525.0262 272.2614 524.4942 271.5224 524.5602C 271.0714 524.6022 270.7224 524.6852 270.4764 524.8942M270.3104 518.3362C 270.1004 518.3362 269.8744 518.3892 269.6334 518.5282C 268.3444 519.2632 268.7514 520.7072 268.9064 521.2202C 268.9444 521.4242 269.0024 521.6312 269.0664 521.8552C 269.1144 522.0252 269.1654 522.2062 269.2114 522.4062C 269.4574 523.4892 269.5334 524.5992 269.4384 525.7052C 269.4224 525.8902 269.4554 526.0252 269.5094 526.1222C 269.5764 526.5372 269.8884 526.8022 270.3164 526.8092C 270.5254 526.8212 270.9774 526.7502 271.0434 526.0922C 271.0794 525.7212 271.1144 525.6652 271.1214 525.6562C 271.1314 525.6462 271.2084 525.5932 271.6144 525.5562C 271.9894 525.5092 272.6924 525.8762 273.2204 526.5052C 273.2494 526.5392 273.2804 526.5892 273.3154 526.6442C 273.5074 526.9422 273.8634 527.4992 274.4994 527.4292C 275.2134 527.3512 275.2194 526.5462 275.2214 526.2432C 275.2244 525.9612 275.1754 525.6762 275.1294 525.4022C 275.0604 524.9952 274.9824 524.5342 275.1304 524.3312C 275.2314 524.1922 275.4764 524.1312 275.6644 524.1042C 276.3134 524.0092 276.7154 523.8152 276.8964 523.5072C 277.0784 523.2012 277.1244 522.8612 277.0234 522.5512C 276.9014 522.1782 276.5844 521.8802 276.0814 521.6652C 275.9604 521.6142 275.8024 521.5552 275.6244 521.4902C 275.2144 521.3392 274.6524 521.1332 274.3734 520.9252L274.3734 520.9252L273.4394 520.2272C 272.2904 519.3672 271.7724 518.9822 271.6334 518.9022C 271.5554 518.8582 271.4784 518.8072 271.4014 518.7562C 271.1254 518.5782 270.7554 518.3362 270.3104 518.3362M251.0664 529.6232C 251.0664 529.6232 251.0654 529.6222 251.0644 529.6222C 251.0654 529.6222 251.0664 529.6232 251.0664 529.6232M263.5864 519.9222C 264.8854 519.9222 266.1184 519.7942 267.3024 519.5382C 267.5734 519.4782 267.9154 519.3592 268.1994 518.9612C 268.6694 518.3002 269.2574 517.9102 269.8994 517.8302C 270.5434 517.7522 271.2014 517.9862 271.8144 518.5102C 272.8624 519.4062 274.0354 520.2002 275.3974 520.9372C 276.1334 521.3362 276.8674 521.7372 277.5874 522.1592C 278.1324 522.4772 278.4394 522.8832 278.4094 523.2472C 278.3804 523.5812 278.0764 523.8812 277.5724 524.0722C 276.5134 524.4752 275.8704 525.5822 275.8934 526.9612C 275.9004 527.3682 275.7564 527.5412 275.4104 527.9582C 274.9304 528.5372 274.9864 529.0712 275.0834 529.4772C 275.5884 531.6032 275.2534 533.6032 274.0604 535.5882C 272.8744 537.5612 271.7874 539.3302 270.5004 540.9962C 269.2114 542.6622 268.5954 544.5242 268.6144 546.6902C 268.6184 547.0022 268.6084 547.3142 268.5924 547.6262C 268.5774 547.9312 268.5694 548.2372 268.5614 548.5422C 268.5324 549.7092 268.5034 550.8122 268.0624 551.8512C 267.3444 553.5422 265.5774 554.8872 264.0374 554.9152C 264.0354 554.9152 263.9934 554.9162 263.9934 554.9162C 263.1924 554.9312 262.6134 554.9402 261.8214 554.7632C 260.1694 554.3962 258.2524 553.2722 257.8244 551.2172C 257.7224 550.7262 257.6694 550.1352 257.6644 549.4112C 257.6584 548.7372 257.9364 546.1792 258.1974 544.1962C 258.3514 543.0182 258.0044 541.9282 257.1384 540.8632C 255.7514 539.1542 254.2404 537.0712 253.5394 534.5782C 253.2484 533.5432 252.8154 532.5762 252.3964 531.6752C 252.2724 531.4092 252.1834 530.7902 252.1124 530.2932C 251.9804 529.3662 251.9144 528.9822 251.6144 528.7862C 251.5254 528.7282 251.4854 528.6412 251.3994 528.4252C 251.3464 528.2922 251.2904 528.1552 251.2134 528.0212C 250.8454 527.3792 250.5404 526.8442 249.7514 526.5862C 249.4544 526.4882 249.0884 526.4582 248.7364 526.4282C 248.4594 526.4052 248.1734 526.3812 247.9944 526.3282C 247.3284 526.1302 247.1314 525.7362 247.3364 525.0142C 247.6304 523.9802 247.5974 522.9552 247.2354 521.8822C 247.0474 521.3282 246.9994 520.9762 247.0894 520.8082C 247.1794 520.6372 247.4924 520.4842 248.0704 520.3262C 248.7354 520.1432 249.4344 520.0082 250.1094 519.8792C 251.2884 519.6522 252.5054 519.4182 253.6664 518.9162C 254.4704 518.5692 255.2684 518.3182 256.0374 518.1722C 257.1264 517.9652 257.7984 518.1872 258.2814 518.9132C 258.4084 519.1072 258.6294 519.3792 259.0624 519.4612C 260.6644 519.7682 262.1654 519.9222 263.5864 519.9222M270.1474 516.8152C 270.0244 516.8152 269.9004 516.8232 269.7774 516.8382C 268.8494 516.9522 268.0224 517.4862 267.3844 518.3812C 267.3094 518.4862 267.2434 518.5272 267.0884 518.5612C 264.7434 519.0682 262.1784 519.0412 259.2494 518.4792C 259.2064 518.4712 259.1844 518.4662 259.1174 518.3632C 258.4054 517.2902 257.3324 516.9092 255.8504 517.1892C 255.0084 517.3502 254.1414 517.6222 253.2704 517.9982C 252.2094 518.4562 251.0974 518.6712 249.9204 518.8972C 249.2264 519.0302 248.5074 519.1692 247.8054 519.3612C 247.1494 519.5422 246.5004 519.7852 246.2064 520.3392C 245.9124 520.8932 246.0714 521.5622 246.2884 522.2032C 246.5874 523.0892 246.6154 523.8952 246.3744 524.7412C 246.0174 525.9992 246.5034 526.9262 247.7084 527.2872C 247.9884 527.3702 248.3264 527.3982 248.6534 527.4242C 248.9484 527.4492 249.2524 527.4742 249.4384 527.5362C 249.8464 527.6692 249.9904 527.8962 250.3024 528.4422C 250.3984 528.6092 250.4334 528.7032 250.4694 528.7932C 250.5644 529.0322 250.6794 529.3242 250.9694 529.5532C 251.0204 529.7202 251.0794 530.1282 251.1234 530.4342C 251.2114 531.0542 251.3034 531.6972 251.4904 532.0972C 251.8914 532.9612 252.3064 533.8842 252.5764 534.8482C 253.3264 537.5172 254.9114 539.7052 256.3624 541.4942C 257.0464 542.3352 257.3224 543.1752 257.2054 544.0652C 256.9764 545.8062 256.6574 548.6192 256.6644 549.4192C 256.6704 550.2102 256.7294 550.8652 256.8454 551.4212C 257.3714 553.9422 259.6484 555.3052 261.6044 555.7402C 262.5124 555.9412 263.1724 555.9262 264.0104 555.9162L264.0104 555.9162L264.0544 555.9152C 265.9904 555.8812 268.1094 554.3012 268.9824 552.2422C 269.4984 551.0272 269.5304 549.7772 269.5614 548.5672C 269.5684 548.2702 269.5764 547.9732 269.5904 547.6752C 269.6084 547.3432 269.6184 547.0122 269.6144 546.6792C 269.5974 544.7492 270.1464 543.0892 271.2914 541.6072C 272.6114 539.8992 273.7144 538.1042 274.9184 536.1032C 276.2334 533.9142 276.6174 531.6062 276.0564 529.2452C 275.9764 528.9132 276.0174 528.7932 276.1364 528.6482C 276.5694 528.1272 276.9074 527.7212 276.8934 526.9432C 276.8804 526.2022 277.1464 525.3042 277.9264 525.0062C 278.8044 524.6742 279.3434 524.0632 279.4054 523.3312C 279.4694 522.5622 278.9914 521.8212 278.0924 521.2962C 277.3634 520.8682 276.6204 520.4612 275.8734 520.0582C 274.5734 519.3542 273.4574 518.5992 272.4634 517.7502C 271.7424 517.1332 270.9484 516.8152 270.1474 516.8152" stroke="none" fill="#A8AAAD" fill-rule="winding" /></g></g></g></g></svg>