<svg xmlns="http://www.w3.org/2000/svg" xmlns:xlink="http://www.w3.org/1999/xlink" id="body_17" preserveAspectRatio="xMinYMin meet" viewBox="0 0 793 1123"><defs><clipPath id="1"><path d="M0 842L0 0L0 0L595 0L595 0L595 842L595 842L0 842z" /></clipPath><clipPath id="2"><path d="M8.866E-06 842L595 842L595 842L595 0L595 0L8.866E-06 0z" /></clipPath><clipPath id="3"><path d="M8.866E-06 842L595 842L595 842L595 0L595 0L8.866E-06 0z" /></clipPath><clipPath id="4"><path d="M8.866E-06 842L595 842L595 842L595 0L595 0L8.866E-06 0z" /></clipPath><clipPath id="5"><path d="M8.866E-06 842L595 842L595 842L595 0L595 0L8.866E-06 0z" /></clipPath><clipPath id="6"><path d="M8.866E-06 842L595 842L595 842L595 0L595 0L8.866E-06 0z" /></clipPath><clipPath id="7"><path d="M8.866E-06 842L595 842L595 842L595 0L595 0L8.866E-06 0z" /></clipPath><clipPath id="8"><path d="M8.866E-06 842L595 842L595 842L595 0L595 0L8.866E-06 0z" /></clipPath><clipPath id="9"><path d="M8.866E-06 842L595 842L595 842L595 0L595 0L8.866E-06 0z" /></clipPath><clipPath id="10"><path d="M8.866E-06 842L595 842L595 842L595 0L595 0L8.866E-06 0z" /></clipPath><clipPath id="11"><path d="M8.866E-06 842L595 842L595 842L595 0L595 0L8.866E-06 0z" /></clipPath><clipPath id="12"><path d="M8.866E-06 842L595 842L595 842L595 0L595 0L8.866E-06 0z" /></clipPath><clipPath id="13"><path d="M8.866E-06 842L595 842L595 842L595 0L595 0L8.866E-06 0z" /></clipPath><clipPath id="14"><path d="M8.866E-06 842L595 842L595 842L595 0L595 0L8.866E-06 0z" /></clipPath><clipPath id="15"><path d="M8.866E-06 842L595 842L595 842L595 0L595 0L8.866E-06 0z" /></clipPath><clipPath id="16"><path d="M8.866E-06 842L595 842L595 842L595 0L595 0L8.866E-06 0z" /></clipPath><clipPath id="17"><path d="M8.866E-06 842L595 842L595 842L595 0L595 0L8.866E-06 0z" /></clipPath><clipPath id="18"><path d="M8.866E-06 842L595 842L595 842L595 0L595 0L8.866E-06 0z" /></clipPath><clipPath id="19"><path d="M8.866E-06 842L595 842L595 842L595 0L595 0L8.866E-06 0z" /></clipPath><clipPath id="20"><path d="M8.866E-06 842L595 842L595 842L595 0L595 0L8.866E-06 0z" /></clipPath><clipPath id="21"><path d="M8.866E-06 842L595 842L595 842L595 0L595 0L8.866E-06 0z" /></clipPath><clipPath id="22"><path d="M8.866E-06 842L595 842L595 842L595 0L595 0L8.866E-06 0z" /></clipPath><clipPath id="23"><path d="M8.866E-06 842L595 842L595 842L595 0L595 0L8.866E-06 0z" /></clipPath><clipPath id="24"><path d="M8.866E-06 842L595 842L595 842L595 0L595 0L8.866E-06 0z" /></clipPath><clipPath id="25"><path d="M8.866E-06 842L595 842L595 842L595 0L595 0L8.866E-06 0z" /></clipPath><clipPath id="26"><path d="M8.866E-06 842L595 842L595 842L595 0L595 0L8.866E-06 0z" /></clipPath><clipPath id="27"><path d="M8.866E-06 842L595 842L595 842L595 0L595 0L8.866E-06 0z" /></clipPath><clipPath id="28"><path d="M8.866E-06 842L595 842L595 842L595 0L595 0L8.866E-06 0z" /></clipPath><clipPath id="29"><path d="M8.866E-06 842L595 842L595 842L595 0L595 0L8.866E-06 0z" /></clipPath><clipPath id="30"><path d="M8.866E-06 842L595 842L595 842L595 0L595 0L8.866E-06 0z" /></clipPath><clipPath id="31"><path d="M8.866E-06 842L595 842L595 842L595 0L595 0L8.866E-06 0z" /></clipPath><clipPath id="32"><path d="M8.866E-06 842L595 842L595 842L595 0L595 0L8.866E-06 0z" /></clipPath><clipPath id="33"><path d="M8.866E-06 842L595 842L595 842L595 0L595 0L8.866E-06 0z" /></clipPath><clipPath id="34"><path d="M8.866E-06 842L595 842L595 842L595 0L595 0L8.866E-06 0z" /></clipPath><clipPath id="35"><path d="M8.866E-06 842L595 842L595 842L595 0L595 0L8.866E-06 0z" /></clipPath><clipPath id="36"><path d="M8.866E-06 842L595 842L595 842L595 0L595 0L8.866E-06 0z" /></clipPath><clipPath id="37"><path d="M8.866E-06 842L595 842L595 842L595 0L595 0L8.866E-06 0z" /></clipPath><clipPath id="38"><path d="M8.866E-06 842L595 842L595 842L595 0L595 0L8.866E-06 0z" /></clipPath><clipPath id="39"><path d="M8.866E-06 842L595 842L595 842L595 0L595 0L8.866E-06 0z" /></clipPath><clipPath id="40"><path d="M8.866E-06 842L595 842L595 842L595 0L595 0L8.866E-06 0z" /></clipPath><clipPath id="41"><path d="M8.866E-06 842L595 842L595 842L595 0L595 0L8.866E-06 0z" /></clipPath><clipPath id="42"><path d="M8.866E-06 842L595 842L595 842L595 0L595 0L8.866E-06 0z" /></clipPath><clipPath id="43"><path d="M8.866E-06 842L595 842L595 842L595 0L595 0L8.866E-06 0z" /></clipPath><clipPath id="44"><path d="M8.866E-06 842L595 842L595 842L595 0L595 0L8.866E-06 0z" /></clipPath><clipPath id="45"><path d="M8.866E-06 842L595 842L595 842L595 0L595 0L8.866E-06 0z" /></clipPath><clipPath id="46"><path d="M81.275 138.8L188.075 138.8L188.075 138.8L188.075 117.775L188.075 117.775L81.275 117.775z" /></clipPath><clipPath id="47"><path d="M81.275 138.8L188.075 138.8L188.075 138.8L188.075 117.775L188.075 117.775L81.275 117.775z" /></clipPath><clipPath id="48"><path d="M81.275 138.8L188.075 138.8L188.075 138.8L188.075 117.775L188.075 117.775L81.275 117.775z" /></clipPath><clipPath id="49"><path d="M188.83 138.8L260.355 138.8L260.355 138.8L260.355 117.775L260.355 117.775L188.83 117.775z" /></clipPath><clipPath id="50"><path d="M188.83 138.8L260.355 138.8L260.355 138.8L260.355 117.775L260.355 117.775L188.83 117.775z" /></clipPath><clipPath id="51"><path d="M188.83 138.8L260.355 138.8L260.355 138.8L260.355 117.775L260.355 117.775L188.83 117.775z" /></clipPath><clipPath id="52"><path d="M261.1 138.8L332.4 138.8L332.4 138.8L332.4 117.775L332.4 117.775L261.1 117.775z" /></clipPath><clipPath id="53"><path d="M261.1 138.8L332.4 138.8L332.4 138.8L332.4 117.775L332.4 117.775L261.1 117.775z" /></clipPath><clipPath id="54"><path d="M261.1 138.8L332.4 138.8L332.4 138.8L332.4 117.775L332.4 117.775L261.1 117.775z" /></clipPath><clipPath id="55"><path d="M333.15 138.8L405.925 138.8L405.925 138.8L405.925 117.775L405.925 117.775L333.15 117.775z" /></clipPath><clipPath id="56"><path d="M333.15 138.8L405.925 138.8L405.925 138.8L405.925 117.775L405.925 117.775L333.15 117.775z" /></clipPath><clipPath id="57"><path d="M333.15 138.8L405.925 138.8L405.925 138.8L405.925 117.775L405.925 117.775L333.15 117.775z" /></clipPath><clipPath id="58"><path d="M406.68 138.8L528.23 138.8L528.23 138.8L528.23 117.775L528.23 117.775L406.68 117.775z" /></clipPath><clipPath id="59"><path d="M406.68 138.8L528.23 138.8L528.23 138.8L528.23 117.775L528.23 117.775L406.68 117.775z" /></clipPath><clipPath id="60"><path d="M406.68 138.8L528.23 138.8L528.23 138.8L528.23 117.775L528.23 117.775L406.68 117.775z" /></clipPath><clipPath id="61"><path d="M81.275 169.8L188.075 169.8L188.075 169.8L188.075 148.55L188.075 148.55L81.275 148.55z" /></clipPath><clipPath id="62"><path d="M81.275 169.8L188.075 169.8L188.075 169.8L188.075 148.55L188.075 148.55L81.275 148.55z" /></clipPath><clipPath id="63"><path d="M81.275 169.8L188.075 169.8L188.075 169.8L188.075 148.55L188.075 148.55L81.275 148.55z" /></clipPath><clipPath id="64"><path d="M188.83 169.8L260.355 169.8L260.355 169.8L260.355 148.55L260.355 148.55L188.83 148.55z" /></clipPath><clipPath id="65"><path d="M188.83 169.8L260.355 169.8L260.355 169.8L260.355 148.55L260.355 148.55L188.83 148.55z" /></clipPath><clipPath id="66"><path d="M188.83 169.8L260.355 169.8L260.355 169.8L260.355 148.55L260.355 148.55L188.83 148.55z" /></clipPath><clipPath id="67"><path d="M188.83 169.8L260.355 169.8L260.355 169.8L260.355 148.55L260.355 148.55L188.83 148.55z" /></clipPath><clipPath id="68"><path d="M261.1 169.8L332.4 169.8L332.4 169.8L332.4 148.55L332.4 148.55L261.1 148.55z" /></clipPath><clipPath id="69"><path d="M261.1 169.8L332.4 169.8L332.4 169.8L332.4 148.55L332.4 148.55L261.1 148.55z" /></clipPath><clipPath id="70"><path d="M261.1 169.8L332.4 169.8L332.4 169.8L332.4 148.55L332.4 148.55L261.1 148.55z" /></clipPath><clipPath id="71"><path d="M261.1 169.8L332.4 169.8L332.4 169.8L332.4 148.55L332.4 148.55L261.1 148.55z" /></clipPath><clipPath id="72"><path d="M333.15 169.8L405.925 169.8L405.925 169.8L405.925 148.55L405.925 148.55L333.15 148.55z" /></clipPath><clipPath id="73"><path d="M333.15 169.8L405.925 169.8L405.925 169.8L405.925 148.55L405.925 148.55L333.15 148.55z" /></clipPath><clipPath id="74"><path d="M333.15 169.8L405.925 169.8L405.925 169.8L405.925 148.55L405.925 148.55L333.15 148.55z" /></clipPath><clipPath id="75"><path d="M406.68 169.8L528.23 169.8L528.23 169.8L528.23 148.55L528.23 148.55L406.68 148.55z" /></clipPath><clipPath id="76"><path d="M406.68 169.8L528.23 169.8L528.23 169.8L528.23 148.55L528.23 148.55L406.68 148.55z" /></clipPath><clipPath id="77"><path d="M406.68 169.8L528.23 169.8L528.23 169.8L528.23 148.55L528.23 148.55L406.68 148.55z" /></clipPath><clipPath id="78"><path d="M81.275 200.8L188.075 200.8L188.075 200.8L188.075 179.55L188.075 179.55L81.275 179.55z" /></clipPath><clipPath id="79"><path d="M81.275 200.8L188.075 200.8L188.075 200.8L188.075 179.55L188.075 179.55L81.275 179.55z" /></clipPath><clipPath id="80"><path d="M81.275 200.8L188.075 200.8L188.075 200.8L188.075 179.55L188.075 179.55L81.275 179.55z" /></clipPath><clipPath id="81"><path d="M188.83 200.8L260.355 200.8L260.355 200.8L260.355 179.55L260.355 179.55L188.83 179.55z" /></clipPath><clipPath id="82"><path d="M188.83 200.8L260.355 200.8L260.355 200.8L260.355 179.55L260.355 179.55L188.83 179.55z" /></clipPath><clipPath id="83"><path d="M188.83 200.8L260.355 200.8L260.355 200.8L260.355 179.55L260.355 179.55L188.83 179.55z" /></clipPath><clipPath id="84"><path d="M188.83 200.8L260.355 200.8L260.355 200.8L260.355 179.55L260.355 179.55L188.83 179.55z" /></clipPath><clipPath id="85"><path d="M261.1 200.8L332.4 200.8L332.4 200.8L332.4 179.55L332.4 179.55L261.1 179.55z" /></clipPath><clipPath id="86"><path d="M261.1 200.8L332.4 200.8L332.4 200.8L332.4 179.55L332.4 179.55L261.1 179.55z" /></clipPath><clipPath id="87"><path d="M261.1 200.8L332.4 200.8L332.4 200.8L332.4 179.55L332.4 179.55L261.1 179.55z" /></clipPath><clipPath id="88"><path d="M261.1 200.8L332.4 200.8L332.4 200.8L332.4 179.55L332.4 179.55L261.1 179.55z" /></clipPath><clipPath id="89"><path d="M333.15 200.8L405.925 200.8L405.925 200.8L405.925 179.55L405.925 179.55L333.15 179.55z" /></clipPath><clipPath id="90"><path d="M333.15 200.8L405.925 200.8L405.925 200.8L405.925 179.55L405.925 179.55L333.15 179.55z" /></clipPath><clipPath id="91"><path d="M333.15 200.8L405.925 200.8L405.925 200.8L405.925 179.55L405.925 179.55L333.15 179.55z" /></clipPath><clipPath id="92"><path d="M406.68 200.8L528.23 200.8L528.23 200.8L528.23 179.55L528.23 179.55L406.68 179.55z" /></clipPath><clipPath id="93"><path d="M406.68 200.8L528.23 200.8L528.23 200.8L528.23 179.55L528.23 179.55L406.68 179.55z" /></clipPath><clipPath id="94"><path d="M406.68 200.8L528.23 200.8L528.23 200.8L528.23 179.55L528.23 179.55L406.68 179.55z" /></clipPath><clipPath id="95"><path d="M406.68 200.8L528.23 200.8L528.23 200.8L528.23 179.55L528.23 179.55L406.68 179.55z" /></clipPath><clipPath id="96"><path d="M406.68 200.8L528.23 200.8L528.23 200.8L528.23 179.55L528.23 179.55L406.68 179.55z" /></clipPath><clipPath id="97"><path d="M406.68 200.8L528.23 200.8L528.23 200.8L528.23 179.55L528.23 179.55L406.68 179.55z" /></clipPath><clipPath id="98"><path d="M406.68 200.8L528.23 200.8L528.23 200.8L528.23 179.55L528.23 179.55L406.68 179.55z" /></clipPath><clipPath id="99"><path d="M406.68 200.8L528.23 200.8L528.23 200.8L528.23 179.55L528.23 179.55L406.68 179.55z" /></clipPath><clipPath id="100"><path d="M406.68 200.8L528.23 200.8L528.23 200.8L528.23 179.55L528.23 179.55L406.68 179.55z" /></clipPath><clipPath id="101"><path d="M81.275 231.58L188.075 231.58L188.075 231.58L188.075 210.555L188.075 210.555L81.275 210.555z" /></clipPath><clipPath id="102"><path d="M81.275 231.57L188.075 231.57L188.075 231.57L188.075 210.545L188.075 210.545L81.275 210.545z" /></clipPath><clipPath id="103"><path d="M81.275 231.57L188.075 231.57L188.075 231.57L188.075 210.545L188.075 210.545L81.275 210.545z" /></clipPath><clipPath id="104"><path d="M188.83 231.58L260.355 231.58L260.355 231.58L260.355 210.555L260.355 210.555L188.83 210.555z" /></clipPath><clipPath id="105"><path d="M188.83 231.57L260.355 231.57L260.355 231.57L260.355 210.545L260.355 210.545L188.83 210.545z" /></clipPath><clipPath id="106"><path d="M188.83 231.57L260.355 231.57L260.355 231.57L260.355 210.545L260.355 210.545L188.83 210.545z" /></clipPath><clipPath id="107"><path d="M188.83 231.57L260.355 231.57L260.355 231.57L260.355 210.545L260.355 210.545L188.83 210.545z" /></clipPath><clipPath id="108"><path d="M261.1 231.58L332.4 231.58L332.4 231.58L332.4 210.555L332.4 210.555L261.1 210.555z" /></clipPath><clipPath id="109"><path d="M261.1 231.57L332.4 231.57L332.4 231.57L332.4 210.545L332.4 210.545L261.1 210.545z" /></clipPath><clipPath id="110"><path d="M261.1 231.57L332.4 231.57L332.4 231.57L332.4 210.545L332.4 210.545L261.1 210.545z" /></clipPath><clipPath id="111"><path d="M261.1 231.57L332.4 231.57L332.4 231.57L332.4 210.545L332.4 210.545L261.1 210.545z" /></clipPath><clipPath id="112"><path d="M333.15 231.58L405.925 231.58L405.925 231.58L405.925 210.555L405.925 210.555L333.15 210.555z" /></clipPath><clipPath id="113"><path d="M333.15 231.57L405.925 231.57L405.925 231.57L405.925 210.545L405.925 210.545L333.15 210.545z" /></clipPath><clipPath id="114"><path d="M333.15 231.57L405.925 231.57L405.925 231.57L405.925 210.545L405.925 210.545L333.15 210.545z" /></clipPath><clipPath id="115"><path d="M406.68 231.58L528.23 231.58L528.23 231.58L528.23 210.555L528.23 210.555L406.68 210.555z" /></clipPath><clipPath id="116"><path d="M406.68 231.57L528.23 231.57L528.23 231.57L528.23 210.545L528.23 210.545L406.68 210.545z" /></clipPath><clipPath id="117"><path d="M406.68 231.57L528.23 231.57L528.23 231.57L528.23 210.545L528.23 210.545L406.68 210.545z" /></clipPath><clipPath id="118"><path d="M81.275 262.58L188.075 262.58L188.075 262.58L188.075 241.33L188.075 241.33L81.275 241.33z" /></clipPath><clipPath id="119"><path d="M81.275 262.58L188.075 262.58L188.075 262.58L188.075 241.33L188.075 241.33L81.275 241.33z" /></clipPath><clipPath id="120"><path d="M81.275 262.58L188.075 262.58L188.075 262.58L188.075 241.33L188.075 241.33L81.275 241.33z" /></clipPath><clipPath id="121"><path d="M188.83 262.58L260.355 262.58L260.355 262.58L260.355 241.33L260.355 241.33L188.83 241.33z" /></clipPath><clipPath id="122"><path d="M188.83 262.58L260.355 262.58L260.355 262.58L260.355 241.33L260.355 241.33L188.83 241.33z" /></clipPath><clipPath id="123"><path d="M188.83 262.58L260.355 262.58L260.355 262.58L260.355 241.33L260.355 241.33L188.83 241.33z" /></clipPath><clipPath id="124"><path d="M188.83 262.58L260.355 262.58L260.355 262.58L260.355 241.33L260.355 241.33L188.83 241.33z" /></clipPath><clipPath id="125"><path d="M261.1 262.58L332.4 262.58L332.4 262.58L332.4 241.33L332.4 241.33L261.1 241.33z" /></clipPath><clipPath id="126"><path d="M261.1 262.58L332.4 262.58L332.4 262.58L332.4 241.33L332.4 241.33L261.1 241.33z" /></clipPath><clipPath id="127"><path d="M261.1 262.58L332.4 262.58L332.4 262.58L332.4 241.33L332.4 241.33L261.1 241.33z" /></clipPath><clipPath id="128"><path d="M261.1 262.58L332.4 262.58L332.4 262.58L332.4 241.33L332.4 241.33L261.1 241.33z" /></clipPath><clipPath id="129"><path d="M333.15 262.58L405.925 262.58L405.925 262.58L405.925 241.33L405.925 241.33L333.15 241.33z" /></clipPath><clipPath id="130"><path d="M333.15 262.58L405.925 262.58L405.925 262.58L405.925 241.33L405.925 241.33L333.15 241.33z" /></clipPath><clipPath id="131"><path d="M333.15 262.58L405.925 262.58L405.925 262.58L405.925 241.33L405.925 241.33L333.15 241.33z" /></clipPath><clipPath id="132"><path d="M406.68 262.58L528.23 262.58L528.23 262.58L528.23 241.33L528.23 241.33L406.68 241.33z" /></clipPath><clipPath id="133"><path d="M406.68 262.58L528.23 262.58L528.23 262.58L528.23 241.33L528.23 241.33L406.68 241.33z" /></clipPath><clipPath id="134"><path d="M406.68 262.58L528.23 262.58L528.23 262.58L528.23 241.33L528.23 241.33L406.68 241.33z" /></clipPath><clipPath id="135"><path d="M8.866E-06 842L595 842L595 842L595 0L595 0L8.866E-06 0z" /></clipPath><clipPath id="136"><path d="M8.866E-06 842L595 842L595 842L595 0L595 0L8.866E-06 0z" /></clipPath><clipPath id="137"><path d="M8.866E-06 842L595 842L595 842L595 0L595 0L8.866E-06 0z" /></clipPath><clipPath id="138"><path d="M8.866E-06 842L595 842L595 842L595 0L595 0L8.866E-06 0z" /></clipPath><clipPath id="139"><path d="M8.866E-06 842L595 842L595 842L595 0L595 0L8.866E-06 0z" /></clipPath><clipPath id="140"><path d="M8.866E-06 842L595 842L595 842L595 0L595 0L8.866E-06 0z" /></clipPath><clipPath id="141"><path d="M8.866E-06 842L595 842L595 842L595 0L595 0L8.866E-06 0z" /></clipPath><clipPath id="142"><path d="M8.866E-06 842L595 842L595 842L595 0L595 0L8.866E-06 0z" /></clipPath><clipPath id="143"><path d="M8.866E-06 842L595 842L595 842L595 0L595 0L8.866E-06 0z" /></clipPath><clipPath id="144"><path d="M8.866E-06 842L595 842L595 842L595 0L595 0L8.866E-06 0z" /></clipPath><clipPath id="145"><path d="M8.866E-06 842L595 842L595 842L595 0L595 0L8.866E-06 0z" /></clipPath><clipPath id="146"><path d="M8.866E-06 842L595 842L595 842L595 0L595 0L8.866E-06 0z" /></clipPath><clipPath id="147"><path d="M8.866E-06 842L595 842L595 842L595 0L595 0L8.866E-06 0z" /></clipPath><clipPath id="148"><path d="M8.866E-06 842L595 842L595 842L595 0L595 0L8.866E-06 0z" /></clipPath><clipPath id="149"><path d="M8.866E-06 842L595 842L595 842L595 0L595 0L8.866E-06 0z" /></clipPath><clipPath id="150"><path d="M8.866E-06 842L595 842L595 842L595 0L595 0L8.866E-06 0z" /></clipPath><clipPath id="151"><path d="M8.866E-06 842L595 842L595 842L595 0L595 0L8.866E-06 0z" /></clipPath><clipPath id="152"><path d="M8.866E-06 842L595 842L595 842L595 0L595 0L8.866E-06 0z" /></clipPath><clipPath id="153"><path d="M8.866E-06 842L595 842L595 842L595 0L595 0L8.866E-06 0z" /></clipPath><clipPath id="154"><path d="M8.866E-06 842L595 842L595 842L595 0L595 0L8.866E-06 0z" /></clipPath><clipPath id="155"><path d="M8.866E-06 842L595 842L595 842L595 0L595 0L8.866E-06 0z" /></clipPath><clipPath id="156"><path d="M8.866E-06 842L595 842L595 842L595 0L595 0L8.866E-06 0z" /></clipPath><clipPath id="157"><path d="M8.866E-06 842L595 842L595 842L595 0L595 0L8.866E-06 0z" /></clipPath><clipPath id="158"><path d="M8.866E-06 842L595 842L595 842L595 0L595 0L8.866E-06 0z" /></clipPath><clipPath id="159"><path d="M8.866E-06 842L595 842L595 842L595 0L595 0L8.866E-06 0z" /></clipPath><clipPath id="160"><path d="M8.866E-06 842L595 842L595 842L595 0L595 0L8.866E-06 0z" /></clipPath><clipPath id="161"><path d="M8.866E-06 842L595 842L595 842L595 0L595 0L8.866E-06 0z" /></clipPath><clipPath id="162"><path d="M8.866E-06 842L595 842L595 842L595 0L595 0L8.866E-06 0z" /></clipPath><clipPath id="163"><path d="M8.866E-06 842L595 842L595 842L595 0L595 0L8.866E-06 0z" /></clipPath><clipPath id="164"><path d="M8.866E-06 842L595 842L595 842L595 0L595 0L8.866E-06 0z" /></clipPath><clipPath id="165"><path d="M8.866E-06 842L595 842L595 842L595 0L595 0L8.866E-06 0z" /></clipPath><clipPath id="166"><path d="M8.866E-06 842L595 842L595 842L595 0L595 0L8.866E-06 0z" /></clipPath><clipPath id="167"><path d="M8.866E-06 842L595 842L595 842L595 0L595 0L8.866E-06 0z" /></clipPath><clipPath id="168"><path d="M8.866E-06 842L595 842L595 842L595 0L595 0L8.866E-06 0z" /></clipPath><clipPath id="169"><path d="M8.866E-06 842L595 842L595 842L595 0L595 0L8.866E-06 0z" /></clipPath><clipPath id="170"><path d="M8.866E-06 842L595 842L595 842L595 0L595 0L8.866E-06 0z" /></clipPath><clipPath id="171"><path d="M8.866E-06 842L595 842L595 842L595 0L595 0L8.866E-06 0z" /></clipPath><clipPath id="172"><path d="M8.866E-06 842L595 842L595 842L595 0L595 0L8.866E-06 0z" /></clipPath><clipPath id="173"><path d="M8.866E-06 842L595 842L595 842L595 0L595 0L8.866E-06 0z" /></clipPath><clipPath id="174"><path d="M8.866E-06 842L595 842L595 842L595 0L595 0L8.866E-06 0z" /></clipPath><clipPath id="175"><path d="M8.866E-06 842L595 842L595 842L595 0L595 0L8.866E-06 0z" /></clipPath><clipPath id="176"><path d="M8.866E-06 842L595 842L595 842L595 0L595 0L8.866E-06 0z" /></clipPath><clipPath id="177"><path d="M8.866E-06 842L595 842L595 842L595 0L595 0L8.866E-06 0z" /></clipPath><clipPath id="178"><path d="M8.866E-06 842L595 842L595 842L595 0L595 0L8.866E-06 0z" /></clipPath><clipPath id="179"><path d="M8.866E-06 842L595 842L595 842L595 0L595 0L8.866E-06 0z" /></clipPath><clipPath id="180"><path d="M8.866E-06 842L595 842L595 842L595 0L595 0L8.866E-06 0z" /></clipPath><clipPath id="181"><path d="M8.866E-06 842L595 842L595 842L595 0L595 0L8.866E-06 0z" /></clipPath><clipPath id="182"><path d="M8.866E-06 842L595 842L595 842L595 0L595 0L8.866E-06 0z" /></clipPath><clipPath id="183"><path d="M8.866E-06 842L595 842L595 842L595 0L595 0L8.866E-06 0z" /></clipPath><clipPath id="184"><path d="M8.866E-06 842L595 842L595 842L595 0L595 0L8.866E-06 0z" /></clipPath><clipPath id="185"><path d="M8.866E-06 842L595 842L595 842L595 0L595 0L8.866E-06 0z" /></clipPath><clipPath id="186"><path d="M8.866E-06 842L595 842L595 842L595 0L595 0L8.866E-06 0z" /></clipPath><clipPath id="187"><path d="M8.866E-06 842L595 842L595 842L595 0L595 0L8.866E-06 0z" /></clipPath><clipPath id="188"><path d="M8.866E-06 842L595 842L595 842L595 0L595 0L8.866E-06 0z" /></clipPath><clipPath id="189"><path d="M8.866E-06 842L595 842L595 842L595 0L595 0L8.866E-06 0z" /></clipPath><clipPath id="190"><path d="M8.866E-06 842L595 842L595 842L595 0L595 0L8.866E-06 0z" /></clipPath><clipPath id="191"><path d="M8.866E-06 842L595 842L595 842L595 0L595 0L8.866E-06 0z" /></clipPath><clipPath id="192"><path d="M8.866E-06 842L595 842L595 842L595 0L595 0L8.866E-06 0z" /></clipPath><clipPath id="193"><path d="M8.866E-06 842L595 842L595 842L595 0L595 0L8.866E-06 0z" /></clipPath><clipPath id="194"><path d="M8.866E-06 842L595 842L595 842L595 0L595 0L8.866E-06 0z" /></clipPath><clipPath id="195"><path d="M8.866E-06 842L595 842L595 842L595 0L595 0L8.866E-06 0z" /></clipPath><clipPath id="196"><path d="M8.866E-06 842L595 842L595 842L595 0L595 0L8.866E-06 0z" /></clipPath><clipPath id="197"><path d="M8.866E-06 842L595 842L595 842L595 0L595 0L8.866E-06 0z" /></clipPath><clipPath id="198"><path d="M8.866E-06 842L595 842L595 842L595 0L595 0L8.866E-06 0z" /></clipPath><clipPath id="199"><path d="M8.866E-06 842L595 842L595 842L595 0L595 0L8.866E-06 0z" /></clipPath><clipPath id="200"><path d="M8.866E-06 842L595 842L595 842L595 0L595 0L8.866E-06 0z" /></clipPath><clipPath id="201"><path d="M8.866E-06 842L595 842L595 842L595 0L595 0L8.866E-06 0z" /></clipPath><clipPath id="202"><path d="M8.866E-06 842L595 842L595 842L595 0L595 0L8.866E-06 0z" /></clipPath><clipPath id="203"><path d="M8.866E-06 842L595 842L595 842L595 0L595 0L8.866E-06 0z" /></clipPath><clipPath id="204"><path d="M8.866E-06 842L595 842L595 842L595 0L595 0L8.866E-06 0z" /></clipPath><clipPath id="205"><path d="M8.866E-06 842L595 842L595 842L595 0L595 0L8.866E-06 0z" /></clipPath><clipPath id="206"><path d="M8.866E-06 842L595 842L595 842L595 0L595 0L8.866E-06 0z" /></clipPath><clipPath id="207"><path d="M8.866E-06 842L595 842L595 842L595 0L595 0L8.866E-06 0z" /></clipPath><clipPath id="208"><path d="M8.866E-06 842L595 842L595 842L595 0L595 0L8.866E-06 0z" /></clipPath><clipPath id="209"><path d="M8.866E-06 842L595 842L595 842L595 0L595 0L8.866E-06 0z" /></clipPath><clipPath id="210"><path d="M8.866E-06 842L595 842L595 842L595 0L595 0L8.866E-06 0z" /></clipPath><clipPath id="211"><path d="M8.866E-06 842L595 842L595 842L595 0L595 0L8.866E-06 0z" /></clipPath><clipPath id="212"><path d="M8.866E-06 842L595 842L595 842L595 0L595 0L8.866E-06 0z" /></clipPath><clipPath id="213"><path d="M8.866E-06 842L595 842L595 842L595 0L595 0L8.866E-06 0z" /></clipPath><clipPath id="214"><path d="M8.866E-06 842L595 842L595 842L595 0L595 0L8.866E-06 0z" /></clipPath><clipPath id="215"><path d="M8.866E-06 842L595 842L595 842L595 0L595 0L8.866E-06 0z" /></clipPath><clipPath id="216"><path d="M8.866E-06 842L595 842L595 842L595 0L595 0L8.866E-06 0z" /></clipPath><clipPath id="217"><path d="M8.866E-06 842L595 842L595 842L595 0L595 0L8.866E-06 0z" /></clipPath><clipPath id="218"><path d="M8.866E-06 842L595 842L595 842L595 0L595 0L8.866E-06 0z" /></clipPath><clipPath id="219"><path d="M8.866E-06 842L595 842L595 842L595 0L595 0L8.866E-06 0z" /></clipPath><clipPath id="220"><path d="M8.866E-06 842L595 842L595 842L595 0L595 0L8.866E-06 0z" /></clipPath><clipPath id="221"><path d="M8.866E-06 842L595 842L595 842L595 0L595 0L8.866E-06 0z" /></clipPath><clipPath id="222"><path d="M8.866E-06 842L595 842L595 842L595 0L595 0L8.866E-06 0z" /></clipPath><clipPath id="223"><path d="M8.866E-06 842L595 842L595 842L595 0L595 0L8.866E-06 0z" /></clipPath><clipPath id="224"><path d="M8.866E-06 842L595 842L595 842L595 0L595 0L8.866E-06 0z" /></clipPath><clipPath id="225"><path d="M8.866E-06 842L595 842L595 842L595 0L595 0L8.866E-06 0z" /></clipPath><clipPath id="226"><path d="M8.866E-06 842L595 842L595 842L595 0L595 0L8.866E-06 0z" /></clipPath><clipPath id="227"><path d="M8.866E-06 842L595 842L595 842L595 0L595 0L8.866E-06 0z" /></clipPath><clipPath id="228"><path d="M8.866E-06 842L595 842L595 842L595 0L595 0L8.866E-06 0z" /></clipPath><clipPath id="229"><path d="M8.866E-06 842L595 842L595 842L595 0L595 0L8.866E-06 0z" /></clipPath><clipPath id="230"><path d="M8.866E-06 842L595 842L595 842L595 0L595 0L8.866E-06 0z" /></clipPath><clipPath id="231"><path d="M8.866E-06 842L595 842L595 842L595 0L595 0L8.866E-06 0z" /></clipPath><clipPath id="232"><path d="M8.866E-06 842L595 842L595 842L595 0L595 0L8.866E-06 0z" /></clipPath><clipPath id="233"><path d="M8.866E-06 842L595 842L595 842L595 0L595 0L8.866E-06 0z" /></clipPath><clipPath id="234"><path d="M8.866E-06 842L595 842L595 842L595 0L595 0L8.866E-06 0z" /></clipPath><clipPath id="235"><path d="M8.866E-06 842L595 842L595 842L595 0L595 0L8.866E-06 0z" /></clipPath><clipPath id="236"><path d="M8.866E-06 842L595 842L595 842L595 0L595 0L8.866E-06 0z" /></clipPath><clipPath id="237"><path d="M8.866E-06 842L595 842L595 842L595 0L595 0L8.866E-06 0z" /></clipPath><clipPath id="238"><path d="M8.866E-06 842L595 842L595 842L595 0L595 0L8.866E-06 0z" /></clipPath><clipPath id="239"><path d="M8.866E-06 842L595 842L595 842L595 0L595 0L8.866E-06 0z" /></clipPath><clipPath id="240"><path d="M8.866E-06 842L595 842L595 842L595 0L595 0L8.866E-06 0z" /></clipPath><clipPath id="241"><path d="M8.866E-06 842L595 842L595 842L595 0L595 0L8.866E-06 0z" /></clipPath><clipPath id="242"><path d="M8.866E-06 842L595 842L595 842L595 0L595 0L8.866E-06 0z" /></clipPath><clipPath id="243"><path d="M8.866E-06 842L595 842L595 842L595 0L595 0L8.866E-06 0z" /></clipPath><clipPath id="244"><path d="M8.866E-06 842L595 842L595 842L595 0L595 0L8.866E-06 0z" /></clipPath><clipPath id="245"><path d="M8.866E-06 842L595 842L595 842L595 0L595 0L8.866E-06 0z" /></clipPath><clipPath id="246"><path d="M8.866E-06 842L595 842L595 842L595 0L595 0L8.866E-06 0z" /></clipPath><clipPath id="247"><path d="M8.866E-06 842L595 842L595 842L595 0L595 0L8.866E-06 0z" /></clipPath><clipPath id="248"><path d="M8.866E-06 842L595 842L595 842L595 0L595 0L8.866E-06 0z" /></clipPath><clipPath id="249"><path d="M8.866E-06 842L595 842L595 842L595 0L595 0L8.866E-06 0z" /></clipPath><clipPath id="250"><path d="M8.866E-06 842L595 842L595 842L595 0L595 0L8.866E-06 0z" /></clipPath><clipPath id="251"><path d="M8.866E-06 842L595 842L595 842L595 0L595 0L8.866E-06 0z" /></clipPath><clipPath id="252"><path d="M8.866E-06 842L595 842L595 842L595 0L595 0L8.866E-06 0z" /></clipPath><clipPath id="253"><path d="M8.866E-06 842L595 842L595 842L595 0L595 0L8.866E-06 0z" /></clipPath><clipPath id="254"><path d="M8.866E-06 842L595 842L595 842L595 0L595 0L8.866E-06 0z" /></clipPath><clipPath id="255"><path d="M8.866E-06 842L595 842L595 842L595 0L595 0L8.866E-06 0z" /></clipPath><clipPath id="256"><path d="M8.866E-06 842L595 842L595 842L595 0L595 0L8.866E-06 0z" /></clipPath><clipPath id="257"><path d="M8.866E-06 842L595 842L595 842L595 0L595 0L8.866E-06 0z" /></clipPath><clipPath id="258"><path d="M8.866E-06 842L595 842L595 842L595 0L595 0L8.866E-06 0z" /></clipPath><clipPath id="259"><path d="M8.866E-06 842L595 842L595 842L595 0L595 0L8.866E-06 0z" /></clipPath><clipPath id="260"><path d="M8.866E-06 842L595 842L595 842L595 0L595 0L8.866E-06 0z" /></clipPath><clipPath id="261"><path d="M8.866E-06 842L595 842L595 842L595 0L595 0L8.866E-06 0z" /></clipPath><clipPath id="262"><path d="M8.866E-06 842L595 842L595 842L595 0L595 0L8.866E-06 0z" /></clipPath><clipPath id="263"><path d="M8.866E-06 842L595 842L595 842L595 0L595 0L8.866E-06 0z" /></clipPath><clipPath id="264"><path d="M8.866E-06 842L595 842L595 842L595 0L595 0L8.866E-06 0z" /></clipPath><clipPath id="265"><path d="M8.866E-06 842L595 842L595 842L595 0L595 0L8.866E-06 0z" /></clipPath><clipPath id="266"><path d="M8.866E-06 842L595 842L595 842L595 0L595 0L8.866E-06 0z" /></clipPath><clipPath id="267"><path d="M8.866E-06 842L595 842L595 842L595 0L595 0L8.866E-06 0z" /></clipPath><clipPath id="268"><path d="M8.866E-06 842L595 842L595 842L595 0L595 0L8.866E-06 0z" /></clipPath><clipPath id="269"><path d="M8.866E-06 842L595 842L595 842L595 0L595 0L8.866E-06 0z" /></clipPath><clipPath id="270"><path d="M8.866E-06 842L595 842L595 842L595 0L595 0L8.866E-06 0z" /></clipPath><clipPath id="271"><path d="M8.866E-06 842L595 842L595 842L595 0L595 0L8.866E-06 0z" /></clipPath><clipPath id="272"><path d="M8.866E-06 842L595 842L595 842L595 0L595 0L8.866E-06 0z" /></clipPath><clipPath id="273"><path d="M8.866E-06 842L595 842L595 842L595 0L595 0L8.866E-06 0z" /></clipPath><clipPath id="274"><path d="M8.866E-06 842L595 842L595 842L595 0L595 0L8.866E-06 0z" /></clipPath><clipPath id="275"><path d="M8.866E-06 842L595 842L595 842L595 0L595 0L8.866E-06 0z" /></clipPath><clipPath id="276"><path d="M8.866E-06 842L595 842L595 842L595 0L595 0L8.866E-06 0z" /></clipPath><clipPath id="277"><path d="M8.866E-06 842L595 842L595 842L595 0L595 0L8.866E-06 0z" /></clipPath><clipPath id="278"><path d="M8.866E-06 842L595 842L595 842L595 0L595 0L8.866E-06 0z" /></clipPath><clipPath id="279"><path d="M8.866E-06 842L595 842L595 842L595 0L595 0L8.866E-06 0z" /></clipPath><clipPath id="280"><path d="M8.866E-06 842L595 842L595 842L595 0L595 0L8.866E-06 0z" /></clipPath><clipPath id="281"><path d="M8.866E-06 842L595 842L595 842L595 0L595 0L8.866E-06 0z" /></clipPath><clipPath id="282"><path d="M8.866E-06 842L595 842L595 842L595 0L595 0L8.866E-06 0z" /></clipPath><clipPath id="283"><path d="M8.866E-06 842L595 842L595 842L595 0L595 0L8.866E-06 0z" /></clipPath><clipPath id="284"><path d="M8.866E-06 842L595 842L595 842L595 0L595 0L8.866E-06 0z" /></clipPath><clipPath id="285"><path d="M8.866E-06 842L595 842L595 842L595 0L595 0L8.866E-06 0z" /></clipPath><clipPath id="286"><path d="M8.866E-06 842L595 842L595 842L595 0L595 0L8.866E-06 0z" /></clipPath><clipPath id="287"><path d="M8.866E-06 842L595 842L595 842L595 0L595 0L8.866E-06 0z" /></clipPath><clipPath id="288"><path d="M8.866E-06 842L595 842L595 842L595 0L595 0L8.866E-06 0z" /></clipPath><clipPath id="289"><path d="M8.866E-06 842L595 842L595 842L595 0L595 0L8.866E-06 0z" /></clipPath><clipPath id="290"><path d="M8.866E-06 842L595 842L595 842L595 0L595 0L8.866E-06 0z" /></clipPath><clipPath id="291"><path d="M8.866E-06 842L595 842L595 842L595 0L595 0L8.866E-06 0z" /></clipPath><clipPath id="292"><path d="M8.866E-06 842L595 842L595 842L595 0L595 0L8.866E-06 0z" /></clipPath><clipPath id="293"><path d="M8.866E-06 842L595 842L595 842L595 0L595 0L8.866E-06 0z" /></clipPath><clipPath id="294"><path d="M8.866E-06 842L595 842L595 842L595 0L595 0L8.866E-06 0z" /></clipPath><clipPath id="295"><path d="M8.866E-06 842L595 842L595 842L595 0L595 0L8.866E-06 0z" /></clipPath><clipPath id="296"><path d="M8.866E-06 842L595 842L595 842L595 0L595 0L8.866E-06 0z" /></clipPath><clipPath id="297"><path d="M8.866E-06 842L595 842L595 842L595 0L595 0L8.866E-06 0z" /></clipPath><clipPath id="298"><path d="M8.866E-06 842L595 842L595 842L595 0L595 0L8.866E-06 0z" /></clipPath><clipPath id="299"><path d="M8.866E-06 842L595 842L595 842L595 0L595 0L8.866E-06 0z" /></clipPath><clipPath id="300"><path d="M8.866E-06 842L595 842L595 842L595 0L595 0L8.866E-06 0z" /></clipPath><clipPath id="301"><path d="M8.866E-06 842L595 842L595 842L595 0L595 0L8.866E-06 0z" /></clipPath><clipPath id="302"><path d="M8.866E-06 842L595 842L595 842L595 0L595 0L8.866E-06 0z" /></clipPath><clipPath id="303"><path d="M8.866E-06 842L595 842L595 842L595 0L595 0L8.866E-06 0z" /></clipPath><clipPath id="304"><path d="M8.866E-06 842L595 842L595 842L595 0L595 0L8.866E-06 0z" /></clipPath><clipPath id="305"><path d="M8.866E-06 842L595 842L595 842L595 0L595 0L8.866E-06 0z" /></clipPath><clipPath id="306"><path d="M8.866E-06 842L595 842L595 842L595 0L595 0L8.866E-06 0z" /></clipPath><clipPath id="307"><path d="M8.866E-06 842L595 842L595 842L595 0L595 0L8.866E-06 0z" /></clipPath><clipPath id="308"><path d="M8.866E-06 842L595 842L595 842L595 0L595 0L8.866E-06 0z" /></clipPath><clipPath id="309"><path d="M8.866E-06 842L595 842L595 842L595 0L595 0L8.866E-06 0z" /></clipPath><clipPath id="310"><path d="M8.866E-06 842L595 842L595 842L595 0L595 0L8.866E-06 0z" /></clipPath><clipPath id="311"><path d="M8.866E-06 842L595 842L595 842L595 0L595 0L8.866E-06 0z" /></clipPath><clipPath id="312"><path d="M8.866E-06 842L595 842L595 842L595 0L595 0L8.866E-06 0z" /></clipPath><clipPath id="313"><path d="M8.866E-06 842L595 842L595 842L595 0L595 0L8.866E-06 0z" /></clipPath><clipPath id="314"><path d="M8.866E-06 842L595 842L595 842L595 0L595 0L8.866E-06 0z" /></clipPath><clipPath id="315"><path d="M8.866E-06 842L595 842L595 842L595 0L595 0L8.866E-06 0z" /></clipPath><clipPath id="316"><path d="M8.866E-06 842L595 842L595 842L595 0L595 0L8.866E-06 0z" /></clipPath><clipPath id="317"><path d="M8.866E-06 842L595 842L595 842L595 0L595 0L8.866E-06 0z" /></clipPath><clipPath id="318"><path d="M8.866E-06 842L595 842L595 842L595 0L595 0L8.866E-06 0z" /></clipPath><clipPath id="319"><path d="M8.866E-06 842L595 842L595 842L595 0L595 0L8.866E-06 0z" /></clipPath><clipPath id="320"><path d="M8.866E-06 842L595 842L595 842L595 0L595 0L8.866E-06 0z" /></clipPath><clipPath id="321"><path d="M8.866E-06 842L595 842L595 842L595 0L595 0L8.866E-06 0z" /></clipPath><clipPath id="322"><path d="M8.866E-06 842L595 842L595 842L595 0L595 0L8.866E-06 0z" /></clipPath><clipPath id="323"><path d="M8.866E-06 842L595 842L595 842L595 0L595 0L8.866E-06 0z" /></clipPath><clipPath id="324"><path d="M8.866E-06 842L595 842L595 842L595 0L595 0L8.866E-06 0z" /></clipPath><clipPath id="325"><path d="M8.866E-06 842L595 842L595 842L595 0L595 0L8.866E-06 0z" /></clipPath><clipPath id="326"><path d="M8.866E-06 842L595 842L595 842L595 0L595 0L8.866E-06 0z" /></clipPath><clipPath id="327"><path d="M8.866E-06 842L595 842L595 842L595 0L595 0L8.866E-06 0z" /></clipPath><clipPath id="328"><path d="M8.866E-06 842L595 842L595 842L595 0L595 0L8.866E-06 0z" /></clipPath><clipPath id="329"><path d="M8.866E-06 842L595 842L595 842L595 0L595 0L8.866E-06 0z" /></clipPath><clipPath id="330"><path d="M8.866E-06 842L595 842L595 842L595 0L595 0L8.866E-06 0z" /></clipPath><clipPath id="331"><path d="M8.866E-06 842L595 842L595 842L595 0L595 0L8.866E-06 0z" /></clipPath><clipPath id="332"><path d="M8.866E-06 842L595 842L595 842L595 0L595 0L8.866E-06 0z" /></clipPath><clipPath id="333"><path d="M8.866E-06 842L595 842L595 842L595 0L595 0L8.866E-06 0z" /></clipPath><clipPath id="334"><path d="M8.866E-06 842L595 842L595 842L595 0L595 0L8.866E-06 0z" /></clipPath><clipPath id="335"><path d="M8.866E-06 842L595 842L595 842L595 0L595 0L8.866E-06 0z" /></clipPath><clipPath id="336"><path d="M8.866E-06 842L595 842L595 842L595 0L595 0L8.866E-06 0z" /></clipPath><clipPath id="337"><path d="M8.866E-06 842L595 842L595 842L595 0L595 0L8.866E-06 0z" /></clipPath><clipPath id="338"><path d="M8.866E-06 842L595 842L595 842L595 0L595 0L8.866E-06 0z" /></clipPath><clipPath id="339"><path d="M8.866E-06 842L595 842L595 842L595 0L595 0L8.866E-06 0z" /></clipPath><clipPath id="340"><path d="M8.866E-06 842L595 842L595 842L595 0L595 0L8.866E-06 0z" /></clipPath><clipPath id="341"><path d="M8.866E-06 842L595 842L595 842L595 0L595 0L8.866E-06 0z" /></clipPath><clipPath id="342"><path d="M8.866E-06 842L595 842L595 842L595 0L595 0L8.866E-06 0z" /></clipPath><clipPath id="343"><path d="M8.866E-06 842L595 842L595 842L595 0L595 0L8.866E-06 0z" /></clipPath><clipPath id="344"><path d="M8.866E-06 842L595 842L595 842L595 0L595 0L8.866E-06 0z" /></clipPath><clipPath id="345"><path d="M8.866E-06 842L595 842L595 842L595 0L595 0L8.866E-06 0z" /></clipPath><clipPath id="346"><path d="M8.866E-06 842L595 842L595 842L595 0L595 0L8.866E-06 0z" /></clipPath><clipPath id="347"><path d="M8.866E-06 842L595 842L595 842L595 0L595 0L8.866E-06 0z" /></clipPath><clipPath id="348"><path d="M8.866E-06 842L595 842L595 842L595 0L595 0L8.866E-06 0z" /></clipPath><clipPath id="349"><path d="M8.866E-06 842L595 842L595 842L595 0L595 0L8.866E-06 0z" /></clipPath><clipPath id="350"><path d="M8.866E-06 842L595 842L595 842L595 0L595 0L8.866E-06 0z" /></clipPath><clipPath id="351"><path d="M8.866E-06 842L595 842L595 842L595 0L595 0L8.866E-06 0z" /></clipPath><clipPath id="352"><path d="M8.866E-06 842L595 842L595 842L595 0L595 0L8.866E-06 0z" /></clipPath><clipPath id="353"><path d="M8.866E-06 842L595 842L595 842L595 0L595 0L8.866E-06 0z" /></clipPath><clipPath id="354"><path d="M8.866E-06 842L595 842L595 842L595 0L595 0L8.866E-06 0z" /></clipPath><clipPath id="355"><path d="M8.866E-06 842L595 842L595 842L595 0L595 0L8.866E-06 0z" /></clipPath><clipPath id="356"><path d="M8.866E-06 842L595 842L595 842L595 0L595 0L8.866E-06 0z" /></clipPath><clipPath id="357"><path d="M8.866E-06 842L595 842L595 842L595 0L595 0L8.866E-06 0z" /></clipPath><clipPath id="358"><path d="M8.866E-06 842L595 842L595 842L595 0L595 0L8.866E-06 0z" /></clipPath><clipPath id="359"><path d="M8.866E-06 842L595 842L595 842L595 0L595 0L8.866E-06 0z" /></clipPath><clipPath id="360"><path d="M8.866E-06 842L595 842L595 842L595 0L595 0L8.866E-06 0z" /></clipPath><clipPath id="361"><path d="M8.866E-06 842L595 842L595 842L595 0L595 0L8.866E-06 0z" /></clipPath><clipPath id="362"><path d="M8.866E-06 842L595 842L595 842L595 0L595 0L8.866E-06 0z" /></clipPath><clipPath id="363"><path d="M8.866E-06 842L595 842L595 842L595 0L595 0L8.866E-06 0z" /></clipPath><clipPath id="364"><path d="M8.866E-06 842L595 842L595 842L595 0L595 0L8.866E-06 0z" /></clipPath><clipPath id="365"><path d="M8.866E-06 842L595 842L595 842L595 0L595 0L8.866E-06 0z" /></clipPath><clipPath id="366"><path d="M8.866E-06 842L595 842L595 842L595 0L595 0L8.866E-06 0z" /></clipPath><clipPath id="367"><path d="M8.866E-06 842L595 842L595 842L595 0L595 0L8.866E-06 0z" /></clipPath><clipPath id="368"><path d="M8.866E-06 842L595 842L595 842L595 0L595 0L8.866E-06 0z" /></clipPath><clipPath id="369"><path d="M8.866E-06 842L595 842L595 842L595 0L595 0L8.866E-06 0z" /></clipPath><clipPath id="370"><path d="M8.866E-06 842L595 842L595 842L595 0L595 0L8.866E-06 0z" /></clipPath><clipPath id="371"><path d="M8.866E-06 842L595 842L595 842L595 0L595 0L8.866E-06 0z" /></clipPath><clipPath id="372"><path d="M8.866E-06 842L595 842L595 842L595 0L595 0L8.866E-06 0z" /></clipPath><clipPath id="373"><path d="M8.866E-06 842L595 842L595 842L595 0L595 0L8.866E-06 0z" /></clipPath><clipPath id="374"><path d="M8.866E-06 842L595 842L595 842L595 0L595 0L8.866E-06 0z" /></clipPath><clipPath id="375"><path d="M8.866E-06 842L595 842L595 842L595 0L595 0L8.866E-06 0z" /></clipPath><clipPath id="376"><path d="M8.866E-06 842L595 842L595 842L595 0L595 0L8.866E-06 0z" /></clipPath><clipPath id="377"><path d="M8.866E-06 842L595 842L595 842L595 0L595 0L8.866E-06 0z" /></clipPath><clipPath id="378"><path d="M8.866E-06 842L595 842L595 842L595 0L595 0L8.866E-06 0z" /></clipPath><clipPath id="379"><path d="M8.866E-06 842L595 842L595 842L595 0L595 0L8.866E-06 0z" /></clipPath><clipPath id="380"><path d="M8.866E-06 842L595 842L595 842L595 0L595 0L8.866E-06 0z" /></clipPath><clipPath id="381"><path d="M8.866E-06 842L595 842L595 842L595 0L595 0L8.866E-06 0z" /></clipPath><clipPath id="382"><path d="M8.866E-06 842L595 842L595 842L595 0L595 0L8.866E-06 0z" /></clipPath><clipPath id="383"><path d="M8.866E-06 842L595 842L595 842L595 0L595 0L8.866E-06 0z" /></clipPath><clipPath id="384"><path d="M8.866E-06 842L595 842L595 842L595 0L595 0L8.866E-06 0z" /></clipPath><clipPath id="385"><path d="M8.866E-06 842L595 842L595 842L595 0L595 0L8.866E-06 0z" /></clipPath><clipPath id="386"><path d="M8.866E-06 842L595 842L595 842L595 0L595 0L8.866E-06 0z" /></clipPath></defs><g transform="matrix(1.333333 0 0 1.333333 0 0)"><g><g clip-path="url(#1)"><g clip-path="url(#2)"></g><g clip-path="url(#3)"></g><g clip-path="url(#4)"></g><g clip-path="url(#5)"><path transform="matrix(1 0 0 -1 0 842)" d="M41.025 811.5L568.225 811.5L568.225 811.5L568.225 812.25L568.225 812.25L41.025 812.25z" stroke="none" fill="#000000" fill-rule="evenodd" /></g><g clip-path="url(#6)"></g><g clip-path="url(#7)"></g><g clip-path="url(#8)"></g><g clip-path="url(#9)"></g><g clip-path="url(#10)"></g><g clip-path="url(#11)"></g><g clip-path="url(#12)"></g><g clip-path="url(#13)"></g><g clip-path="url(#14)"></g><g clip-path="url(#15)"></g><g clip-path="url(#16)"></g><g clip-path="url(#17)"></g><g clip-path="url(#18)"></g><g clip-path="url(#19)"></g><g clip-path="url(#20)"></g><g clip-path="url(#21)"></g><g clip-path="url(#22)"></g><g clip-path="url(#23)"></g><g clip-path="url(#24)"></g><g clip-path="url(#25)"></g><g clip-path="url(#26)"></g><g clip-path="url(#27)"></g><g clip-path="url(#28)"></g><g clip-path="url(#29)"></g><g clip-path="url(#30)"></g><g clip-path="url(#31)"></g><g clip-path="url(#32)"></g><g clip-path="url(#33)"></g><g clip-path="url(#34)"></g><g clip-path="url(#35)"></g><g clip-path="url(#36)"></g><g clip-path="url(#37)"></g><g clip-path="url(#38)"></g><g clip-path="url(#39)"></g><g clip-path="url(#40)"></g><g clip-path="url(#41)"></g><g clip-path="url(#42)"></g><g clip-path="url(#43)"></g><g clip-path="url(#44)"></g><g clip-path="url(#45)"></g><g clip-path="url(#46)"><g clip-path="url(#47)"></g><g clip-path="url(#48)"></g></g><g clip-path="url(#49)"><g clip-path="url(#50)"></g><g clip-path="url(#51)"></g></g><g clip-path="url(#52)"><g clip-path="url(#53)"></g><g clip-path="url(#54)"></g></g><g clip-path="url(#55)"><g clip-path="url(#56)"></g><g clip-path="url(#57)"></g></g><g clip-path="url(#58)"><g clip-path="url(#59)"></g><g clip-path="url(#60)"></g></g><path transform="matrix(1 0 0 -1 0 842)" d="M80.525 724.22L81.275 724.22L81.275 724.22L81.275 729.47L81.275 729.47L80.525 729.47z" stroke="none" fill="#DDDDDD" fill-rule="evenodd" /><path transform="matrix(1 0 0 -1 0 842)" d="M80.525 728.72L81.275 728.72L81.275 728.72L81.275 729.47L81.275 729.47L80.525 729.47z" stroke="none" fill="#DDDDDD" fill-rule="evenodd" /><path transform="matrix(1 0 0 -1 0 842)" d="M81.275 728.72L187.825 728.72L187.825 728.72L187.825 729.47L187.825 729.47L81.275 729.47z" stroke="none" fill="#DDDDDD" fill-rule="evenodd" /><path transform="matrix(1 0 0 -1 0 842)" d="M187.83 724.22L188.58 724.22L188.58 724.22L188.58 728.72L188.58 728.72L187.83 728.72z" stroke="none" fill="#DDDDDD" fill-rule="evenodd" /><path transform="matrix(1 0 0 -1 0 842)" d="M187.83 728.72L188.58 728.72L188.58 728.72L188.58 729.47L188.58 729.47L187.83 729.47z" stroke="none" fill="#DDDDDD" fill-rule="evenodd" /><path transform="matrix(1 0 0 -1 0 842)" d="M188.58 728.72L260.105 728.72L260.105 728.72L260.105 729.47L260.105 729.47L188.58 729.47z" stroke="none" fill="#DDDDDD" fill-rule="evenodd" /><path transform="matrix(1 0 0 -1 0 842)" d="M260.1 724.22L260.85 724.22L260.85 724.22L260.85 728.72L260.85 728.72L260.1 728.72z" stroke="none" fill="#DDDDDD" fill-rule="evenodd" /><path transform="matrix(1 0 0 -1 0 842)" d="M260.1 728.72L260.85 728.72L260.85 728.72L260.85 729.47L260.85 729.47L260.1 729.47z" stroke="none" fill="#DDDDDD" fill-rule="evenodd" /><path transform="matrix(1 0 0 -1 0 842)" d="M260.85 728.72L332.15 728.72L332.15 728.72L332.15 729.47L332.15 729.47L260.85 729.47z" stroke="none" fill="#DDDDDD" fill-rule="evenodd" /><path transform="matrix(1 0 0 -1 0 842)" d="M332.15 724.22L332.9 724.22L332.9 724.22L332.9 728.72L332.9 728.72L332.15 728.72z" stroke="none" fill="#DDDDDD" fill-rule="evenodd" /><path transform="matrix(1 0 0 -1 0 842)" d="M332.15 728.72L332.9 728.72L332.9 728.72L332.9 729.47L332.9 729.47L332.15 729.47z" stroke="none" fill="#DDDDDD" fill-rule="evenodd" /><path transform="matrix(1 0 0 -1 0 842)" d="M332.9 728.72L405.675 728.72L405.675 728.72L405.675 729.47L405.675 729.47L332.9 729.47z" stroke="none" fill="#DDDDDD" fill-rule="evenodd" /><path transform="matrix(1 0 0 -1 0 842)" d="M405.68 724.22L406.43 724.22L406.43 724.22L406.43 728.72L406.43 728.72L405.68 728.72z" stroke="none" fill="#DDDDDD" fill-rule="evenodd" /><path transform="matrix(1 0 0 -1 0 842)" d="M405.68 728.72L406.43 728.72L406.43 728.72L406.43 729.47L406.43 729.47L405.68 729.47z" stroke="none" fill="#DDDDDD" fill-rule="evenodd" /><path transform="matrix(1 0 0 -1 0 842)" d="M406.43 728.72L527.98 728.72L527.98 728.72L527.98 729.47L527.98 729.47L406.43 729.47z" stroke="none" fill="#DDDDDD" fill-rule="evenodd" /><path transform="matrix(1 0 0 -1 0 842)" d="M527.98 724.22L528.73 724.22L528.73 724.22L528.73 729.47L528.73 729.47L527.98 729.47z" stroke="none" fill="#DDDDDD" fill-rule="evenodd" /><path transform="matrix(1 0 0 -1 0 842)" d="M527.98 728.72L528.73 728.72L528.73 728.72L528.73 729.47L528.73 729.47L527.98 729.47z" stroke="none" fill="#DDDDDD" fill-rule="evenodd" /><path transform="matrix(1 0 0 -1 0 842)" d="M80.525 698.7L81.275 698.7L81.275 698.7L81.275 724.225L81.275 724.225L80.525 724.225z" stroke="none" fill="#DDDDDD" fill-rule="evenodd" /><path transform="matrix(1 0 0 -1 0 842)" d="M187.83 698.7L188.58 698.7L188.58 698.7L188.58 724.225L188.58 724.225L187.83 724.225z" stroke="none" fill="#DDDDDD" fill-rule="evenodd" /><path transform="matrix(1 0 0 -1 0 842)" d="M260.1 698.7L260.85 698.7L260.85 698.7L260.85 724.225L260.85 724.225L260.1 724.225z" stroke="none" fill="#DDDDDD" fill-rule="evenodd" /><path transform="matrix(1 0 0 -1 0 842)" d="M332.15 698.7L332.9 698.7L332.9 698.7L332.9 724.225L332.9 724.225L332.15 724.225z" stroke="none" fill="#DDDDDD" fill-rule="evenodd" /><path transform="matrix(1 0 0 -1 0 842)" d="M405.68 698.7L406.43 698.7L406.43 698.7L406.43 724.225L406.43 724.225L405.68 724.225z" stroke="none" fill="#DDDDDD" fill-rule="evenodd" /><path transform="matrix(1 0 0 -1 0 842)" d="M527.98 698.7L528.73 698.7L528.73 698.7L528.73 724.225L528.73 724.225L527.98 724.225z" stroke="none" fill="#DDDDDD" fill-rule="evenodd" /><g clip-path="url(#61)"><g clip-path="url(#62)"></g><g clip-path="url(#63)"></g></g><g clip-path="url(#64)"><g clip-path="url(#65)"></g><g clip-path="url(#66)"></g><g clip-path="url(#67)"></g></g><g clip-path="url(#68)"><g clip-path="url(#69)"></g><g clip-path="url(#70)"></g><g clip-path="url(#71)"></g></g><g clip-path="url(#72)"><g clip-path="url(#73)"></g><g clip-path="url(#74)"></g></g><g clip-path="url(#75)"><g clip-path="url(#76)"></g><g clip-path="url(#77)"></g></g><path transform="matrix(1 0 0 -1 0 842)" d="M80.525 693.45L81.275 693.45L81.275 693.45L81.275 698.7L81.275 698.7L80.525 698.7z" stroke="none" fill="#DDDDDD" fill-rule="evenodd" /><path transform="matrix(1 0 0 -1 0 842)" d="M81.275 697.95L187.825 697.95L187.825 697.95L187.825 698.7L187.825 698.7L81.275 698.7z" stroke="none" fill="#DDDDDD" fill-rule="evenodd" /><path transform="matrix(1 0 0 -1 0 842)" d="M187.83 693.45L188.58 693.45L188.58 693.45L188.58 698.7L188.58 698.7L187.83 698.7z" stroke="none" fill="#DDDDDD" fill-rule="evenodd" /><path transform="matrix(1 0 0 -1 0 842)" d="M188.58 697.95L260.105 697.95L260.105 697.95L260.105 698.7L260.105 698.7L188.58 698.7z" stroke="none" fill="#DDDDDD" fill-rule="evenodd" /><path transform="matrix(1 0 0 -1 0 842)" d="M260.1 693.45L260.85 693.45L260.85 693.45L260.85 698.7L260.85 698.7L260.1 698.7z" stroke="none" fill="#DDDDDD" fill-rule="evenodd" /><path transform="matrix(1 0 0 -1 0 842)" d="M260.85 697.95L332.15 697.95L332.15 697.95L332.15 698.7L332.15 698.7L260.85 698.7z" stroke="none" fill="#DDDDDD" fill-rule="evenodd" /><path transform="matrix(1 0 0 -1 0 842)" d="M332.15 693.45L332.9 693.45L332.9 693.45L332.9 698.7L332.9 698.7L332.15 698.7z" stroke="none" fill="#DDDDDD" fill-rule="evenodd" /><path transform="matrix(1 0 0 -1 0 842)" d="M332.9 697.95L405.675 697.95L405.675 697.95L405.675 698.7L405.675 698.7L332.9 698.7z" stroke="none" fill="#DDDDDD" fill-rule="evenodd" /><path transform="matrix(1 0 0 -1 0 842)" d="M405.68 693.45L406.43 693.45L406.43 693.45L406.43 698.7L406.43 698.7L405.68 698.7z" stroke="none" fill="#DDDDDD" fill-rule="evenodd" /><path transform="matrix(1 0 0 -1 0 842)" d="M406.43 697.95L527.98 697.95L527.98 697.95L527.98 698.7L527.98 698.7L406.43 698.7z" stroke="none" fill="#DDDDDD" fill-rule="evenodd" /><path transform="matrix(1 0 0 -1 0 842)" d="M527.98 693.45L528.73 693.45L528.73 693.45L528.73 698.7L528.73 698.7L527.98 698.7z" stroke="none" fill="#DDDDDD" fill-rule="evenodd" /><path transform="matrix(1 0 0 -1 0 842)" d="M80.525 667.7L81.275 667.7L81.275 667.7L81.275 693.45L81.275 693.45L80.525 693.45z" stroke="none" fill="#DDDDDD" fill-rule="evenodd" /><path transform="matrix(1 0 0 -1 0 842)" d="M187.83 667.7L188.58 667.7L188.58 667.7L188.58 693.45L188.58 693.45L187.83 693.45z" stroke="none" fill="#DDDDDD" fill-rule="evenodd" /><path transform="matrix(1 0 0 -1 0 842)" d="M260.1 667.7L260.85 667.7L260.85 667.7L260.85 693.45L260.85 693.45L260.1 693.45z" stroke="none" fill="#DDDDDD" fill-rule="evenodd" /><path transform="matrix(1 0 0 -1 0 842)" d="M332.15 667.7L332.9 667.7L332.9 667.7L332.9 693.45L332.9 693.45L332.15 693.45z" stroke="none" fill="#DDDDDD" fill-rule="evenodd" /><path transform="matrix(1 0 0 -1 0 842)" d="M405.68 667.7L406.43 667.7L406.43 667.7L406.43 693.45L406.43 693.45L405.68 693.45z" stroke="none" fill="#DDDDDD" fill-rule="evenodd" /><path transform="matrix(1 0 0 -1 0 842)" d="M527.98 667.7L528.73 667.7L528.73 667.7L528.73 693.45L528.73 693.45L527.98 693.45z" stroke="none" fill="#DDDDDD" fill-rule="evenodd" /><g clip-path="url(#78)"><g clip-path="url(#79)"></g><g clip-path="url(#80)"></g></g><g clip-path="url(#81)"><g clip-path="url(#82)"></g><g clip-path="url(#83)"></g><g clip-path="url(#84)"></g></g><g clip-path="url(#85)"><g clip-path="url(#86)"></g><g clip-path="url(#87)"></g><g clip-path="url(#88)"></g></g><g clip-path="url(#89)"><g clip-path="url(#90)"></g><g clip-path="url(#91)"></g></g><g clip-path="url(#92)"><g clip-path="url(#93)"></g><g clip-path="url(#94)"></g><g clip-path="url(#95)"></g><g clip-path="url(#96)"></g><g clip-path="url(#97)"></g><g clip-path="url(#98)"></g><g clip-path="url(#99)"></g><g clip-path="url(#100)"></g></g><path transform="matrix(1 0 0 -1 0 842)" d="M80.525 662.45L81.275 662.45L81.275 662.45L81.275 667.7L81.275 667.7L80.525 667.7z" stroke="none" fill="#DDDDDD" fill-rule="evenodd" /><path transform="matrix(1 0 0 -1 0 842)" d="M81.275 666.95L187.825 666.95L187.825 666.95L187.825 667.7L187.825 667.7L81.275 667.7z" stroke="none" fill="#DDDDDD" fill-rule="evenodd" /><path transform="matrix(1 0 0 -1 0 842)" d="M187.83 662.45L188.58 662.45L188.58 662.45L188.58 667.7L188.58 667.7L187.83 667.7z" stroke="none" fill="#DDDDDD" fill-rule="evenodd" /><path transform="matrix(1 0 0 -1 0 842)" d="M188.58 666.95L260.105 666.95L260.105 666.95L260.105 667.7L260.105 667.7L188.58 667.7z" stroke="none" fill="#DDDDDD" fill-rule="evenodd" /><path transform="matrix(1 0 0 -1 0 842)" d="M260.1 662.45L260.85 662.45L260.85 662.45L260.85 667.7L260.85 667.7L260.1 667.7z" stroke="none" fill="#DDDDDD" fill-rule="evenodd" /><path transform="matrix(1 0 0 -1 0 842)" d="M260.85 666.95L332.15 666.95L332.15 666.95L332.15 667.7L332.15 667.7L260.85 667.7z" stroke="none" fill="#DDDDDD" fill-rule="evenodd" /><path transform="matrix(1 0 0 -1 0 842)" d="M332.15 662.45L332.9 662.45L332.9 662.45L332.9 667.7L332.9 667.7L332.15 667.7z" stroke="none" fill="#DDDDDD" fill-rule="evenodd" /><path transform="matrix(1 0 0 -1 0 842)" d="M332.9 666.95L405.675 666.95L405.675 666.95L405.675 667.7L405.675 667.7L332.9 667.7z" stroke="none" fill="#DDDDDD" fill-rule="evenodd" /><path transform="matrix(1 0 0 -1 0 842)" d="M405.68 662.45L406.43 662.45L406.43 662.45L406.43 667.7L406.43 667.7L405.68 667.7z" stroke="none" fill="#DDDDDD" fill-rule="evenodd" /><path transform="matrix(1 0 0 -1 0 842)" d="M406.43 666.95L527.98 666.95L527.98 666.95L527.98 667.7L527.98 667.7L406.43 667.7z" stroke="none" fill="#DDDDDD" fill-rule="evenodd" /><path transform="matrix(1 0 0 -1 0 842)" d="M527.98 662.45L528.73 662.45L528.73 662.45L528.73 667.7L528.73 667.7L527.98 667.7z" stroke="none" fill="#DDDDDD" fill-rule="evenodd" /><path transform="matrix(1 0 0 -1 0 842)" d="M80.525 636.7L81.275 636.7L81.275 636.7L81.275 662.45L81.275 662.45L80.525 662.45z" stroke="none" fill="#DDDDDD" fill-rule="evenodd" /><path transform="matrix(1 0 0 -1 0 842)" d="M187.83 636.7L188.58 636.7L188.58 636.7L188.58 662.45L188.58 662.45L187.83 662.45z" stroke="none" fill="#DDDDDD" fill-rule="evenodd" /><path transform="matrix(1 0 0 -1 0 842)" d="M260.1 636.7L260.85 636.7L260.85 636.7L260.85 662.45L260.85 662.45L260.1 662.45z" stroke="none" fill="#DDDDDD" fill-rule="evenodd" /><path transform="matrix(1 0 0 -1 0 842)" d="M332.15 636.7L332.9 636.7L332.9 636.7L332.9 662.45L332.9 662.45L332.15 662.45z" stroke="none" fill="#DDDDDD" fill-rule="evenodd" /><path transform="matrix(1 0 0 -1 0 842)" d="M405.68 636.7L406.43 636.7L406.43 636.7L406.43 662.45L406.43 662.45L405.68 662.45z" stroke="none" fill="#DDDDDD" fill-rule="evenodd" /><path transform="matrix(1 0 0 -1 0 842)" d="M527.98 636.7L528.73 636.7L528.73 636.7L528.73 662.45L528.73 662.45L527.98 662.45z" stroke="none" fill="#DDDDDD" fill-rule="evenodd" /><g clip-path="url(#101)"><g clip-path="url(#102)"></g><g clip-path="url(#103)"></g></g><g clip-path="url(#104)"><g clip-path="url(#105)"></g><g clip-path="url(#106)"></g><g clip-path="url(#107)"></g></g><g clip-path="url(#108)"><g clip-path="url(#109)"></g><g clip-path="url(#110)"></g><g clip-path="url(#111)"></g></g><g clip-path="url(#112)"><g clip-path="url(#113)"></g><g clip-path="url(#114)"></g></g><g clip-path="url(#115)"><g clip-path="url(#116)"></g><g clip-path="url(#117)"></g></g><path transform="matrix(1 0 0 -1 0 842)" d="M80.525 631.45L81.275 631.45L81.275 631.45L81.275 636.7L81.275 636.7L80.525 636.7z" stroke="none" fill="#DDDDDD" fill-rule="evenodd" /><path transform="matrix(1 0 0 -1 0 842)" d="M81.275 635.95L187.825 635.95L187.825 635.95L187.825 636.7L187.825 636.7L81.275 636.7z" stroke="none" fill="#DDDDDD" fill-rule="evenodd" /><path transform="matrix(1 0 0 -1 0 842)" d="M187.83 631.45L188.58 631.45L188.58 631.45L188.58 636.7L188.58 636.7L187.83 636.7z" stroke="none" fill="#DDDDDD" fill-rule="evenodd" /><path transform="matrix(1 0 0 -1 0 842)" d="M188.58 635.95L260.105 635.95L260.105 635.95L260.105 636.7L260.105 636.7L188.58 636.7z" stroke="none" fill="#DDDDDD" fill-rule="evenodd" /><path transform="matrix(1 0 0 -1 0 842)" d="M260.1 631.45L260.85 631.45L260.85 631.45L260.85 636.7L260.85 636.7L260.1 636.7z" stroke="none" fill="#DDDDDD" fill-rule="evenodd" /><path transform="matrix(1 0 0 -1 0 842)" d="M260.85 635.95L332.15 635.95L332.15 635.95L332.15 636.7L332.15 636.7L260.85 636.7z" stroke="none" fill="#DDDDDD" fill-rule="evenodd" /><path transform="matrix(1 0 0 -1 0 842)" d="M332.15 631.45L332.9 631.45L332.9 631.45L332.9 636.7L332.9 636.7L332.15 636.7z" stroke="none" fill="#DDDDDD" fill-rule="evenodd" /><path transform="matrix(1 0 0 -1 0 842)" d="M332.9 635.95L405.675 635.95L405.675 635.95L405.675 636.7L405.675 636.7L332.9 636.7z" stroke="none" fill="#DDDDDD" fill-rule="evenodd" /><path transform="matrix(1 0 0 -1 0 842)" d="M405.68 631.45L406.43 631.45L406.43 631.45L406.43 636.7L406.43 636.7L405.68 636.7z" stroke="none" fill="#DDDDDD" fill-rule="evenodd" /><path transform="matrix(1 0 0 -1 0 842)" d="M406.43 635.95L527.98 635.95L527.98 635.95L527.98 636.7L527.98 636.7L406.43 636.7z" stroke="none" fill="#DDDDDD" fill-rule="evenodd" /><path transform="matrix(1 0 0 -1 0 842)" d="M527.98 631.45L528.73 631.45L528.73 631.45L528.73 636.7L528.73 636.7L527.98 636.7z" stroke="none" fill="#DDDDDD" fill-rule="evenodd" /><path transform="matrix(1 0 0 -1 0 842)" d="M80.525 605.93L81.275 605.93L81.275 605.93L81.275 631.455L81.275 631.455L80.525 631.455z" stroke="none" fill="#DDDDDD" fill-rule="evenodd" /><path transform="matrix(1 0 0 -1 0 842)" d="M187.83 605.93L188.58 605.93L188.58 605.93L188.58 631.455L188.58 631.455L187.83 631.455z" stroke="none" fill="#DDDDDD" fill-rule="evenodd" /><path transform="matrix(1 0 0 -1 0 842)" d="M260.1 605.93L260.85 605.93L260.85 605.93L260.85 631.455L260.85 631.455L260.1 631.455z" stroke="none" fill="#DDDDDD" fill-rule="evenodd" /><path transform="matrix(1 0 0 -1 0 842)" d="M332.15 605.93L332.9 605.93L332.9 605.93L332.9 631.455L332.9 631.455L332.15 631.455z" stroke="none" fill="#DDDDDD" fill-rule="evenodd" /><path transform="matrix(1 0 0 -1 0 842)" d="M405.68 605.93L406.43 605.93L406.43 605.93L406.43 631.455L406.43 631.455L405.68 631.455z" stroke="none" fill="#DDDDDD" fill-rule="evenodd" /><path transform="matrix(1 0 0 -1 0 842)" d="M527.98 605.93L528.73 605.93L528.73 605.93L528.73 631.455L528.73 631.455L527.98 631.455z" stroke="none" fill="#DDDDDD" fill-rule="evenodd" /><g clip-path="url(#118)"><g clip-path="url(#119)"></g><g clip-path="url(#120)"></g></g><g clip-path="url(#121)"><g clip-path="url(#122)"></g><g clip-path="url(#123)"></g><g clip-path="url(#124)"></g></g><g clip-path="url(#125)"><g clip-path="url(#126)"></g><g clip-path="url(#127)"></g><g clip-path="url(#128)"></g></g><g clip-path="url(#129)"><g clip-path="url(#130)"></g><g clip-path="url(#131)"></g></g><g clip-path="url(#132)"><g clip-path="url(#133)"></g><g clip-path="url(#134)"></g></g><path transform="matrix(1 0 0 -1 0 842)" d="M80.525 600.67L81.275 600.67L81.275 600.67L81.275 605.92L81.275 605.92L80.525 605.92z" stroke="none" fill="#DDDDDD" fill-rule="evenodd" /><path transform="matrix(1 0 0 -1 0 842)" d="M81.275 605.17L187.825 605.17L187.825 605.17L187.825 605.92L187.825 605.92L81.275 605.92z" stroke="none" fill="#DDDDDD" fill-rule="evenodd" /><path transform="matrix(1 0 0 -1 0 842)" d="M187.83 600.67L188.58 600.67L188.58 600.67L188.58 605.92L188.58 605.92L187.83 605.92z" stroke="none" fill="#DDDDDD" fill-rule="evenodd" /><path transform="matrix(1 0 0 -1 0 842)" d="M188.58 605.17L260.105 605.17L260.105 605.17L260.105 605.92L260.105 605.92L188.58 605.92z" stroke="none" fill="#DDDDDD" fill-rule="evenodd" /><path transform="matrix(1 0 0 -1 0 842)" d="M260.1 600.67L260.85 600.67L260.85 600.67L260.85 605.92L260.85 605.92L260.1 605.92z" stroke="none" fill="#DDDDDD" fill-rule="evenodd" /><path transform="matrix(1 0 0 -1 0 842)" d="M260.85 605.17L332.15 605.17L332.15 605.17L332.15 605.92L332.15 605.92L260.85 605.92z" stroke="none" fill="#DDDDDD" fill-rule="evenodd" /><path transform="matrix(1 0 0 -1 0 842)" d="M332.15 600.67L332.9 600.67L332.9 600.67L332.9 605.92L332.9 605.92L332.15 605.92z" stroke="none" fill="#DDDDDD" fill-rule="evenodd" /><path transform="matrix(1 0 0 -1 0 842)" d="M332.9 605.17L405.675 605.17L405.675 605.17L405.675 605.92L405.675 605.92L332.9 605.92z" stroke="none" fill="#DDDDDD" fill-rule="evenodd" /><path transform="matrix(1 0 0 -1 0 842)" d="M405.68 600.67L406.43 600.67L406.43 600.67L406.43 605.92L406.43 605.92L405.68 605.92z" stroke="none" fill="#DDDDDD" fill-rule="evenodd" /><path transform="matrix(1 0 0 -1 0 842)" d="M406.43 605.17L527.98 605.17L527.98 605.17L527.98 605.92L527.98 605.92L406.43 605.92z" stroke="none" fill="#DDDDDD" fill-rule="evenodd" /><path transform="matrix(1 0 0 -1 0 842)" d="M527.98 600.67L528.73 600.67L528.73 600.67L528.73 605.92L528.73 605.92L527.98 605.92z" stroke="none" fill="#DDDDDD" fill-rule="evenodd" /><path transform="matrix(1 0 0 -1 0 842)" d="M80.525 574.92L81.275 574.92L81.275 574.92L81.275 600.67L81.275 600.67L80.525 600.67z" stroke="none" fill="#DDDDDD" fill-rule="evenodd" /><path transform="matrix(1 0 0 -1 0 842)" d="M80.525 574.17L81.275 574.17L81.275 574.17L81.275 574.92L81.275 574.92L80.525 574.92z" stroke="none" fill="#DDDDDD" fill-rule="evenodd" /><path transform="matrix(1 0 0 -1 0 842)" d="M80.525 574.17L81.275 574.17L81.275 574.17L81.275 574.92L81.275 574.92L80.525 574.92z" stroke="none" fill="#DDDDDD" fill-rule="evenodd" /><path transform="matrix(1 0 0 -1 0 842)" d="M81.275 574.17L187.825 574.17L187.825 574.17L187.825 574.92L187.825 574.92L81.275 574.92z" stroke="none" fill="#DDDDDD" fill-rule="evenodd" /><path transform="matrix(1 0 0 -1 0 842)" d="M187.83 574.92L188.58 574.92L188.58 574.92L188.58 600.67L188.58 600.67L187.83 600.67z" stroke="none" fill="#DDDDDD" fill-rule="evenodd" /><path transform="matrix(1 0 0 -1 0 842)" d="M187.83 574.17L188.58 574.17L188.58 574.17L188.58 574.92L188.58 574.92L187.83 574.92z" stroke="none" fill="#DDDDDD" fill-rule="evenodd" /><path transform="matrix(1 0 0 -1 0 842)" d="M188.58 574.17L260.105 574.17L260.105 574.17L260.105 574.92L260.105 574.92L188.58 574.92z" stroke="none" fill="#DDDDDD" fill-rule="evenodd" /><path transform="matrix(1 0 0 -1 0 842)" d="M260.1 574.92L260.85 574.92L260.85 574.92L260.85 600.67L260.85 600.67L260.1 600.67z" stroke="none" fill="#DDDDDD" fill-rule="evenodd" /><path transform="matrix(1 0 0 -1 0 842)" d="M260.1 574.17L260.85 574.17L260.85 574.17L260.85 574.92L260.85 574.92L260.1 574.92z" stroke="none" fill="#DDDDDD" fill-rule="evenodd" /><path transform="matrix(1 0 0 -1 0 842)" d="M260.85 574.17L332.15 574.17L332.15 574.17L332.15 574.92L332.15 574.92L260.85 574.92z" stroke="none" fill="#DDDDDD" fill-rule="evenodd" /><path transform="matrix(1 0 0 -1 0 842)" d="M332.15 574.92L332.9 574.92L332.9 574.92L332.9 600.67L332.9 600.67L332.15 600.67z" stroke="none" fill="#DDDDDD" fill-rule="evenodd" /><path transform="matrix(1 0 0 -1 0 842)" d="M332.15 574.17L332.9 574.17L332.9 574.17L332.9 574.92L332.9 574.92L332.15 574.92z" stroke="none" fill="#DDDDDD" fill-rule="evenodd" /><path transform="matrix(1 0 0 -1 0 842)" d="M332.9 574.17L405.675 574.17L405.675 574.17L405.675 574.92L405.675 574.92L332.9 574.92z" stroke="none" fill="#DDDDDD" fill-rule="evenodd" /><path transform="matrix(1 0 0 -1 0 842)" d="M405.68 574.92L406.43 574.92L406.43 574.92L406.43 600.67L406.43 600.67L405.68 600.67z" stroke="none" fill="#DDDDDD" fill-rule="evenodd" /><path transform="matrix(1 0 0 -1 0 842)" d="M405.68 574.17L406.43 574.17L406.43 574.17L406.43 574.92L406.43 574.92L405.68 574.92z" stroke="none" fill="#DDDDDD" fill-rule="evenodd" /><path transform="matrix(1 0 0 -1 0 842)" d="M406.43 574.17L527.98 574.17L527.98 574.17L527.98 574.92L527.98 574.92L406.43 574.92z" stroke="none" fill="#DDDDDD" fill-rule="evenodd" /><path transform="matrix(1 0 0 -1 0 842)" d="M527.98 574.92L528.73 574.92L528.73 574.92L528.73 600.67L528.73 600.67L527.98 600.67z" stroke="none" fill="#DDDDDD" fill-rule="evenodd" /><path transform="matrix(1 0 0 -1 0 842)" d="M527.98 574.17L528.73 574.17L528.73 574.17L528.73 574.92L528.73 574.92L527.98 574.92z" stroke="none" fill="#DDDDDD" fill-rule="evenodd" /><path transform="matrix(1 0 0 -1 0 842)" d="M527.98 574.17L528.73 574.17L528.73 574.17L528.73 574.92L528.73 574.92L527.98 574.92z" stroke="none" fill="#DDDDDD" fill-rule="evenodd" /><g clip-path="url(#135)"></g><g clip-path="url(#136)"></g><g clip-path="url(#137)"></g><g clip-path="url(#138)"></g><g clip-path="url(#139)"></g><g clip-path="url(#140)"></g><g clip-path="url(#141)"></g><g clip-path="url(#142)"></g><g clip-path="url(#143)"></g><g clip-path="url(#144)"></g><g clip-path="url(#145)"></g><g clip-path="url(#146)"></g><g clip-path="url(#147)"></g><g clip-path="url(#148)"></g><g clip-path="url(#149)"></g><g clip-path="url(#150)"></g><g clip-path="url(#151)"></g><g clip-path="url(#152)"></g><g clip-path="url(#153)"></g><g clip-path="url(#154)"></g><g clip-path="url(#155)"></g><g clip-path="url(#156)"></g><g clip-path="url(#157)"></g><g clip-path="url(#158)"></g><g clip-path="url(#159)"></g><g clip-path="url(#160)"></g><g clip-path="url(#161)"></g><g clip-path="url(#162)"></g><g clip-path="url(#163)"></g><g clip-path="url(#164)"></g><g clip-path="url(#165)"></g><g clip-path="url(#166)"></g><g clip-path="url(#167)"></g><g clip-path="url(#168)"></g><g clip-path="url(#169)"></g><g clip-path="url(#170)"></g><g clip-path="url(#171)"></g><g clip-path="url(#172)"></g><g clip-path="url(#173)"></g><g clip-path="url(#174)"></g><g clip-path="url(#175)"></g><g clip-path="url(#176)"></g><g clip-path="url(#177)"></g><g clip-path="url(#178)"></g><g clip-path="url(#179)"></g><g clip-path="url(#180)"></g><g clip-path="url(#181)"></g><g clip-path="url(#182)"></g><g clip-path="url(#183)"></g><g clip-path="url(#184)"></g><g clip-path="url(#185)"></g><g clip-path="url(#186)"></g><g clip-path="url(#187)"></g><g clip-path="url(#188)"></g><g clip-path="url(#189)"></g><g clip-path="url(#190)"></g><g clip-path="url(#191)"></g><g clip-path="url(#192)"></g><g clip-path="url(#193)"></g><g clip-path="url(#194)"></g><g clip-path="url(#195)"></g><g clip-path="url(#196)"></g><g clip-path="url(#197)"></g><g clip-path="url(#198)"></g><g clip-path="url(#199)"></g><g clip-path="url(#200)"></g><g clip-path="url(#201)"></g><g clip-path="url(#202)"></g><g clip-path="url(#203)"></g><g clip-path="url(#204)"></g><g clip-path="url(#205)"></g><g clip-path="url(#206)"></g><g clip-path="url(#207)"></g><g clip-path="url(#208)"></g><g clip-path="url(#209)"></g><g clip-path="url(#210)"></g><g clip-path="url(#211)"></g><g clip-path="url(#212)"></g><g clip-path="url(#213)"></g><g clip-path="url(#214)"></g><g clip-path="url(#215)"></g><g clip-path="url(#216)"></g><g clip-path="url(#217)"></g><g clip-path="url(#218)"></g><g clip-path="url(#219)"></g><g clip-path="url(#220)"></g><g clip-path="url(#221)"></g><g clip-path="url(#222)"></g><g clip-path="url(#223)"></g><g clip-path="url(#224)"></g><g clip-path="url(#225)"></g><g clip-path="url(#226)"></g><g clip-path="url(#227)"></g><g clip-path="url(#228)"></g><g clip-path="url(#229)"></g><g clip-path="url(#230)"></g><g clip-path="url(#231)"></g><g clip-path="url(#232)"></g><g clip-path="url(#233)"></g><path transform="matrix(1 0 0 -1 0 842)" d="M107.05 205.3L568.23 205.3L568.23 205.3L568.23 219.325L568.23 219.325L107.05 219.325z" stroke="none" fill="#FFFFFF" fill-rule="evenodd" /><g clip-path="url(#234)"></g><g clip-path="url(#235)"></g><g clip-path="url(#236)"></g><g clip-path="url(#237)"></g><g clip-path="url(#238)"></g><g clip-path="url(#239)"></g><g clip-path="url(#240)"></g><g clip-path="url(#241)"></g><g clip-path="url(#242)"></g><g clip-path="url(#243)"></g><g clip-path="url(#244)"></g><g clip-path="url(#245)"></g><g clip-path="url(#246)"></g><path transform="matrix(1 0 0 -1 0 842)" d="M107.05 191.3L568.23 191.3L568.23 191.3L568.23 205.3L568.23 205.3L107.05 205.3z" stroke="none" fill="#FFFFFF" fill-rule="evenodd" /><g clip-path="url(#247)"></g><g clip-path="url(#248)"></g><path transform="matrix(1 0 0 -1 0 842)" d="M107.05 177.3L568.23 177.3L568.23 177.3L568.23 191.3L568.23 191.3L107.05 191.3z" stroke="none" fill="#FFFFFF" fill-rule="evenodd" /><g clip-path="url(#249)"></g><g clip-path="url(#250)"></g><g clip-path="url(#251)"></g><g clip-path="url(#252)"></g><g clip-path="url(#253)"></g><g clip-path="url(#254)"></g><g clip-path="url(#255)"></g><g clip-path="url(#256)"></g><g clip-path="url(#257)"></g><g clip-path="url(#258)"></g><path transform="matrix(1 0 0 -1 0 842)" d="M107.05 163.3L568.23 163.3L568.23 163.3L568.23 177.3L568.23 177.3L107.05 177.3z" stroke="none" fill="#FFFFFF" fill-rule="evenodd" /><g clip-path="url(#259)"></g><g clip-path="url(#260)"></g><g clip-path="url(#261)"></g><g clip-path="url(#262)"></g><g clip-path="url(#263)"></g><g clip-path="url(#264)"></g><g clip-path="url(#265)"></g><g clip-path="url(#266)"></g><g clip-path="url(#267)"></g><g clip-path="url(#268)"></g><g clip-path="url(#269)"></g><g clip-path="url(#270)"></g><g clip-path="url(#271)"></g><g clip-path="url(#272)"></g><g clip-path="url(#273)"></g><g clip-path="url(#274)"></g><g clip-path="url(#275)"></g><g clip-path="url(#276)"></g><path transform="matrix(1 0 0 -1 0 842)" d="M107.05 149.3L568.23 149.3L568.23 149.3L568.23 163.3L568.23 163.3L107.05 163.3z" stroke="none" fill="#FFFFFF" fill-rule="evenodd" /><g clip-path="url(#277)"></g><g clip-path="url(#278)"></g><path transform="matrix(1 0 0 -1 0 842)" d="M107.05 135.3L568.23 135.3L568.23 135.3L568.23 149.3L568.23 149.3L107.05 149.3z" stroke="none" fill="#FFFFFF" fill-rule="evenodd" /><g clip-path="url(#279)"></g><g clip-path="url(#280)"></g><g clip-path="url(#281)"></g><g clip-path="url(#282)"></g><g clip-path="url(#283)"></g><g clip-path="url(#284)"></g><g clip-path="url(#285)"></g><path transform="matrix(1 0 0 -1 0 842)" d="M107.05 121.3L568.23 121.3L568.23 121.3L568.23 135.3L568.23 135.3L107.05 135.3z" stroke="none" fill="#FFFFFF" fill-rule="evenodd" /><g clip-path="url(#286)"></g><g clip-path="url(#287)"></g><g clip-path="url(#288)"></g><g clip-path="url(#289)"></g><g clip-path="url(#290)"></g><g clip-path="url(#291)"></g><g clip-path="url(#292)"></g><g clip-path="url(#293)"></g><g clip-path="url(#294)"></g><g clip-path="url(#295)"></g><path transform="matrix(1 0 0 -1 0 842)" d="M107.05 107.27L568.23 107.27L568.23 107.27L568.23 121.295L568.23 121.295L107.05 121.295z" stroke="none" fill="#FFFFFF" fill-rule="evenodd" /><g clip-path="url(#296)"></g><g clip-path="url(#297)"></g><g clip-path="url(#298)"></g><g clip-path="url(#299)"></g><g clip-path="url(#300)"></g><g clip-path="url(#301)"></g><g clip-path="url(#302)"></g><g clip-path="url(#303)"></g><g clip-path="url(#304)"></g><g clip-path="url(#305)"></g><g clip-path="url(#306)"></g><g clip-path="url(#307)"></g><g clip-path="url(#308)"></g><g clip-path="url(#309)"></g><g clip-path="url(#310)"></g><g clip-path="url(#311)"></g><g clip-path="url(#312)"></g><g clip-path="url(#313)"></g><g clip-path="url(#314)"></g><g clip-path="url(#315)"></g><g clip-path="url(#316)"></g><g clip-path="url(#317)"></g><g clip-path="url(#318)"></g><g clip-path="url(#319)"></g><g clip-path="url(#320)"></g><path transform="matrix(1 0 0 -1 0 842)" d="M107.05 93.275L568.23 93.275L568.23 93.275L568.23 107.275L568.23 107.275L107.05 107.275z" stroke="none" fill="#FFFFFF" fill-rule="evenodd" /><g clip-path="url(#321)"></g><g clip-path="url(#322)"></g><g clip-path="url(#323)"></g><path transform="matrix(1 0 0 -1 0 842)" d="M107.05 79.275L568.23 79.275L568.23 79.275L568.23 93.275L568.23 93.275L107.05 93.275z" stroke="none" fill="#FFFFFF" fill-rule="evenodd" /><g clip-path="url(#324)"></g><g clip-path="url(#325)"></g><path transform="matrix(1 0 0 -1 0 842)" d="M107.05 65.275L568.23 65.275L568.23 65.275L568.23 79.275L568.23 79.275L107.05 79.275z" stroke="none" fill="#FFFFFF" fill-rule="evenodd" /><g clip-path="url(#326)"></g><g clip-path="url(#327)"></g><g clip-path="url(#328)"></g><path transform="matrix(1 0 0 -1 0 842)" d="M107.05 51.275L568.23 51.275L568.23 51.275L568.23 65.275L568.23 65.275L107.05 65.275z" stroke="none" fill="#FFFFFF" fill-rule="evenodd" /><g clip-path="url(#329)"></g><g clip-path="url(#330)"></g><g clip-path="url(#331)"></g><g clip-path="url(#332)"></g><g clip-path="url(#333)"></g><g clip-path="url(#334)"></g><g clip-path="url(#335)"></g><g clip-path="url(#336)"></g><g clip-path="url(#337)"></g><g clip-path="url(#338)"></g><g clip-path="url(#339)"></g><g clip-path="url(#340)"></g><g clip-path="url(#341)"></g><g clip-path="url(#342)"></g><path transform="matrix(1 0 0 -1 0 842)" d="M107.05 37.275L568.23 37.275L568.23 37.275L568.23 51.275L568.23 51.275L107.05 51.275z" stroke="none" fill="#FFFFFF" fill-rule="evenodd" /><g clip-path="url(#343)"></g><g clip-path="url(#344)"></g><g clip-path="url(#345)"></g><g clip-path="url(#346)"></g><g clip-path="url(#347)"></g><g clip-path="url(#348)"></g><g clip-path="url(#349)"></g><g clip-path="url(#350)"></g><g clip-path="url(#351)"></g><g clip-path="url(#352)"></g><g clip-path="url(#353)"></g><g clip-path="url(#354)"></g><g clip-path="url(#355)"></g><g clip-path="url(#356)"></g><g clip-path="url(#357)"></g><g clip-path="url(#358)"></g><g clip-path="url(#359)"></g><path transform="matrix(1 0 0 -1 0 842)" d="M107.05 23.25L568.23 23.25L568.23 23.25L568.23 37.275L568.23 37.275L107.05 37.275z" stroke="none" fill="#FFFFFF" fill-rule="evenodd" /><g clip-path="url(#360)"></g><g clip-path="url(#361)"></g><g clip-path="url(#362)"></g><g clip-path="url(#363)"></g><g clip-path="url(#364)"></g><g clip-path="url(#365)"></g><g clip-path="url(#366)"></g><g clip-path="url(#367)"></g><g clip-path="url(#368)"></g><g clip-path="url(#369)"></g><g clip-path="url(#370)"></g><g clip-path="url(#371)"></g><g clip-path="url(#372)"></g><g clip-path="url(#373)"></g><g clip-path="url(#374)"></g><g clip-path="url(#375)"></g><g clip-path="url(#376)"></g><g clip-path="url(#377)"></g><g clip-path="url(#378)"></g><g clip-path="url(#379)"></g><g clip-path="url(#380)"></g><g clip-path="url(#381)"></g><g clip-path="url(#382)"></g><g clip-path="url(#383)"></g><g clip-path="url(#384)"></g><g clip-path="url(#385)"></g><g clip-path="url(#386)"></g></g></g></g></svg>