<svg xmlns="http://www.w3.org/2000/svg" xmlns:xlink="http://www.w3.org/1999/xlink" id="body_48" preserveAspectRatio="xMinYMin meet" viewBox="0 0 793 1123"><defs><clipPath id="1"><path d="M0 842L0 0L0 0L595 0L595 0L595 842L595 842L0 842z" /></clipPath><clipPath id="2"><path d="M8.866E-06 842L595 842L595 842L595 0L595 0L8.866E-06 0z" /></clipPath><clipPath id="3"><path d="M8.866E-06 842L595 842L595 842L595 0L595 0L8.866E-06 0z" /></clipPath><clipPath id="4"><path d="M8.866E-06 842L595 842L595 842L595 0L595 0L8.866E-06 0z" /></clipPath><clipPath id="5"><path d="M8.866E-06 842L595 842L595 842L595 0L595 0L8.866E-06 0z" /></clipPath><clipPath id="6"><path d="M8.866E-06 842L595 842L595 842L595 0L595 0L8.866E-06 0z" /></clipPath><clipPath id="7"><path d="M8.866E-06 842L595 842L595 842L595 0L595 0L8.866E-06 0z" /></clipPath><clipPath id="8"><path d="M8.866E-06 842L595 842L595 842L595 0L595 0L8.866E-06 0z" /></clipPath><clipPath id="9"><path d="M8.866E-06 842L595 842L595 842L595 0L595 0L8.866E-06 0z" /></clipPath><clipPath id="10"><path d="M8.866E-06 842L595 842L595 842L595 0L595 0L8.866E-06 0z" /></clipPath><clipPath id="11"><path d="M8.866E-06 842L595 842L595 842L595 0L595 0L8.866E-06 0z" /></clipPath><clipPath id="12"><path d="M8.866E-06 842L595 842L595 842L595 0L595 0L8.866E-06 0z" /></clipPath><clipPath id="13"><path d="M8.866E-06 842L595 842L595 842L595 0L595 0L8.866E-06 0z" /></clipPath><clipPath id="14"><path d="M0 841.9997L595 841.9997L595 841.9997L595 -0.0003051758L595 -0.0003051758L0 -0.0003051758z" /></clipPath></defs><g transform="matrix(1.333333 0 0 1.333333 0 0)"><g><g clip-path="url(#1)"><g clip-path="url(#2)"></g><g clip-path="url(#3)"></g><g clip-path="url(#4)"></g><g clip-path="url(#5)"><path transform="matrix(1 0 0 -1 0 842)" d="M41.025 811.5L568.225 811.5L568.225 811.5L568.225 812.25L568.225 812.25L41.025 812.25z" stroke="none" fill="#000000" fill-rule="evenodd" /></g><g clip-path="url(#6)"></g><g clip-path="url(#7)"></g><g clip-path="url(#8)"></g><g clip-path="url(#9)"></g><g clip-path="url(#10)"></g><g clip-path="url(#11)"><path transform="matrix(1 0 0 -1 0 842)" d="M41.025 -0.25L568.225 -0.25L568.225 -0.25L568.225 18.5L568.225 18.5L41.025 18.5z" stroke="none" fill="#FFFFFF" fill-rule="evenodd" /></g><g clip-path="url(#12)"></g><g clip-path="url(#13)"></g><g clip-path="url(#14)"><g transform="matrix(0.3752434 0 0 0.3750114 9.25 6.949951)"><g transform="matrix(1 0 0 1 0 0)"><image x="0" y="0" xlink:href="img_51.png" width="1541" height="2191" /></g></g></g></g></g></g></svg>