<svg xmlns="http://www.w3.org/2000/svg" xmlns:xlink="http://www.w3.org/1999/xlink" id="body_39" preserveAspectRatio="xMinYMin meet" viewBox="0 0 793 1123"><defs><clipPath id="1"><path d="M0 842L0 0L0 0L595 0L595 0L595 842L595 842L0 842z" /></clipPath><clipPath id="2"><path d="M8.866E-06 842L595 842L595 842L595 0L595 0L8.866E-06 0z" /></clipPath><clipPath id="3"><path d="M8.866E-06 842L595 842L595 842L595 0L595 0L8.866E-06 0z" /></clipPath><clipPath id="4"><path d="M8.866E-06 842L595 842L595 842L595 0L595 0L8.866E-06 0z" /></clipPath><clipPath id="5"><path d="M8.866E-06 842L595 842L595 842L595 0L595 0L8.866E-06 0z" /></clipPath><clipPath id="6"><path d="M8.866E-06 842L595 842L595 842L595 0L595 0L8.866E-06 0z" /></clipPath><clipPath id="7"><path d="M8.866E-06 842L595 842L595 842L595 0L595 0L8.866E-06 0z" /></clipPath><clipPath id="8"><path d="M8.866E-06 842L595 842L595 842L595 0L595 0L8.866E-06 0z" /></clipPath><clipPath id="9"><path d="M8.866E-06 842L595 842L595 842L595 0L595 0L8.866E-06 0z" /></clipPath><clipPath id="10"><path d="M8.866E-06 842L595 842L595 842L595 0L595 0L8.866E-06 0z" /></clipPath><clipPath id="11"><path d="M8.866E-06 842L595 842L595 842L595 0L595 0L8.866E-06 0z" /></clipPath><clipPath id="12"><path d="M8.866E-06 842L595 842L595 842L595 0L595 0L8.866E-06 0z" /></clipPath><clipPath id="13"><path d="M8.866E-06 842L595 842L595 842L595 0L595 0L8.866E-06 0z" /></clipPath><clipPath id="14"><path d="M8.866E-06 842L595 842L595 842L595 0L595 0L8.866E-06 0z" /></clipPath><clipPath id="15"><path d="M8.866E-06 842L595 842L595 842L595 0L595 0L8.866E-06 0z" /></clipPath><clipPath id="16"><path d="M8.866E-06 842L595 842L595 842L595 0L595 0L8.866E-06 0z" /></clipPath><clipPath id="17"><path d="M8.866E-06 842L595 842L595 842L595 0L595 0L8.866E-06 0z" /></clipPath><clipPath id="18"><path d="M8.866E-06 842L595 842L595 842L595 0L595 0L8.866E-06 0z" /></clipPath><clipPath id="19"><path d="M8.866E-06 842L595 842L595 842L595 0L595 0L8.866E-06 0z" /></clipPath><clipPath id="20"><path d="M8.866E-06 842L595 842L595 842L595 0L595 0L8.866E-06 0z" /></clipPath><clipPath id="21"><path d="M8.866E-06 842L595 842L595 842L595 0L595 0L8.866E-06 0z" /></clipPath><clipPath id="22"><path d="M8.866E-06 842L595 842L595 842L595 0L595 0L8.866E-06 0z" /></clipPath><clipPath id="23"><path d="M8.866E-06 842L595 842L595 842L595 0L595 0L8.866E-06 0z" /></clipPath><clipPath id="24"><path d="M8.866E-06 842L595 842L595 842L595 0L595 0L8.866E-06 0z" /></clipPath><clipPath id="25"><path d="M8.866E-06 842L595 842L595 842L595 0L595 0L8.866E-06 0z" /></clipPath><clipPath id="26"><path d="M8.866E-06 842L595 842L595 842L595 0L595 0L8.866E-06 0z" /></clipPath><clipPath id="27"><path d="M8.866E-06 842L595 842L595 842L595 0L595 0L8.866E-06 0z" /></clipPath><clipPath id="28"><path d="M8.866E-06 842L595 842L595 842L595 0L595 0L8.866E-06 0z" /></clipPath><clipPath id="29"><path d="M8.866E-06 842L595 842L595 842L595 0L595 0L8.866E-06 0z" /></clipPath><clipPath id="30"><path d="M8.866E-06 842L595 842L595 842L595 0L595 0L8.866E-06 0z" /></clipPath><clipPath id="31"><path d="M8.866E-06 842L595 842L595 842L595 0L595 0L8.866E-06 0z" /></clipPath><clipPath id="32"><path d="M8.866E-06 842L595 842L595 842L595 0L595 0L8.866E-06 0z" /></clipPath><clipPath id="33"><path d="M8.866E-06 842L595 842L595 842L595 0L595 0L8.866E-06 0z" /></clipPath><clipPath id="34"><path d="M8.866E-06 842L595 842L595 842L595 0L595 0L8.866E-06 0z" /></clipPath><clipPath id="35"><path d="M8.866E-06 842L595 842L595 842L595 0L595 0L8.866E-06 0z" /></clipPath><clipPath id="36"><path d="M8.866E-06 842L595 842L595 842L595 0L595 0L8.866E-06 0z" /></clipPath><clipPath id="37"><path d="M8.866E-06 842L595 842L595 842L595 0L595 0L8.866E-06 0z" /></clipPath><clipPath id="38"><path d="M8.866E-06 842L595 842L595 842L595 0L595 0L8.866E-06 0z" /></clipPath><clipPath id="39"><path d="M8.866E-06 842L595 842L595 842L595 0L595 0L8.866E-06 0z" /></clipPath><clipPath id="40"><path d="M8.866E-06 842L595 842L595 842L595 0L595 0L8.866E-06 0z" /></clipPath><clipPath id="41"><path d="M8.866E-06 842L595 842L595 842L595 0L595 0L8.866E-06 0z" /></clipPath><clipPath id="42"><path d="M8.866E-06 842L595 842L595 842L595 0L595 0L8.866E-06 0z" /></clipPath><clipPath id="43"><path d="M8.866E-06 842L595 842L595 842L595 0L595 0L8.866E-06 0z" /></clipPath><clipPath id="44"><path d="M8.866E-06 842L595 842L595 842L595 0L595 0L8.866E-06 0z" /></clipPath></defs><g transform="matrix(1.333333 0 0 1.333333 0 0)"><g><g clip-path="url(#1)"><g clip-path="url(#2)"></g><g clip-path="url(#3)"></g><g clip-path="url(#4)"></g><g clip-path="url(#5)"><path transform="matrix(1 0 0 -1 0 842)" d="M41.025 811.5L568.225 811.5L568.225 811.5L568.225 812.25L568.225 812.25L41.025 812.25z" stroke="none" fill="#000000" fill-rule="evenodd" /></g><g clip-path="url(#6)"></g><g clip-path="url(#7)"></g><g clip-path="url(#8)"></g><g clip-path="url(#9)"></g><g clip-path="url(#10)"></g><g clip-path="url(#11)"></g><g clip-path="url(#12)"></g><g clip-path="url(#13)"></g><g clip-path="url(#14)"></g><g clip-path="url(#15)"></g><g clip-path="url(#16)"></g><g clip-path="url(#17)"></g><g clip-path="url(#18)"></g><g clip-path="url(#19)"></g><g clip-path="url(#20)"></g><g clip-path="url(#21)"></g><g clip-path="url(#22)"></g><g clip-path="url(#23)"></g><g clip-path="url(#24)"></g><g clip-path="url(#25)"></g><g clip-path="url(#26)"></g><g clip-path="url(#27)"></g><g clip-path="url(#28)"></g><g clip-path="url(#29)"></g><g clip-path="url(#30)"></g><g clip-path="url(#31)"></g><g clip-path="url(#32)"></g><g clip-path="url(#33)"></g><g clip-path="url(#34)"></g><g clip-path="url(#35)"></g><g clip-path="url(#36)"></g><g clip-path="url(#37)"></g><g clip-path="url(#38)"></g><g clip-path="url(#39)"></g><g clip-path="url(#40)"></g><g clip-path="url(#41)"></g><g clip-path="url(#42)"></g><g clip-path="url(#43)"></g><g clip-path="url(#44)"></g></g></g></g></svg>