<svg xmlns="http://www.w3.org/2000/svg" xmlns:xlink="http://www.w3.org/1999/xlink" id="body_31" preserveAspectRatio="xMinYMin meet" viewBox="0 0 793 1123"><defs><clipPath id="1"><path d="M0 842L0 0L0 0L595 0L595 0L595 842L595 842L0 842z" /></clipPath><clipPath id="2"><path d="M8.866E-06 842L595 842L595 842L595 0L595 0L8.866E-06 0z" /></clipPath><clipPath id="3"><path d="M8.866E-06 842L595 842L595 842L595 0L595 0L8.866E-06 0z" /></clipPath><clipPath id="4"><path d="M8.866E-06 842L595 842L595 842L595 0L595 0L8.866E-06 0z" /></clipPath><clipPath id="5"><path d="M8.866E-06 842L595 842L595 842L595 0L595 0L8.866E-06 0z" /></clipPath><clipPath id="6"><path d="M8.866E-06 842L595 842L595 842L595 0L595 0L8.866E-06 0z" /></clipPath><clipPath id="7"><path d="M8.866E-06 842L595 842L595 842L595 0L595 0L8.866E-06 0z" /></clipPath><clipPath id="8"><path d="M8.866E-06 842L595 842L595 842L595 0L595 0L8.866E-06 0z" /></clipPath><clipPath id="9"><path d="M8.866E-06 842L595 842L595 842L595 0L595 0L8.866E-06 0z" /></clipPath><clipPath id="10"><path d="M8.866E-06 842L595 842L595 842L595 0L595 0L8.866E-06 0z" /></clipPath><clipPath id="11"><path d="M8.866E-06 842L595 842L595 842L595 0L595 0L8.866E-06 0z" /></clipPath><clipPath id="12"><path d="M8.866E-06 842L595 842L595 842L595 0L595 0L8.866E-06 0z" /></clipPath><clipPath id="13"><path d="M8.866E-06 842L595 842L595 842L595 0L595 0L8.866E-06 0z" /></clipPath><clipPath id="14"><path d="M8.866E-06 842L595 842L595 842L595 0L595 0L8.866E-06 0z" /></clipPath><clipPath id="15"><path d="M8.866E-06 842L595 842L595 842L595 0L595 0L8.866E-06 0z" /></clipPath><clipPath id="16"><path d="M8.866E-06 842L595 842L595 842L595 0L595 0L8.866E-06 0z" /></clipPath><clipPath id="17"><path d="M8.866E-06 842L595 842L595 842L595 0L595 0L8.866E-06 0z" /></clipPath><clipPath id="18"><path d="M8.866E-06 842L595 842L595 842L595 0L595 0L8.866E-06 0z" /></clipPath><clipPath id="19"><path d="M8.866E-06 842L595 842L595 842L595 0L595 0L8.866E-06 0z" /></clipPath><clipPath id="20"><path d="M8.866E-06 842L595 842L595 842L595 0L595 0L8.866E-06 0z" /></clipPath><clipPath id="21"><path d="M8.866E-06 842L595 842L595 842L595 0L595 0L8.866E-06 0z" /></clipPath><clipPath id="22"><path d="M8.866E-06 842L595 842L595 842L595 0L595 0L8.866E-06 0z" /></clipPath><clipPath id="23"><path d="M8.866E-06 842L595 842L595 842L595 0L595 0L8.866E-06 0z" /></clipPath><clipPath id="24"><path d="M8.866E-06 842L595 842L595 842L595 0L595 0L8.866E-06 0z" /></clipPath><clipPath id="25"><path d="M8.866E-06 842L595 842L595 842L595 0L595 0L8.866E-06 0z" /></clipPath><clipPath id="26"><path d="M8.866E-06 842L595 842L595 842L595 0L595 0L8.866E-06 0z" /></clipPath><clipPath id="27"><path d="M8.866E-06 842L595 842L595 842L595 0L595 0L8.866E-06 0z" /></clipPath><clipPath id="28"><path d="M8.866E-06 842L595 842L595 842L595 0L595 0L8.866E-06 0z" /></clipPath><clipPath id="29"><path d="M8.866E-06 842L595 842L595 842L595 0L595 0L8.866E-06 0z" /></clipPath><clipPath id="30"><path d="M8.866E-06 842L595 842L595 842L595 0L595 0L8.866E-06 0z" /></clipPath><clipPath id="31"><path d="M8.866E-06 842L595 842L595 842L595 0L595 0L8.866E-06 0z" /></clipPath><clipPath id="32"><path d="M8.866E-06 842L595 842L595 842L595 0L595 0L8.866E-06 0z" /></clipPath><clipPath id="33"><path d="M8.866E-06 842L595 842L595 842L595 0L595 0L8.866E-06 0z" /></clipPath><clipPath id="34"><path d="M8.866E-06 842L595 842L595 842L595 0L595 0L8.866E-06 0z" /></clipPath><clipPath id="35"><path d="M8.866E-06 842L595 842L595 842L595 0L595 0L8.866E-06 0z" /></clipPath><clipPath id="36"><path d="M8.866E-06 842L595 842L595 842L595 0L595 0L8.866E-06 0z" /></clipPath><clipPath id="37"><path d="M8.866E-06 842L595 842L595 842L595 0L595 0L8.866E-06 0z" /></clipPath><clipPath id="38"><path d="M8.866E-06 842L595 842L595 842L595 0L595 0L8.866E-06 0z" /></clipPath><clipPath id="39"><path d="M8.866E-06 842L595 842L595 842L595 0L595 0L8.866E-06 0z" /></clipPath><clipPath id="40"><path d="M8.866E-06 842L595 842L595 842L595 0L595 0L8.866E-06 0z" /></clipPath><clipPath id="41"><path d="M8.866E-06 842L595 842L595 842L595 0L595 0L8.866E-06 0z" /></clipPath><clipPath id="42"><path d="M8.866E-06 842L595 842L595 842L595 0L595 0L8.866E-06 0z" /></clipPath><clipPath id="43"><path d="M8.866E-06 842L595 842L595 842L595 0L595 0L8.866E-06 0z" /></clipPath><clipPath id="44"><path d="M8.866E-06 842L595 842L595 842L595 0L595 0L8.866E-06 0z" /></clipPath><clipPath id="45"><path d="M8.866E-06 842L595 842L595 842L595 0L595 0L8.866E-06 0z" /></clipPath><clipPath id="46"><path d="M8.866E-06 842L595 842L595 842L595 0L595 0L8.866E-06 0z" /></clipPath><clipPath id="47"><path d="M8.866E-06 842L595 842L595 842L595 0L595 0L8.866E-06 0z" /></clipPath><clipPath id="48"><path d="M8.866E-06 842L595 842L595 842L595 0L595 0L8.866E-06 0z" /></clipPath><clipPath id="49"><path d="M8.866E-06 842L595 842L595 842L595 0L595 0L8.866E-06 0z" /></clipPath><clipPath id="50"><path d="M8.866E-06 842L595 842L595 842L595 0L595 0L8.866E-06 0z" /></clipPath><clipPath id="51"><path d="M8.866E-06 842L595 842L595 842L595 0L595 0L8.866E-06 0z" /></clipPath><clipPath id="52"><path d="M8.866E-06 842L595 842L595 842L595 0L595 0L8.866E-06 0z" /></clipPath><clipPath id="53"><path d="M8.866E-06 842L595 842L595 842L595 0L595 0L8.866E-06 0z" /></clipPath><clipPath id="54"><path d="M8.866E-06 842L595 842L595 842L595 0L595 0L8.866E-06 0z" /></clipPath><clipPath id="55"><path d="M8.866E-06 842L595 842L595 842L595 0L595 0L8.866E-06 0z" /></clipPath><clipPath id="56"><path d="M8.866E-06 842L595 842L595 842L595 0L595 0L8.866E-06 0z" /></clipPath><clipPath id="57"><path d="M8.866E-06 842L595 842L595 842L595 0L595 0L8.866E-06 0z" /></clipPath><clipPath id="58"><path d="M8.866E-06 842L595 842L595 842L595 0L595 0L8.866E-06 0z" /></clipPath><clipPath id="59"><path d="M8.866E-06 842L595 842L595 842L595 0L595 0L8.866E-06 0z" /></clipPath><clipPath id="60"><path d="M8.866E-06 842L595 842L595 842L595 0L595 0L8.866E-06 0z" /></clipPath><clipPath id="61"><path d="M8.866E-06 842L595 842L595 842L595 0L595 0L8.866E-06 0z" /></clipPath><clipPath id="62"><path d="M8.866E-06 842L595 842L595 842L595 0L595 0L8.866E-06 0z" /></clipPath><clipPath id="63"><path d="M8.866E-06 842L595 842L595 842L595 0L595 0L8.866E-06 0z" /></clipPath><clipPath id="64"><path d="M8.866E-06 842L595 842L595 842L595 0L595 0L8.866E-06 0z" /></clipPath><clipPath id="65"><path d="M8.866E-06 842L595 842L595 842L595 0L595 0L8.866E-06 0z" /></clipPath><clipPath id="66"><path d="M8.866E-06 842L595 842L595 842L595 0L595 0L8.866E-06 0z" /></clipPath><clipPath id="67"><path d="M8.866E-06 842L595 842L595 842L595 0L595 0L8.866E-06 0z" /></clipPath><clipPath id="68"><path d="M8.866E-06 842L595 842L595 842L595 0L595 0L8.866E-06 0z" /></clipPath><clipPath id="69"><path d="M8.866E-06 842L595 842L595 842L595 0L595 0L8.866E-06 0z" /></clipPath><clipPath id="70"><path d="M8.866E-06 842L595 842L595 842L595 0L595 0L8.866E-06 0z" /></clipPath><clipPath id="71"><path d="M8.866E-06 842L595 842L595 842L595 0L595 0L8.866E-06 0z" /></clipPath><clipPath id="72"><path d="M8.866E-06 842L595 842L595 842L595 0L595 0L8.866E-06 0z" /></clipPath><clipPath id="73"><path d="M8.866E-06 842L595 842L595 842L595 0L595 0L8.866E-06 0z" /></clipPath><clipPath id="74"><path d="M8.866E-06 842L595 842L595 842L595 0L595 0L8.866E-06 0z" /></clipPath><clipPath id="75"><path d="M8.866E-06 842L595 842L595 842L595 0L595 0L8.866E-06 0z" /></clipPath><clipPath id="76"><path d="M8.866E-06 842L595 842L595 842L595 0L595 0L8.866E-06 0z" /></clipPath><clipPath id="77"><path d="M8.866E-06 842L595 842L595 842L595 0L595 0L8.866E-06 0z" /></clipPath><clipPath id="78"><path d="M8.866E-06 842L595 842L595 842L595 0L595 0L8.866E-06 0z" /></clipPath><clipPath id="79"><path d="M8.866E-06 842L595 842L595 842L595 0L595 0L8.866E-06 0z" /></clipPath><clipPath id="80"><path d="M8.866E-06 842L595 842L595 842L595 0L595 0L8.866E-06 0z" /></clipPath><clipPath id="81"><path d="M8.866E-06 842L595 842L595 842L595 0L595 0L8.866E-06 0z" /></clipPath><clipPath id="82"><path d="M8.866E-06 842L595 842L595 842L595 0L595 0L8.866E-06 0z" /></clipPath><clipPath id="83"><path d="M8.866E-06 842L595 842L595 842L595 0L595 0L8.866E-06 0z" /></clipPath><clipPath id="84"><path d="M8.866E-06 842L595 842L595 842L595 0L595 0L8.866E-06 0z" /></clipPath><clipPath id="85"><path d="M8.866E-06 842L595 842L595 842L595 0L595 0L8.866E-06 0z" /></clipPath><clipPath id="86"><path d="M8.866E-06 842L595 842L595 842L595 0L595 0L8.866E-06 0z" /></clipPath><clipPath id="87"><path d="M8.866E-06 842L595 842L595 842L595 0L595 0L8.866E-06 0z" /></clipPath><clipPath id="88"><path d="M8.866E-06 842L595 842L595 842L595 0L595 0L8.866E-06 0z" /></clipPath><clipPath id="89"><path d="M8.866E-06 842L595 842L595 842L595 0L595 0L8.866E-06 0z" /></clipPath><clipPath id="90"><path d="M8.866E-06 842L595 842L595 842L595 0L595 0L8.866E-06 0z" /></clipPath><clipPath id="91"><path d="M8.866E-06 842L595 842L595 842L595 0L595 0L8.866E-06 0z" /></clipPath><clipPath id="92"><path d="M8.866E-06 842L595 842L595 842L595 0L595 0L8.866E-06 0z" /></clipPath><clipPath id="93"><path d="M8.866E-06 842L595 842L595 842L595 0L595 0L8.866E-06 0z" /></clipPath><clipPath id="94"><path d="M8.866E-06 842L595 842L595 842L595 0L595 0L8.866E-06 0z" /></clipPath><clipPath id="95"><path d="M8.866E-06 842L595 842L595 842L595 0L595 0L8.866E-06 0z" /></clipPath><clipPath id="96"><path d="M8.866E-06 842L595 842L595 842L595 0L595 0L8.866E-06 0z" /></clipPath><clipPath id="97"><path d="M8.866E-06 842L595 842L595 842L595 0L595 0L8.866E-06 0z" /></clipPath><clipPath id="98"><path d="M8.866E-06 842L595 842L595 842L595 0L595 0L8.866E-06 0z" /></clipPath><clipPath id="99"><path d="M8.866E-06 842L595 842L595 842L595 0L595 0L8.866E-06 0z" /></clipPath><clipPath id="100"><path d="M8.866E-06 842L595 842L595 842L595 0L595 0L8.866E-06 0z" /></clipPath><clipPath id="101"><path d="M8.866E-06 842L595 842L595 842L595 0L595 0L8.866E-06 0z" /></clipPath><clipPath id="102"><path d="M8.866E-06 842L595 842L595 842L595 0L595 0L8.866E-06 0z" /></clipPath><clipPath id="103"><path d="M8.866E-06 842L595 842L595 842L595 0L595 0L8.866E-06 0z" /></clipPath><clipPath id="104"><path d="M8.866E-06 842L595 842L595 842L595 0L595 0L8.866E-06 0z" /></clipPath><clipPath id="105"><path d="M8.866E-06 842L595 842L595 842L595 0L595 0L8.866E-06 0z" /></clipPath><clipPath id="106"><path d="M8.866E-06 842L595 842L595 842L595 0L595 0L8.866E-06 0z" /></clipPath><clipPath id="107"><path d="M8.866E-06 842L595 842L595 842L595 0L595 0L8.866E-06 0z" /></clipPath><clipPath id="108"><path d="M8.866E-06 842L595 842L595 842L595 0L595 0L8.866E-06 0z" /></clipPath><clipPath id="109"><path d="M8.866E-06 842L595 842L595 842L595 0L595 0L8.866E-06 0z" /></clipPath><clipPath id="110"><path d="M8.866E-06 842L595 842L595 842L595 0L595 0L8.866E-06 0z" /></clipPath><clipPath id="111"><path d="M8.866E-06 842L595 842L595 842L595 0L595 0L8.866E-06 0z" /></clipPath><clipPath id="112"><path d="M8.866E-06 842L595 842L595 842L595 0L595 0L8.866E-06 0z" /></clipPath><clipPath id="113"><path d="M8.866E-06 842L595 842L595 842L595 0L595 0L8.866E-06 0z" /></clipPath><clipPath id="114"><path d="M8.866E-06 842L595 842L595 842L595 0L595 0L8.866E-06 0z" /></clipPath><clipPath id="115"><path d="M8.866E-06 842L595 842L595 842L595 0L595 0L8.866E-06 0z" /></clipPath><clipPath id="116"><path d="M8.866E-06 842L595 842L595 842L595 0L595 0L8.866E-06 0z" /></clipPath><clipPath id="117"><path d="M8.866E-06 842L595 842L595 842L595 0L595 0L8.866E-06 0z" /></clipPath><clipPath id="118"><path d="M8.866E-06 842L595 842L595 842L595 0L595 0L8.866E-06 0z" /></clipPath><clipPath id="119"><path d="M8.866E-06 842L595 842L595 842L595 0L595 0L8.866E-06 0z" /></clipPath><clipPath id="120"><path d="M8.866E-06 842L595 842L595 842L595 0L595 0L8.866E-06 0z" /></clipPath><clipPath id="121"><path d="M8.866E-06 842L595 842L595 842L595 0L595 0L8.866E-06 0z" /></clipPath><clipPath id="122"><path d="M8.866E-06 842L595 842L595 842L595 0L595 0L8.866E-06 0z" /></clipPath><clipPath id="123"><path d="M8.866E-06 842L595 842L595 842L595 0L595 0L8.866E-06 0z" /></clipPath><clipPath id="124"><path d="M8.866E-06 842L595 842L595 842L595 0L595 0L8.866E-06 0z" /></clipPath><clipPath id="125"><path d="M8.866E-06 842L595 842L595 842L595 0L595 0L8.866E-06 0z" /></clipPath><clipPath id="126"><path d="M8.866E-06 842L595 842L595 842L595 0L595 0L8.866E-06 0z" /></clipPath><clipPath id="127"><path d="M8.866E-06 842L595 842L595 842L595 0L595 0L8.866E-06 0z" /></clipPath><clipPath id="128"><path d="M8.866E-06 842L595 842L595 842L595 0L595 0L8.866E-06 0z" /></clipPath><clipPath id="129"><path d="M8.866E-06 842L595 842L595 842L595 0L595 0L8.866E-06 0z" /></clipPath><clipPath id="130"><path d="M8.866E-06 842L595 842L595 842L595 0L595 0L8.866E-06 0z" /></clipPath><clipPath id="131"><path d="M8.866E-06 842L595 842L595 842L595 0L595 0L8.866E-06 0z" /></clipPath><clipPath id="132"><path d="M8.866E-06 842L595 842L595 842L595 0L595 0L8.866E-06 0z" /></clipPath><clipPath id="133"><path d="M8.866E-06 842L595 842L595 842L595 0L595 0L8.866E-06 0z" /></clipPath><clipPath id="134"><path d="M8.866E-06 842L595 842L595 842L595 0L595 0L8.866E-06 0z" /></clipPath><clipPath id="135"><path d="M8.866E-06 842L595 842L595 842L595 0L595 0L8.866E-06 0z" /></clipPath><clipPath id="136"><path d="M8.866E-06 842L595 842L595 842L595 0L595 0L8.866E-06 0z" /></clipPath><clipPath id="137"><path d="M8.866E-06 842L595 842L595 842L595 0L595 0L8.866E-06 0z" /></clipPath><clipPath id="138"><path d="M8.866E-06 842L595 842L595 842L595 0L595 0L8.866E-06 0z" /></clipPath><clipPath id="139"><path d="M8.866E-06 842L595 842L595 842L595 0L595 0L8.866E-06 0z" /></clipPath><clipPath id="140"><path d="M8.866E-06 842L595 842L595 842L595 0L595 0L8.866E-06 0z" /></clipPath><clipPath id="141"><path d="M8.866E-06 842L595 842L595 842L595 0L595 0L8.866E-06 0z" /></clipPath><clipPath id="142"><path d="M8.866E-06 842L595 842L595 842L595 0L595 0L8.866E-06 0z" /></clipPath><clipPath id="143"><path d="M8.866E-06 842L595 842L595 842L595 0L595 0L8.866E-06 0z" /></clipPath><clipPath id="144"><path d="M8.866E-06 842L595 842L595 842L595 0L595 0L8.866E-06 0z" /></clipPath><clipPath id="145"><path d="M8.866E-06 842L595 842L595 842L595 0L595 0L8.866E-06 0z" /></clipPath><clipPath id="146"><path d="M8.866E-06 842L595 842L595 842L595 0L595 0L8.866E-06 0z" /></clipPath><clipPath id="147"><path d="M8.866E-06 842L595 842L595 842L595 0L595 0L8.866E-06 0z" /></clipPath><clipPath id="148"><path d="M8.866E-06 842L595 842L595 842L595 0L595 0L8.866E-06 0z" /></clipPath><clipPath id="149"><path d="M8.866E-06 842L595 842L595 842L595 0L595 0L8.866E-06 0z" /></clipPath><clipPath id="150"><path d="M8.866E-06 842L595 842L595 842L595 0L595 0L8.866E-06 0z" /></clipPath><clipPath id="151"><path d="M8.866E-06 842L595 842L595 842L595 0L595 0L8.866E-06 0z" /></clipPath><clipPath id="152"><path d="M8.866E-06 842L595 842L595 842L595 0L595 0L8.866E-06 0z" /></clipPath><clipPath id="153"><path d="M8.866E-06 842L595 842L595 842L595 0L595 0L8.866E-06 0z" /></clipPath><clipPath id="154"><path d="M8.866E-06 842L595 842L595 842L595 0L595 0L8.866E-06 0z" /></clipPath><clipPath id="155"><path d="M8.866E-06 842L595 842L595 842L595 0L595 0L8.866E-06 0z" /></clipPath><clipPath id="156"><path d="M8.866E-06 842L595 842L595 842L595 0L595 0L8.866E-06 0z" /></clipPath><clipPath id="157"><path d="M8.866E-06 842L595 842L595 842L595 0L595 0L8.866E-06 0z" /></clipPath><clipPath id="158"><path d="M8.866E-06 842L595 842L595 842L595 0L595 0L8.866E-06 0z" /></clipPath><clipPath id="159"><path d="M8.866E-06 842L595 842L595 842L595 0L595 0L8.866E-06 0z" /></clipPath><clipPath id="160"><path d="M8.866E-06 842L595 842L595 842L595 0L595 0L8.866E-06 0z" /></clipPath><clipPath id="161"><path d="M8.866E-06 842L595 842L595 842L595 0L595 0L8.866E-06 0z" /></clipPath><clipPath id="162"><path d="M8.866E-06 842L595 842L595 842L595 0L595 0L8.866E-06 0z" /></clipPath><clipPath id="163"><path d="M8.866E-06 842L595 842L595 842L595 0L595 0L8.866E-06 0z" /></clipPath><clipPath id="164"><path d="M8.866E-06 842L595 842L595 842L595 0L595 0L8.866E-06 0z" /></clipPath><clipPath id="165"><path d="M8.866E-06 842L595 842L595 842L595 0L595 0L8.866E-06 0z" /></clipPath><clipPath id="166"><path d="M8.866E-06 842L595 842L595 842L595 0L595 0L8.866E-06 0z" /></clipPath><clipPath id="167"><path d="M8.866E-06 842L595 842L595 842L595 0L595 0L8.866E-06 0z" /></clipPath><clipPath id="168"><path d="M8.866E-06 842L595 842L595 842L595 0L595 0L8.866E-06 0z" /></clipPath><clipPath id="169"><path d="M8.866E-06 842L595 842L595 842L595 0L595 0L8.866E-06 0z" /></clipPath><clipPath id="170"><path d="M8.866E-06 842L595 842L595 842L595 0L595 0L8.866E-06 0z" /></clipPath><clipPath id="171"><path d="M8.866E-06 842L595 842L595 842L595 0L595 0L8.866E-06 0z" /></clipPath><clipPath id="172"><path d="M8.866E-06 842L595 842L595 842L595 0L595 0L8.866E-06 0z" /></clipPath><clipPath id="173"><path d="M8.866E-06 842L595 842L595 842L595 0L595 0L8.866E-06 0z" /></clipPath><clipPath id="174"><path d="M8.866E-06 842L595 842L595 842L595 0L595 0L8.866E-06 0z" /></clipPath><clipPath id="175"><path d="M8.866E-06 842L595 842L595 842L595 0L595 0L8.866E-06 0z" /></clipPath><clipPath id="176"><path d="M8.866E-06 842L595 842L595 842L595 0L595 0L8.866E-06 0z" /></clipPath><clipPath id="177"><path d="M8.866E-06 842L595 842L595 842L595 0L595 0L8.866E-06 0z" /></clipPath><clipPath id="178"><path d="M8.866E-06 842L595 842L595 842L595 0L595 0L8.866E-06 0z" /></clipPath><clipPath id="179"><path d="M8.866E-06 842L595 842L595 842L595 0L595 0L8.866E-06 0z" /></clipPath><clipPath id="180"><path d="M8.866E-06 842L595 842L595 842L595 0L595 0L8.866E-06 0z" /></clipPath></defs><g transform="matrix(1.333333 0 0 1.333333 0 0)"><g><g clip-path="url(#1)"><g clip-path="url(#2)"></g><g clip-path="url(#3)"></g><g clip-path="url(#4)"></g><g clip-path="url(#5)"><path transform="matrix(1 0 0 -1 0 842)" d="M41.025 811.5L568.225 811.5L568.225 811.5L568.225 812.25L568.225 812.25L41.025 812.25z" stroke="none" fill="#000000" fill-rule="evenodd" /></g><g clip-path="url(#6)"></g><g clip-path="url(#7)"></g><g clip-path="url(#8)"></g><g clip-path="url(#9)"></g><g clip-path="url(#10)"></g><g clip-path="url(#11)"></g><g clip-path="url(#12)"></g><path transform="matrix(1 0 0 -1 0 842)" d="M59.025 744.47L568.225 744.47L568.225 744.47L568.225 765.47L568.225 765.47L59.025 765.47z" stroke="none" fill="#FFFFFF" fill-rule="evenodd" /><g clip-path="url(#13)"></g><g clip-path="url(#14)"></g><g clip-path="url(#15)"></g><g clip-path="url(#16)"></g><g clip-path="url(#17)"></g><g clip-path="url(#18)"></g><g clip-path="url(#19)"></g><g clip-path="url(#20)"></g><path transform="matrix(1 0 0 -1 0 842)" d="M59.025 723.47L568.225 723.47L568.225 723.47L568.225 742.97L568.225 742.97L59.025 742.97z" stroke="none" fill="#FFFFFF" fill-rule="evenodd" /><g clip-path="url(#21)"></g><g clip-path="url(#22)"></g><g clip-path="url(#23)"></g><g clip-path="url(#24)"></g><path transform="matrix(1 0 0 -1 0 842)" d="M59.025 702.2L568.225 702.2L568.225 702.2L568.225 721.975L568.225 721.975L59.025 721.975z" stroke="none" fill="#FFFFFF" fill-rule="evenodd" /><g clip-path="url(#25)"></g><g clip-path="url(#26)"></g><g clip-path="url(#27)"></g><path transform="matrix(1 0 0 -1 0 842)" d="M95.05 673.45L568.23 673.45L568.23 673.45L568.23 693.2L568.23 693.2L95.05 693.2z" stroke="none" fill="#FFFFFF" fill-rule="evenodd" /><g clip-path="url(#28)"></g><g clip-path="url(#29)"></g><g clip-path="url(#30)"></g><g clip-path="url(#31)"></g><g clip-path="url(#32)"></g><g clip-path="url(#33)"></g><g clip-path="url(#34)"></g><g clip-path="url(#35)"></g><path transform="matrix(1 0 0 -1 0 842)" d="M95.05 648.7L568.23 648.7L568.23 648.7L568.23 673.45L568.23 673.45L95.05 673.45z" stroke="none" fill="#FFFFFF" fill-rule="evenodd" /><g clip-path="url(#36)"></g><g clip-path="url(#37)"></g><g clip-path="url(#38)"></g><g clip-path="url(#39)"></g><g clip-path="url(#40)"></g><g clip-path="url(#41)"></g><g clip-path="url(#42)"></g><g clip-path="url(#43)"></g><path transform="matrix(1 0 0 -1 0 842)" d="M94.8 623.68L568.23 623.68L568.23 623.68L568.23 643.455L568.23 643.455L94.8 643.455z" stroke="none" fill="#FFFFFF" fill-rule="evenodd" /><g clip-path="url(#44)"></g><g clip-path="url(#45)"></g><g clip-path="url(#46)"></g><g clip-path="url(#47)"></g><g clip-path="url(#48)"></g><g clip-path="url(#49)"></g><g clip-path="url(#50)"></g><g clip-path="url(#51)"></g><path transform="matrix(1 0 0 -1 0 842)" d="M59.025 591.92L568.225 591.92L568.225 591.92L568.225 612.92L568.225 612.92L59.025 612.92z" stroke="none" fill="#FFFFFF" fill-rule="evenodd" /><g clip-path="url(#52)"></g><g clip-path="url(#53)"></g><g clip-path="url(#54)"></g><g clip-path="url(#55)"></g><g clip-path="url(#56)"></g><g clip-path="url(#57)"></g><g clip-path="url(#58)"></g><g clip-path="url(#59)"></g><g clip-path="url(#60)"></g><g clip-path="url(#61)"></g><path transform="matrix(1 0 0 -1 0 842)" d="M59.025 570.92L568.225 570.92L568.225 570.92L568.225 591.67L568.225 591.67L59.025 591.67z" stroke="none" fill="#FFFFFF" fill-rule="evenodd" /><g clip-path="url(#62)"></g><path transform="matrix(1 0 0 -1 0 842)" d="M59.025 542.15L568.225 542.15L568.225 542.15L568.225 570.675L568.225 570.675L59.025 570.675z" stroke="none" fill="#FFFFFF" fill-rule="evenodd" /><g clip-path="url(#63)"></g><g clip-path="url(#64)"></g><g clip-path="url(#65)"></g><g clip-path="url(#66)"></g><g clip-path="url(#67)"></g><g clip-path="url(#68)"></g><path transform="matrix(1 0 0 -1 0 842)" d="M59.025 521.15L568.225 521.15L568.225 521.15L568.225 542.15L568.225 542.15L59.025 542.15z" stroke="none" fill="#FFFFFF" fill-rule="evenodd" /><g clip-path="url(#69)"></g><g clip-path="url(#70)"></g><g clip-path="url(#71)"></g><g clip-path="url(#72)"></g><g clip-path="url(#73)"></g><path transform="matrix(1 0 0 -1 0 842)" d="M59.025 499.9L568.225 499.9L568.225 499.9L568.225 521.15L568.225 521.15L59.025 521.15z" stroke="none" fill="#FFFFFF" fill-rule="evenodd" /><g clip-path="url(#74)"></g><g clip-path="url(#75)"></g><path transform="matrix(1 0 0 -1 0 842)" d="M59.025 471.15L568.225 471.15L568.225 471.15L568.225 499.9L568.225 499.9L59.025 499.9z" stroke="none" fill="#FFFFFF" fill-rule="evenodd" /><g clip-path="url(#76)"></g><g clip-path="url(#77)"></g><g clip-path="url(#78)"></g><g clip-path="url(#79)"></g><g clip-path="url(#80)"></g><g clip-path="url(#81)"></g><g clip-path="url(#82)"></g><g clip-path="url(#83)"></g><g clip-path="url(#84)"></g><g clip-path="url(#85)"></g><g clip-path="url(#86)"></g><g clip-path="url(#87)"></g><g clip-path="url(#88)"></g><path transform="matrix(1 0 0 -1 0 842)" d="M59.025 450.13L568.225 450.13L568.225 450.13L568.225 471.155L568.225 471.155L59.025 471.155z" stroke="none" fill="#FFFFFF" fill-rule="evenodd" /><g clip-path="url(#89)"></g><g clip-path="url(#90)"></g><g clip-path="url(#91)"></g><g clip-path="url(#92)"></g><g clip-path="url(#93)"></g><g clip-path="url(#94)"></g><path transform="matrix(1 0 0 -1 0 842)" d="M59.025 428.88L568.225 428.88L568.225 428.88L568.225 450.13L568.225 450.13L59.025 450.13z" stroke="none" fill="#FFFFFF" fill-rule="evenodd" /><g clip-path="url(#95)"></g><g clip-path="url(#96)"></g><g clip-path="url(#97)"></g><g clip-path="url(#98)"></g><path transform="matrix(1 0 0 -1 0 842)" d="M59.025 407.88L568.225 407.88L568.225 407.88L568.225 428.88L568.225 428.88L59.025 428.88z" stroke="none" fill="#FFFFFF" fill-rule="evenodd" /><g clip-path="url(#99)"></g><g clip-path="url(#100)"></g><g clip-path="url(#101)"></g><g clip-path="url(#102)"></g><path transform="matrix(1 0 0 -1 0 842)" d="M59.025 386.63L568.225 386.63L568.225 386.63L568.225 407.88L568.225 407.88L59.025 407.88z" stroke="none" fill="#FFFFFF" fill-rule="evenodd" /><g clip-path="url(#103)"></g><g clip-path="url(#104)"></g><g clip-path="url(#105)"></g><g clip-path="url(#106)"></g><g clip-path="url(#107)"></g><g clip-path="url(#108)"></g><g clip-path="url(#109)"></g><path transform="matrix(1 0 0 -1 0 842)" d="M59.025 357.85L568.225 357.85L568.225 357.85L568.225 386.625L568.225 386.625L59.025 386.625z" stroke="none" fill="#FFFFFF" fill-rule="evenodd" /><g clip-path="url(#110)"></g><g clip-path="url(#111)"></g><g clip-path="url(#112)"></g><g clip-path="url(#113)"></g><path transform="matrix(1 0 0 -1 0 842)" d="M59.025 336.85L568.225 336.85L568.225 336.85L568.225 357.85L568.225 357.85L59.025 357.85z" stroke="none" fill="#FFFFFF" fill-rule="evenodd" /><g clip-path="url(#114)"></g><g clip-path="url(#115)"></g><g clip-path="url(#116)"></g><g clip-path="url(#117)"></g><g clip-path="url(#118)"></g><path transform="matrix(1 0 0 -1 0 842)" d="M59.025 315.6L568.225 315.6L568.225 315.6L568.225 336.85L568.225 336.85L59.025 336.85z" stroke="none" fill="#FFFFFF" fill-rule="evenodd" /><g clip-path="url(#119)"></g><g clip-path="url(#120)"></g><path transform="matrix(1 0 0 -1 0 842)" d="M59.025 294.6L568.225 294.6L568.225 294.6L568.225 315.6L568.225 315.6L59.025 315.6z" stroke="none" fill="#FFFFFF" fill-rule="evenodd" /><g clip-path="url(#121)"></g><g clip-path="url(#122)"></g><path transform="matrix(1 0 0 -1 0 842)" d="M59.025 265.83L568.225 265.83L568.225 265.83L568.225 294.605L568.225 294.605L59.025 294.605z" stroke="none" fill="#FFFFFF" fill-rule="evenodd" /><g clip-path="url(#123)"></g><g clip-path="url(#124)"></g><path transform="matrix(1 0 0 -1 0 842)" d="M59.025 244.58L568.225 244.58L568.225 244.58L568.225 265.83L568.225 265.83L59.025 265.83z" stroke="none" fill="#FFFFFF" fill-rule="evenodd" /><g clip-path="url(#125)"></g><g clip-path="url(#126)"></g><g clip-path="url(#127)"></g><g clip-path="url(#128)"></g><g clip-path="url(#129)"></g><g clip-path="url(#130)"></g><path transform="matrix(1 0 0 -1 0 842)" d="M59.025 223.58L568.225 223.58L568.225 223.58L568.225 244.58L568.225 244.58L59.025 244.58z" stroke="none" fill="#FFFFFF" fill-rule="evenodd" /><g clip-path="url(#131)"></g><g clip-path="url(#132)"></g><g clip-path="url(#133)"></g><g clip-path="url(#134)"></g><path transform="matrix(1 0 0 -1 0 842)" d="M58.775 194.8L568.225 194.8L568.225 194.8L568.225 215.825L568.225 215.825L58.775 215.825z" stroke="none" fill="#FFFFFF" fill-rule="evenodd" /><g clip-path="url(#135)"></g><g clip-path="url(#136)"></g><g clip-path="url(#137)"></g><g clip-path="url(#138)"></g><g clip-path="url(#139)"></g><g clip-path="url(#140)"></g><g clip-path="url(#141)"></g><g clip-path="url(#142)"></g><path transform="matrix(1 0 0 -1 0 842)" d="M77.025 173.8L568.225 173.8L568.225 173.8L568.225 193.3L568.225 193.3L77.025 193.3z" stroke="none" fill="#FFFFFF" fill-rule="evenodd" /><g clip-path="url(#143)"></g><g clip-path="url(#144)"></g><g clip-path="url(#145)"></g><g clip-path="url(#146)"></g><g clip-path="url(#147)"></g><g clip-path="url(#148)"></g><g clip-path="url(#149)"></g><g clip-path="url(#150)"></g><g clip-path="url(#151)"></g><g clip-path="url(#152)"></g><g clip-path="url(#153)"></g><g clip-path="url(#154)"></g><g clip-path="url(#155)"></g><path transform="matrix(1 0 0 -1 0 842)" d="M59.025 145.05L568.225 145.05L568.225 145.05L568.225 166.05L568.225 166.05L59.025 166.05z" stroke="none" fill="#FFFFFF" fill-rule="evenodd" /><g clip-path="url(#156)"></g><g clip-path="url(#157)"></g><g clip-path="url(#158)"></g><g clip-path="url(#159)"></g><g clip-path="url(#160)"></g><g clip-path="url(#161)"></g><g clip-path="url(#162)"></g><path transform="matrix(1 0 0 -1 0 842)" d="M59.025 123.8L568.225 123.8L568.225 123.8L568.225 144.8L568.225 144.8L59.025 144.8z" stroke="none" fill="#FFFFFF" fill-rule="evenodd" /><g clip-path="url(#163)"></g><g clip-path="url(#164)"></g><g clip-path="url(#165)"></g><path transform="matrix(1 0 0 -1 0 842)" d="M59.025 102.77L568.225 102.77L568.225 102.77L568.225 122.295L568.225 122.295L59.025 122.295z" stroke="none" fill="#FFFFFF" fill-rule="evenodd" /><g clip-path="url(#166)"></g><g clip-path="url(#167)"></g><g clip-path="url(#168)"></g><g clip-path="url(#169)"></g><g clip-path="url(#170)"></g><g clip-path="url(#171)"></g><g clip-path="url(#172)"></g><g clip-path="url(#173)"></g><g clip-path="url(#174)"></g><g clip-path="url(#175)"></g><path transform="matrix(1 0 0 -1 0 842)" d="M59.025 81.525L568.225 81.525L568.225 81.525L568.225 101.275L568.225 101.275L59.025 101.275z" stroke="none" fill="#FFFFFF" fill-rule="evenodd" /><g clip-path="url(#176)"></g><g clip-path="url(#177)"></g><g clip-path="url(#178)"></g><g clip-path="url(#179)"></g><g clip-path="url(#180)"></g></g></g></g></svg>