<svg xmlns="http://www.w3.org/2000/svg" xmlns:xlink="http://www.w3.org/1999/xlink" id="body_1" preserveAspectRatio="xMinYMin meet" viewBox="0 0 793 1123"><defs><clipPath id="1"><path d="M0 842L0 0L0 0L595 0L595 0L595 842L595 842L0 842z" /></clipPath><clipPath id="2"><path d="M8.866E-06 842L595 842L595 842L595 0L595 0L8.866E-06 0z" /></clipPath><clipPath id="3"><path d="M8.866E-06 842L595 842L595 842L595 0L595 0L8.866E-06 0z" /></clipPath><clipPath id="4"><path d="M85.275 390.88L524.225 390.88L524.225 390.88L524.225 178.06L524.225 178.06L85.275 178.06z" /></clipPath><clipPath id="5"><path d="M96.05 210.05L514.23 210.05L514.23 210.05L514.23 188.8L514.23 188.8L96.05 188.8z" /></clipPath><clipPath id="6"><path d="M96.05 210.05L514.23 210.05L514.23 210.05L514.23 188.8L514.23 188.8L96.05 188.8z" /></clipPath><clipPath id="7"><path d="M96.05 252.83L514.23 252.83L514.23 252.83L514.23 231.58L514.23 231.58L96.05 231.58z" /></clipPath><clipPath id="8"><path d="M96.05 252.83L514.23 252.83L514.23 252.83L514.23 231.58L514.23 231.58L96.05 231.58z" /></clipPath><clipPath id="9"><path d="M96.05 348.1L514.23 348.1L514.23 348.1L514.23 263.575L514.23 263.575L96.05 263.575z" /></clipPath><clipPath id="10"><path d="M96.05 348.1L514.23 348.1L514.23 348.1L514.23 263.575L514.23 263.575L96.05 263.575z" /></clipPath><clipPath id="11"><path d="M96.05 380.1L514.23 380.1L514.23 380.1L514.23 359.1L514.23 359.1L96.05 359.1z" /></clipPath><clipPath id="12"><path d="M96.05 380.1L514.23 380.1L514.23 380.1L514.23 359.1L514.23 359.1L96.05 359.1z" /></clipPath><clipPath id="13"><path d="M92.8 828L516.73 828L516.73 828L516.73 785.225L516.73 785.225L92.8 785.225z" /></clipPath><clipPath id="14"><path d="M102.05 817.25L506.7 817.25L506.7 817.25L506.7 795.975L506.7 795.975L102.05 795.975z" /></clipPath><clipPath id="15"><path d="M102.05 817.25L506.7 817.25L506.7 817.25L506.7 795.975L506.7 795.975L102.05 795.975z" /></clipPath><clipPath id="16"><path d="M-3.815E-06 841.9998L595 841.9998L595 841.9998L595 -0.0001831055L595 -0.0001831055L-3.815E-06 -0.0001831055z" /></clipPath><clipPath id="17"><path d="M-3.815E-06 841.9998L595 841.9998L595 841.9998L595 -0.0002441406L595 -0.0002441406L-3.815E-06 -0.0002441406z" /></clipPath></defs><g transform="matrix(1.333333 0 0 1.333333 0 0)"><g><g clip-path="url(#1)"><g clip-path="url(#2)"></g><g clip-path="url(#3)"></g><g clip-path="url(#4)"><g clip-path="url(#5)"><g clip-path="url(#6)"></g></g><path transform="matrix(1 0 0 -1 0 842)" d="M94.55 653.2L96.05 653.2L96.05 653.2L96.05 663.95L96.05 663.95L94.55 663.95z" stroke="none" fill="#4F81BD" fill-rule="evenodd" /><path transform="matrix(1 0 0 -1 0 842)" d="M94.55 621.18L96.05 621.18L96.05 621.18L96.05 653.205L96.05 653.205L94.55 653.205z" stroke="none" fill="#4F81BD" fill-rule="evenodd" /><g clip-path="url(#7)"><g clip-path="url(#8)"></g></g><path transform="matrix(1 0 0 -1 0 842)" d="M94.55 610.42L96.05 610.42L96.05 610.42L96.05 621.17L96.05 621.17L94.55 621.17z" stroke="none" fill="#4F81BD" fill-rule="evenodd" /><path transform="matrix(1 0 0 -1 0 842)" d="M94.55 578.42L96.05 578.42L96.05 578.42L96.05 610.42L96.05 610.42L94.55 610.42z" stroke="none" fill="#4F81BD" fill-rule="evenodd" /><g clip-path="url(#9)"><g clip-path="url(#10)"></g></g><path transform="matrix(1 0 0 -1 0 842)" d="M94.55 493.9L96.05 493.9L96.05 493.9L96.05 578.425L96.05 578.425L94.55 578.425z" stroke="none" fill="#4F81BD" fill-rule="evenodd" /><g clip-path="url(#11)"><g clip-path="url(#12)"></g></g><path transform="matrix(1 0 0 -1 0 842)" d="M94.55 483.15L96.05 483.15L96.05 483.15L96.05 493.9L96.05 493.9L94.55 493.9z" stroke="none" fill="#4F81BD" fill-rule="evenodd" /><path transform="matrix(1 0 0 -1 0 842)" d="M94.55 451.13L96.05 451.13L96.05 451.13L96.05 483.155L96.05 483.155L94.55 483.155z" stroke="none" fill="#4F81BD" fill-rule="evenodd" /></g><g clip-path="url(#13)"><g clip-path="url(#14)"><g clip-path="url(#15)"></g></g></g><g clip-path="url(#16)"><g transform="matrix(1.125265 0 0 1.124627 34 40.5)"><g transform="matrix(1 0 0 1 0 0)"><image x="0" y="0" xlink:href="img_01.png" width="471" height="670" /></g></g></g><g clip-path="url(#17)"><g transform="matrix(0.3752442 4.58565E-08 0 0.375026 49.35 55.70001)"><g transform="matrix(1 0 0 1 0 0)"><image x="0" y="0" xlink:href="img_02.png" width="1331" height="1928" /></g></g></g></g></g></g></svg>