<svg xmlns="http://www.w3.org/2000/svg" xmlns:xlink="http://www.w3.org/1999/xlink" id="body_35" preserveAspectRatio="xMinYMin meet" viewBox="0 0 793 1123"><defs><clipPath id="1"><path d="M0 842L0 0L0 0L595 0L595 0L595 842L595 842L0 842z" /></clipPath><clipPath id="2"><path d="M8.866E-06 842L595 842L595 842L595 0L595 0L8.866E-06 0z" /></clipPath><clipPath id="3"><path d="M8.866E-06 842L595 842L595 842L595 0L595 0L8.866E-06 0z" /></clipPath><clipPath id="4"><path d="M8.866E-06 842L595 842L595 842L595 0L595 0L8.866E-06 0z" /></clipPath><clipPath id="5"><path d="M8.866E-06 842L595 842L595 842L595 0L595 0L8.866E-06 0z" /></clipPath><clipPath id="6"><path d="M8.866E-06 842L595 842L595 842L595 0L595 0L8.866E-06 0z" /></clipPath><clipPath id="7"><path d="M8.866E-06 842L595 842L595 842L595 0L595 0L8.866E-06 0z" /></clipPath><clipPath id="8"><path d="M8.866E-06 842L595 842L595 842L595 0L595 0L8.866E-06 0z" /></clipPath><clipPath id="9"><path d="M8.866E-06 842L595 842L595 842L595 0L595 0L8.866E-06 0z" /></clipPath><clipPath id="10"><path d="M8.866E-06 842L595 842L595 842L595 0L595 0L8.866E-06 0z" /></clipPath><clipPath id="11"><path d="M8.866E-06 842L595 842L595 842L595 0L595 0L8.866E-06 0z" /></clipPath><clipPath id="12"><path d="M8.866E-06 842L595 842L595 842L595 0L595 0L8.866E-06 0z" /></clipPath><clipPath id="13"><path d="M8.866E-06 842L595 842L595 842L595 0L595 0L8.866E-06 0z" /></clipPath><clipPath id="14"><path d="M8.866E-06 842L595 842L595 842L595 0L595 0L8.866E-06 0z" /></clipPath><clipPath id="15"><path d="M8.866E-06 842L595 842L595 842L595 0L595 0L8.866E-06 0z" /></clipPath><clipPath id="16"><path d="M8.866E-06 842L595 842L595 842L595 0L595 0L8.866E-06 0z" /></clipPath><clipPath id="17"><path d="M8.866E-06 842L595 842L595 842L595 0L595 0L8.866E-06 0z" /></clipPath><clipPath id="18"><path d="M8.866E-06 842L595 842L595 842L595 0L595 0L8.866E-06 0z" /></clipPath><clipPath id="19"><path d="M8.866E-06 842L595 842L595 842L595 0L595 0L8.866E-06 0z" /></clipPath><clipPath id="20"><path d="M8.866E-06 842L595 842L595 842L595 0L595 0L8.866E-06 0z" /></clipPath><clipPath id="21"><path d="M8.866E-06 842L595 842L595 842L595 0L595 0L8.866E-06 0z" /></clipPath><clipPath id="22"><path d="M8.866E-06 842L595 842L595 842L595 0L595 0L8.866E-06 0z" /></clipPath><clipPath id="23"><path d="M8.866E-06 842L595 842L595 842L595 0L595 0L8.866E-06 0z" /></clipPath><clipPath id="24"><path d="M8.866E-06 842L595 842L595 842L595 0L595 0L8.866E-06 0z" /></clipPath><clipPath id="25"><path d="M8.866E-06 842L595 842L595 842L595 0L595 0L8.866E-06 0z" /></clipPath><clipPath id="26"><path d="M8.866E-06 842L595 842L595 842L595 0L595 0L8.866E-06 0z" /></clipPath><clipPath id="27"><path d="M8.866E-06 842L595 842L595 842L595 0L595 0L8.866E-06 0z" /></clipPath><clipPath id="28"><path d="M8.866E-06 842L595 842L595 842L595 0L595 0L8.866E-06 0z" /></clipPath><clipPath id="29"><path d="M8.866E-06 842L595 842L595 842L595 0L595 0L8.866E-06 0z" /></clipPath><clipPath id="30"><path d="M8.866E-06 842L595 842L595 842L595 0L595 0L8.866E-06 0z" /></clipPath><clipPath id="31"><path d="M8.866E-06 842L595 842L595 842L595 0L595 0L8.866E-06 0z" /></clipPath><clipPath id="32"><path d="M8.866E-06 842L595 842L595 842L595 0L595 0L8.866E-06 0z" /></clipPath><clipPath id="33"><path d="M8.866E-06 842L595 842L595 842L595 0L595 0L8.866E-06 0z" /></clipPath><clipPath id="34"><path d="M8.866E-06 842L595 842L595 842L595 0L595 0L8.866E-06 0z" /></clipPath><clipPath id="35"><path d="M8.866E-06 842L595 842L595 842L595 0L595 0L8.866E-06 0z" /></clipPath><clipPath id="36"><path d="M8.866E-06 842L595 842L595 842L595 0L595 0L8.866E-06 0z" /></clipPath><clipPath id="37"><path d="M8.866E-06 842L595 842L595 842L595 0L595 0L8.866E-06 0z" /></clipPath><clipPath id="38"><path d="M8.866E-06 842L595 842L595 842L595 0L595 0L8.866E-06 0z" /></clipPath><clipPath id="39"><path d="M8.866E-06 842L595 842L595 842L595 0L595 0L8.866E-06 0z" /></clipPath><clipPath id="40"><path d="M8.866E-06 842L595 842L595 842L595 0L595 0L8.866E-06 0z" /></clipPath><clipPath id="41"><path d="M8.866E-06 842L595 842L595 842L595 0L595 0L8.866E-06 0z" /></clipPath><clipPath id="42"><path d="M8.866E-06 842L595 842L595 842L595 0L595 0L8.866E-06 0z" /></clipPath><clipPath id="43"><path d="M8.866E-06 842L595 842L595 842L595 0L595 0L8.866E-06 0z" /></clipPath><clipPath id="44"><path d="M8.866E-06 842L595 842L595 842L595 0L595 0L8.866E-06 0z" /></clipPath><clipPath id="45"><path d="M8.866E-06 842L595 842L595 842L595 0L595 0L8.866E-06 0z" /></clipPath><clipPath id="46"><path d="M8.866E-06 842L595 842L595 842L595 0L595 0L8.866E-06 0z" /></clipPath><clipPath id="47"><path d="M8.866E-06 842L595 842L595 842L595 0L595 0L8.866E-06 0z" /></clipPath><clipPath id="48"><path d="M8.866E-06 842L595 842L595 842L595 0L595 0L8.866E-06 0z" /></clipPath><clipPath id="49"><path d="M8.866E-06 842L595 842L595 842L595 0L595 0L8.866E-06 0z" /></clipPath><clipPath id="50"><path d="M8.866E-06 842L595 842L595 842L595 0L595 0L8.866E-06 0z" /></clipPath><clipPath id="51"><path d="M8.866E-06 842L595 842L595 842L595 0L595 0L8.866E-06 0z" /></clipPath><clipPath id="52"><path d="M8.866E-06 842L595 842L595 842L595 0L595 0L8.866E-06 0z" /></clipPath><clipPath id="53"><path d="M8.866E-06 842L595 842L595 842L595 0L595 0L8.866E-06 0z" /></clipPath><clipPath id="54"><path d="M8.866E-06 842L595 842L595 842L595 0L595 0L8.866E-06 0z" /></clipPath><clipPath id="55"><path d="M8.866E-06 842L595 842L595 842L595 0L595 0L8.866E-06 0z" /></clipPath><clipPath id="56"><path d="M8.866E-06 842L595 842L595 842L595 0L595 0L8.866E-06 0z" /></clipPath><clipPath id="57"><path d="M8.866E-06 842L595 842L595 842L595 0L595 0L8.866E-06 0z" /></clipPath><clipPath id="58"><path d="M8.866E-06 842L595 842L595 842L595 0L595 0L8.866E-06 0z" /></clipPath><clipPath id="59"><path d="M8.866E-06 842L595 842L595 842L595 0L595 0L8.866E-06 0z" /></clipPath><clipPath id="60"><path d="M8.866E-06 842L595 842L595 842L595 0L595 0L8.866E-06 0z" /></clipPath><clipPath id="61"><path d="M8.866E-06 842L595 842L595 842L595 0L595 0L8.866E-06 0z" /></clipPath><clipPath id="62"><path d="M8.866E-06 842L595 842L595 842L595 0L595 0L8.866E-06 0z" /></clipPath><clipPath id="63"><path d="M8.866E-06 842L595 842L595 842L595 0L595 0L8.866E-06 0z" /></clipPath><clipPath id="64"><path d="M8.866E-06 842L595 842L595 842L595 0L595 0L8.866E-06 0z" /></clipPath><clipPath id="65"><path d="M8.866E-06 842L595 842L595 842L595 0L595 0L8.866E-06 0z" /></clipPath><clipPath id="66"><path d="M8.866E-06 842L595 842L595 842L595 0L595 0L8.866E-06 0z" /></clipPath><clipPath id="67"><path d="M8.866E-06 842L595 842L595 842L595 0L595 0L8.866E-06 0z" /></clipPath><clipPath id="68"><path d="M8.866E-06 842L595 842L595 842L595 0L595 0L8.866E-06 0z" /></clipPath><clipPath id="69"><path d="M8.866E-06 842L595 842L595 842L595 0L595 0L8.866E-06 0z" /></clipPath><clipPath id="70"><path d="M8.866E-06 842L595 842L595 842L595 0L595 0L8.866E-06 0z" /></clipPath><clipPath id="71"><path d="M8.866E-06 842L595 842L595 842L595 0L595 0L8.866E-06 0z" /></clipPath><clipPath id="72"><path d="M8.866E-06 842L595 842L595 842L595 0L595 0L8.866E-06 0z" /></clipPath><clipPath id="73"><path d="M8.866E-06 842L595 842L595 842L595 0L595 0L8.866E-06 0z" /></clipPath><clipPath id="74"><path d="M8.866E-06 842L595 842L595 842L595 0L595 0L8.866E-06 0z" /></clipPath><clipPath id="75"><path d="M8.866E-06 842L595 842L595 842L595 0L595 0L8.866E-06 0z" /></clipPath><clipPath id="76"><path d="M8.866E-06 842L595 842L595 842L595 0L595 0L8.866E-06 0z" /></clipPath><clipPath id="77"><path d="M8.866E-06 842L595 842L595 842L595 0L595 0L8.866E-06 0z" /></clipPath><clipPath id="78"><path d="M8.866E-06 842L595 842L595 842L595 0L595 0L8.866E-06 0z" /></clipPath><clipPath id="79"><path d="M8.866E-06 842L595 842L595 842L595 0L595 0L8.866E-06 0z" /></clipPath><clipPath id="80"><path d="M8.866E-06 842L595 842L595 842L595 0L595 0L8.866E-06 0z" /></clipPath><clipPath id="81"><path d="M8.866E-06 842L595 842L595 842L595 0L595 0L8.866E-06 0z" /></clipPath><clipPath id="82"><path d="M8.866E-06 842L595 842L595 842L595 0L595 0L8.866E-06 0z" /></clipPath><clipPath id="83"><path d="M8.866E-06 842L595 842L595 842L595 0L595 0L8.866E-06 0z" /></clipPath><clipPath id="84"><path d="M8.866E-06 842L595 842L595 842L595 0L595 0L8.866E-06 0z" /></clipPath><clipPath id="85"><path d="M8.866E-06 842L595 842L595 842L595 0L595 0L8.866E-06 0z" /></clipPath><clipPath id="86"><path d="M8.866E-06 842L595 842L595 842L595 0L595 0L8.866E-06 0z" /></clipPath><clipPath id="87"><path d="M8.866E-06 842L595 842L595 842L595 0L595 0L8.866E-06 0z" /></clipPath><clipPath id="88"><path d="M8.866E-06 842L595 842L595 842L595 0L595 0L8.866E-06 0z" /></clipPath><clipPath id="89"><path d="M8.866E-06 842L595 842L595 842L595 0L595 0L8.866E-06 0z" /></clipPath><clipPath id="90"><path d="M8.866E-06 842L595 842L595 842L595 0L595 0L8.866E-06 0z" /></clipPath><clipPath id="91"><path d="M8.866E-06 842L595 842L595 842L595 0L595 0L8.866E-06 0z" /></clipPath><clipPath id="92"><path d="M8.866E-06 842L595 842L595 842L595 0L595 0L8.866E-06 0z" /></clipPath><clipPath id="93"><path d="M8.866E-06 842L595 842L595 842L595 0L595 0L8.866E-06 0z" /></clipPath><clipPath id="94"><path d="M8.866E-06 842L595 842L595 842L595 0L595 0L8.866E-06 0z" /></clipPath><clipPath id="95"><path d="M8.866E-06 842L595 842L595 842L595 0L595 0L8.866E-06 0z" /></clipPath><clipPath id="96"><path d="M8.866E-06 842L595 842L595 842L595 0L595 0L8.866E-06 0z" /></clipPath><clipPath id="97"><path d="M8.866E-06 842L595 842L595 842L595 0L595 0L8.866E-06 0z" /></clipPath><clipPath id="98"><path d="M8.866E-06 842L595 842L595 842L595 0L595 0L8.866E-06 0z" /></clipPath><clipPath id="99"><path d="M8.866E-06 842L595 842L595 842L595 0L595 0L8.866E-06 0z" /></clipPath><clipPath id="100"><path d="M8.866E-06 842L595 842L595 842L595 0L595 0L8.866E-06 0z" /></clipPath><clipPath id="101"><path d="M8.866E-06 842L595 842L595 842L595 0L595 0L8.866E-06 0z" /></clipPath><clipPath id="102"><path d="M8.866E-06 842L595 842L595 842L595 0L595 0L8.866E-06 0z" /></clipPath><clipPath id="103"><path d="M8.866E-06 842L595 842L595 842L595 0L595 0L8.866E-06 0z" /></clipPath><clipPath id="104"><path d="M8.866E-06 842L595 842L595 842L595 0L595 0L8.866E-06 0z" /></clipPath><clipPath id="105"><path d="M8.866E-06 842L595 842L595 842L595 0L595 0L8.866E-06 0z" /></clipPath><clipPath id="106"><path d="M8.866E-06 842L595 842L595 842L595 0L595 0L8.866E-06 0z" /></clipPath><clipPath id="107"><path d="M8.866E-06 842L595 842L595 842L595 0L595 0L8.866E-06 0z" /></clipPath><clipPath id="108"><path d="M8.866E-06 842L595 842L595 842L595 0L595 0L8.866E-06 0z" /></clipPath><clipPath id="109"><path d="M8.866E-06 842L595 842L595 842L595 0L595 0L8.866E-06 0z" /></clipPath><clipPath id="110"><path d="M8.866E-06 842L595 842L595 842L595 0L595 0L8.866E-06 0z" /></clipPath><clipPath id="111"><path d="M8.866E-06 842L595 842L595 842L595 0L595 0L8.866E-06 0z" /></clipPath><clipPath id="112"><path d="M8.866E-06 842L595 842L595 842L595 0L595 0L8.866E-06 0z" /></clipPath><clipPath id="113"><path d="M8.866E-06 842L595 842L595 842L595 0L595 0L8.866E-06 0z" /></clipPath><clipPath id="114"><path d="M8.866E-06 842L595 842L595 842L595 0L595 0L8.866E-06 0z" /></clipPath><clipPath id="115"><path d="M8.866E-06 842L595 842L595 842L595 0L595 0L8.866E-06 0z" /></clipPath><clipPath id="116"><path d="M8.866E-06 842L595 842L595 842L595 0L595 0L8.866E-06 0z" /></clipPath><clipPath id="117"><path d="M106.8 422.87L169.825 422.87L169.825 422.87L169.825 401.62L169.825 401.62L106.8 401.62z" /></clipPath><clipPath id="118"><path d="M106.8 422.87L169.825 422.87L169.825 422.87L169.825 401.62L169.825 401.62L106.8 401.62z" /></clipPath><clipPath id="119"><path d="M106.8 422.87L169.825 422.87L169.825 422.87L169.825 401.62L169.825 401.62L106.8 401.62z" /></clipPath><clipPath id="120"><path d="M170.58 422.87L247.855 422.87L247.855 422.87L247.855 401.62L247.855 401.62L170.58 401.62z" /></clipPath><clipPath id="121"><path d="M170.58 422.87L247.855 422.87L247.855 422.87L247.855 401.62L247.855 401.62L170.58 401.62z" /></clipPath><clipPath id="122"><path d="M170.58 422.87L247.855 422.87L247.855 422.87L247.855 401.62L247.855 401.62L170.58 401.62z" /></clipPath><clipPath id="123"><path d="M248.6 422.87L347.15 422.87L347.15 422.87L347.15 401.62L347.15 401.62L248.6 401.62z" /></clipPath><clipPath id="124"><path d="M248.6 422.87L347.15 422.87L347.15 422.87L347.15 401.62L347.15 401.62L248.6 401.62z" /></clipPath><clipPath id="125"><path d="M248.6 422.87L347.15 422.87L347.15 422.87L347.15 401.62L347.15 401.62L248.6 401.62z" /></clipPath><clipPath id="126"><path d="M347.9 422.87L403.925 422.87L403.925 422.87L403.925 401.62L403.925 401.62L347.9 401.62z" /></clipPath><clipPath id="127"><path d="M347.9 422.87L403.925 422.87L403.925 422.87L403.925 401.62L403.925 401.62L347.9 401.62z" /></clipPath><clipPath id="128"><path d="M347.9 422.87L403.925 422.87L403.925 422.87L403.925 401.62L403.925 401.62L347.9 401.62z" /></clipPath><clipPath id="129"><path d="M404.68 422.87L554.98 422.87L554.98 422.87L554.98 401.62L554.98 401.62L404.68 401.62z" /></clipPath><clipPath id="130"><path d="M404.68 422.87L554.98 422.87L554.98 422.87L554.98 401.62L554.98 401.62L404.68 401.62z" /></clipPath><clipPath id="131"><path d="M404.68 422.87L554.98 422.87L554.98 422.87L554.98 401.62L554.98 401.62L404.68 401.62z" /></clipPath><clipPath id="132"><path d="M106.8 453.62L169.825 453.62L169.825 453.62L169.825 432.62L169.825 432.62L106.8 432.62z" /></clipPath><clipPath id="133"><path d="M106.8 453.62L169.825 453.62L169.825 453.62L169.825 432.62L169.825 432.62L106.8 432.62z" /></clipPath><clipPath id="134"><path d="M106.8 453.62L169.825 453.62L169.825 453.62L169.825 432.62L169.825 432.62L106.8 432.62z" /></clipPath><clipPath id="135"><path d="M170.58 453.62L247.855 453.62L247.855 453.62L247.855 432.62L247.855 432.62L170.58 432.62z" /></clipPath><clipPath id="136"><path d="M170.58 453.62L247.855 453.62L247.855 453.62L247.855 432.62L247.855 432.62L170.58 432.62z" /></clipPath><clipPath id="137"><path d="M170.58 453.62L247.855 453.62L247.855 453.62L247.855 432.62L247.855 432.62L170.58 432.62z" /></clipPath><clipPath id="138"><path d="M170.58 453.62L247.855 453.62L247.855 453.62L247.855 432.62L247.855 432.62L170.58 432.62z" /></clipPath><clipPath id="139"><path d="M170.58 453.62L247.855 453.62L247.855 453.62L247.855 432.62L247.855 432.62L170.58 432.62z" /></clipPath><clipPath id="140"><path d="M248.6 453.62L347.15 453.62L347.15 453.62L347.15 432.62L347.15 432.62L248.6 432.62z" /></clipPath><clipPath id="141"><path d="M248.6 453.62L347.15 453.62L347.15 453.62L347.15 432.62L347.15 432.62L248.6 432.62z" /></clipPath><clipPath id="142"><path d="M248.6 453.62L347.15 453.62L347.15 453.62L347.15 432.62L347.15 432.62L248.6 432.62z" /></clipPath><clipPath id="143"><path d="M347.9 453.62L403.925 453.62L403.925 453.62L403.925 432.62L403.925 432.62L347.9 432.62z" /></clipPath><clipPath id="144"><path d="M347.9 453.62L403.925 453.62L403.925 453.62L403.925 432.62L403.925 432.62L347.9 432.62z" /></clipPath><clipPath id="145"><path d="M347.9 453.62L403.925 453.62L403.925 453.62L403.925 432.62L403.925 432.62L347.9 432.62z" /></clipPath><clipPath id="146"><path d="M404.68 453.62L554.98 453.62L554.98 453.62L554.98 432.62L554.98 432.62L404.68 432.62z" /></clipPath><clipPath id="147"><path d="M404.68 453.62L554.98 453.62L554.98 453.62L554.98 432.62L554.98 432.62L404.68 432.62z" /></clipPath><clipPath id="148"><path d="M404.68 453.62L554.98 453.62L554.98 453.62L554.98 432.62L554.98 432.62L404.68 432.62z" /></clipPath><clipPath id="149"><path d="M404.68 453.62L554.98 453.62L554.98 453.62L554.98 432.62L554.98 432.62L404.68 432.62z" /></clipPath><clipPath id="150"><path d="M404.68 453.62L554.98 453.62L554.98 453.62L554.98 432.62L554.98 432.62L404.68 432.62z" /></clipPath><clipPath id="151"><path d="M404.68 453.62L554.98 453.62L554.98 453.62L554.98 432.62L554.98 432.62L404.68 432.62z" /></clipPath><clipPath id="152"><path d="M106.8 484.65L169.825 484.65L169.825 484.65L169.825 463.375L169.825 463.375L106.8 463.375z" /></clipPath><clipPath id="153"><path d="M106.8 484.65L169.825 484.65L169.825 484.65L169.825 463.375L169.825 463.375L106.8 463.375z" /></clipPath><clipPath id="154"><path d="M106.8 484.65L169.825 484.65L169.825 484.65L169.825 463.375L169.825 463.375L106.8 463.375z" /></clipPath><clipPath id="155"><path d="M170.58 484.65L247.855 484.65L247.855 484.65L247.855 463.375L247.855 463.375L170.58 463.375z" /></clipPath><clipPath id="156"><path d="M170.58 484.65L247.855 484.65L247.855 484.65L247.855 463.375L247.855 463.375L170.58 463.375z" /></clipPath><clipPath id="157"><path d="M170.58 484.65L247.855 484.65L247.855 484.65L247.855 463.375L247.855 463.375L170.58 463.375z" /></clipPath><clipPath id="158"><path d="M248.6 484.65L347.15 484.65L347.15 484.65L347.15 463.375L347.15 463.375L248.6 463.375z" /></clipPath><clipPath id="159"><path d="M248.6 484.65L347.15 484.65L347.15 484.65L347.15 463.375L347.15 463.375L248.6 463.375z" /></clipPath><clipPath id="160"><path d="M248.6 484.65L347.15 484.65L347.15 484.65L347.15 463.375L347.15 463.375L248.6 463.375z" /></clipPath><clipPath id="161"><path d="M347.9 484.65L403.925 484.65L403.925 484.65L403.925 463.375L403.925 463.375L347.9 463.375z" /></clipPath><clipPath id="162"><path d="M347.9 484.65L403.925 484.65L403.925 484.65L403.925 463.375L403.925 463.375L347.9 463.375z" /></clipPath><clipPath id="163"><path d="M347.9 484.65L403.925 484.65L403.925 484.65L403.925 463.375L403.925 463.375L347.9 463.375z" /></clipPath><clipPath id="164"><path d="M404.68 484.65L554.98 484.65L554.98 484.65L554.98 463.375L554.98 463.375L404.68 463.375z" /></clipPath><clipPath id="165"><path d="M404.68 484.65L554.98 484.65L554.98 484.65L554.98 463.375L554.98 463.375L404.68 463.375z" /></clipPath><clipPath id="166"><path d="M404.68 484.65L554.98 484.65L554.98 484.65L554.98 463.375L554.98 463.375L404.68 463.375z" /></clipPath><clipPath id="167"><path d="M404.68 484.65L554.98 484.65L554.98 484.65L554.98 463.375L554.98 463.375L404.68 463.375z" /></clipPath><clipPath id="168"><path d="M404.68 484.65L554.98 484.65L554.98 484.65L554.98 463.375L554.98 463.375L404.68 463.375z" /></clipPath><clipPath id="169"><path d="M404.68 484.65L554.98 484.65L554.98 484.65L554.98 463.375L554.98 463.375L404.68 463.375z" /></clipPath><clipPath id="170"><path d="M106.8 515.4L169.825 515.4L169.825 515.4L169.825 494.4L169.825 494.4L106.8 494.4z" /></clipPath><clipPath id="171"><path d="M106.8 515.4L169.825 515.4L169.825 515.4L169.825 494.4L169.825 494.4L106.8 494.4z" /></clipPath><clipPath id="172"><path d="M106.8 515.4L169.825 515.4L169.825 515.4L169.825 494.4L169.825 494.4L106.8 494.4z" /></clipPath><clipPath id="173"><path d="M170.58 515.4L247.855 515.4L247.855 515.4L247.855 494.4L247.855 494.4L170.58 494.4z" /></clipPath><clipPath id="174"><path d="M170.58 515.4L247.855 515.4L247.855 515.4L247.855 494.4L247.855 494.4L170.58 494.4z" /></clipPath><clipPath id="175"><path d="M170.58 515.4L247.855 515.4L247.855 515.4L247.855 494.4L247.855 494.4L170.58 494.4z" /></clipPath><clipPath id="176"><path d="M248.6 515.4L347.15 515.4L347.15 515.4L347.15 494.4L347.15 494.4L248.6 494.4z" /></clipPath><clipPath id="177"><path d="M248.6 515.4L347.15 515.4L347.15 515.4L347.15 494.4L347.15 494.4L248.6 494.4z" /></clipPath><clipPath id="178"><path d="M248.6 515.4L347.15 515.4L347.15 515.4L347.15 494.4L347.15 494.4L248.6 494.4z" /></clipPath><clipPath id="179"><path d="M347.9 515.4L403.925 515.4L403.925 515.4L403.925 494.4L403.925 494.4L347.9 494.4z" /></clipPath><clipPath id="180"><path d="M347.9 515.4L403.925 515.4L403.925 515.4L403.925 494.4L403.925 494.4L347.9 494.4z" /></clipPath><clipPath id="181"><path d="M347.9 515.4L403.925 515.4L403.925 515.4L403.925 494.4L403.925 494.4L347.9 494.4z" /></clipPath><clipPath id="182"><path d="M404.68 515.4L554.98 515.4L554.98 515.4L554.98 494.4L554.98 494.4L404.68 494.4z" /></clipPath><clipPath id="183"><path d="M404.68 515.4L554.98 515.4L554.98 515.4L554.98 494.4L554.98 494.4L404.68 494.4z" /></clipPath><clipPath id="184"><path d="M404.68 515.4L554.98 515.4L554.98 515.4L554.98 494.4L554.98 494.4L404.68 494.4z" /></clipPath><clipPath id="185"><path d="M404.68 515.4L554.98 515.4L554.98 515.4L554.98 494.4L554.98 494.4L404.68 494.4z" /></clipPath><clipPath id="186"><path d="M404.68 515.4L554.98 515.4L554.98 515.4L554.98 494.4L554.98 494.4L404.68 494.4z" /></clipPath><clipPath id="187"><path d="M404.68 515.4L554.98 515.4L554.98 515.4L554.98 494.4L554.98 494.4L404.68 494.4z" /></clipPath><clipPath id="188"><path d="M404.68 515.4L554.98 515.4L554.98 515.4L554.98 494.4L554.98 494.4L404.68 494.4z" /></clipPath><clipPath id="189"><path d="M404.68 515.4L554.98 515.4L554.98 515.4L554.98 494.4L554.98 494.4L404.68 494.4z" /></clipPath><clipPath id="190"><path d="M106.8 546.4L169.825 546.4L169.825 546.4L169.825 525.15L169.825 525.15L106.8 525.15z" /></clipPath><clipPath id="191"><path d="M106.8 546.4L169.825 546.4L169.825 546.4L169.825 525.15L169.825 525.15L106.8 525.15z" /></clipPath><clipPath id="192"><path d="M106.8 546.4L169.825 546.4L169.825 546.4L169.825 525.15L169.825 525.15L106.8 525.15z" /></clipPath><clipPath id="193"><path d="M170.58 546.4L247.855 546.4L247.855 546.4L247.855 525.15L247.855 525.15L170.58 525.15z" /></clipPath><clipPath id="194"><path d="M170.58 546.4L247.855 546.4L247.855 546.4L247.855 525.15L247.855 525.15L170.58 525.15z" /></clipPath><clipPath id="195"><path d="M170.58 546.4L247.855 546.4L247.855 546.4L247.855 525.15L247.855 525.15L170.58 525.15z" /></clipPath><clipPath id="196"><path d="M170.58 546.4L247.855 546.4L247.855 546.4L247.855 525.15L247.855 525.15L170.58 525.15z" /></clipPath><clipPath id="197"><path d="M170.58 546.4L247.855 546.4L247.855 546.4L247.855 525.15L247.855 525.15L170.58 525.15z" /></clipPath><clipPath id="198"><path d="M248.6 546.4L347.15 546.4L347.15 546.4L347.15 525.15L347.15 525.15L248.6 525.15z" /></clipPath><clipPath id="199"><path d="M248.6 546.4L347.15 546.4L347.15 546.4L347.15 525.15L347.15 525.15L248.6 525.15z" /></clipPath><clipPath id="200"><path d="M248.6 546.4L347.15 546.4L347.15 546.4L347.15 525.15L347.15 525.15L248.6 525.15z" /></clipPath><clipPath id="201"><path d="M347.9 546.4L403.925 546.4L403.925 546.4L403.925 525.15L403.925 525.15L347.9 525.15z" /></clipPath><clipPath id="202"><path d="M347.9 546.4L403.925 546.4L403.925 546.4L403.925 525.15L403.925 525.15L347.9 525.15z" /></clipPath><clipPath id="203"><path d="M347.9 546.4L403.925 546.4L403.925 546.4L403.925 525.15L403.925 525.15L347.9 525.15z" /></clipPath><clipPath id="204"><path d="M404.68 546.4L554.98 546.4L554.98 546.4L554.98 525.15L554.98 525.15L404.68 525.15z" /></clipPath><clipPath id="205"><path d="M404.68 546.4L554.98 546.4L554.98 546.4L554.98 525.15L554.98 525.15L404.68 525.15z" /></clipPath><clipPath id="206"><path d="M404.68 546.4L554.98 546.4L554.98 546.4L554.98 525.15L554.98 525.15L404.68 525.15z" /></clipPath><clipPath id="207"><path d="M404.68 546.4L554.98 546.4L554.98 546.4L554.98 525.15L554.98 525.15L404.68 525.15z" /></clipPath><clipPath id="208"><path d="M404.68 546.4L554.98 546.4L554.98 546.4L554.98 525.15L554.98 525.15L404.68 525.15z" /></clipPath><clipPath id="209"><path d="M404.68 546.4L554.98 546.4L554.98 546.4L554.98 525.15L554.98 525.15L404.68 525.15z" /></clipPath><clipPath id="210"><path d="M404.68 546.4L554.98 546.4L554.98 546.4L554.98 525.15L554.98 525.15L404.68 525.15z" /></clipPath><clipPath id="211"><path d="M404.68 546.4L554.98 546.4L554.98 546.4L554.98 525.15L554.98 525.15L404.68 525.15z" /></clipPath><clipPath id="212"><path d="M404.68 546.4L554.98 546.4L554.98 546.4L554.98 525.15L554.98 525.15L404.68 525.15z" /></clipPath><clipPath id="213"><path d="M8.866E-06 842L595 842L595 842L595 0L595 0L8.866E-06 0z" /></clipPath><clipPath id="214"><path d="M8.866E-06 842L595 842L595 842L595 0L595 0L8.866E-06 0z" /></clipPath><clipPath id="215"><path d="M8.866E-06 842L595 842L595 842L595 0L595 0L8.866E-06 0z" /></clipPath><clipPath id="216"><path d="M8.866E-06 842L595 842L595 842L595 0L595 0L8.866E-06 0z" /></clipPath><clipPath id="217"><path d="M8.866E-06 842L595 842L595 842L595 0L595 0L8.866E-06 0z" /></clipPath><clipPath id="218"><path d="M8.866E-06 842L595 842L595 842L595 0L595 0L8.866E-06 0z" /></clipPath><clipPath id="219"><path d="M8.866E-06 842L595 842L595 842L595 0L595 0L8.866E-06 0z" /></clipPath><clipPath id="220"><path d="M8.866E-06 842L595 842L595 842L595 0L595 0L8.866E-06 0z" /></clipPath><clipPath id="221"><path d="M8.866E-06 842L595 842L595 842L595 0L595 0L8.866E-06 0z" /></clipPath><clipPath id="222"><path d="M8.866E-06 842L595 842L595 842L595 0L595 0L8.866E-06 0z" /></clipPath><clipPath id="223"><path d="M8.866E-06 842L595 842L595 842L595 0L595 0L8.866E-06 0z" /></clipPath><clipPath id="224"><path d="M8.866E-06 842L595 842L595 842L595 0L595 0L8.866E-06 0z" /></clipPath><clipPath id="225"><path d="M8.866E-06 842L595 842L595 842L595 0L595 0L8.866E-06 0z" /></clipPath><clipPath id="226"><path d="M8.866E-06 842L595 842L595 842L595 0L595 0L8.866E-06 0z" /></clipPath><clipPath id="227"><path d="M8.866E-06 842L595 842L595 842L595 0L595 0L8.866E-06 0z" /></clipPath><clipPath id="228"><path d="M8.866E-06 842L595 842L595 842L595 0L595 0L8.866E-06 0z" /></clipPath><clipPath id="229"><path d="M8.866E-06 842L595 842L595 842L595 0L595 0L8.866E-06 0z" /></clipPath><clipPath id="230"><path d="M8.866E-06 842L595 842L595 842L595 0L595 0L8.866E-06 0z" /></clipPath><clipPath id="231"><path d="M8.866E-06 842L595 842L595 842L595 0L595 0L8.866E-06 0z" /></clipPath><clipPath id="232"><path d="M8.866E-06 842L595 842L595 842L595 0L595 0L8.866E-06 0z" /></clipPath><clipPath id="233"><path d="M8.866E-06 842L595 842L595 842L595 0L595 0L8.866E-06 0z" /></clipPath><clipPath id="234"><path d="M8.866E-06 842L595 842L595 842L595 0L595 0L8.866E-06 0z" /></clipPath><clipPath id="235"><path d="M8.866E-06 842L595 842L595 842L595 0L595 0L8.866E-06 0z" /></clipPath><clipPath id="236"><path d="M8.866E-06 842L595 842L595 842L595 0L595 0L8.866E-06 0z" /></clipPath><clipPath id="237"><path d="M8.866E-06 842L595 842L595 842L595 0L595 0L8.866E-06 0z" /></clipPath><clipPath id="238"><path d="M8.866E-06 842L595 842L595 842L595 0L595 0L8.866E-06 0z" /></clipPath><clipPath id="239"><path d="M8.866E-06 842L595 842L595 842L595 0L595 0L8.866E-06 0z" /></clipPath><clipPath id="240"><path d="M8.866E-06 842L595 842L595 842L595 0L595 0L8.866E-06 0z" /></clipPath><clipPath id="241"><path d="M8.866E-06 842L595 842L595 842L595 0L595 0L8.866E-06 0z" /></clipPath><clipPath id="242"><path d="M8.866E-06 842L595 842L595 842L595 0L595 0L8.866E-06 0z" /></clipPath><clipPath id="243"><path d="M8.866E-06 842L595 842L595 842L595 0L595 0L8.866E-06 0z" /></clipPath><clipPath id="244"><path d="M8.866E-06 842L595 842L595 842L595 0L595 0L8.866E-06 0z" /></clipPath><clipPath id="245"><path d="M8.866E-06 842L595 842L595 842L595 0L595 0L8.866E-06 0z" /></clipPath><clipPath id="246"><path d="M8.866E-06 842L595 842L595 842L595 0L595 0L8.866E-06 0z" /></clipPath><clipPath id="247"><path d="M8.866E-06 842L595 842L595 842L595 0L595 0L8.866E-06 0z" /></clipPath><clipPath id="248"><path d="M8.866E-06 842L595 842L595 842L595 0L595 0L8.866E-06 0z" /></clipPath><clipPath id="249"><path d="M8.866E-06 842L595 842L595 842L595 0L595 0L8.866E-06 0z" /></clipPath><clipPath id="250"><path d="M8.866E-06 842L595 842L595 842L595 0L595 0L8.866E-06 0z" /></clipPath><clipPath id="251"><path d="M8.866E-06 842L595 842L595 842L595 0L595 0L8.866E-06 0z" /></clipPath><clipPath id="252"><path d="M8.866E-06 842L595 842L595 842L595 0L595 0L8.866E-06 0z" /></clipPath><clipPath id="253"><path d="M8.866E-06 842L595 842L595 842L595 0L595 0L8.866E-06 0z" /></clipPath><clipPath id="254"><path d="M8.866E-06 842L595 842L595 842L595 0L595 0L8.866E-06 0z" /></clipPath><clipPath id="255"><path d="M8.866E-06 842L595 842L595 842L595 0L595 0L8.866E-06 0z" /></clipPath><clipPath id="256"><path d="M8.866E-06 842L595 842L595 842L595 0L595 0L8.866E-06 0z" /></clipPath><clipPath id="257"><path d="M8.866E-06 842L595 842L595 842L595 0L595 0L8.866E-06 0z" /></clipPath><clipPath id="258"><path d="M8.866E-06 842L595 842L595 842L595 0L595 0L8.866E-06 0z" /></clipPath><clipPath id="259"><path d="M8.866E-06 842L595 842L595 842L595 0L595 0L8.866E-06 0z" /></clipPath><clipPath id="260"><path d="M8.866E-06 842L595 842L595 842L595 0L595 0L8.866E-06 0z" /></clipPath><clipPath id="261"><path d="M8.866E-06 842L595 842L595 842L595 0L595 0L8.866E-06 0z" /></clipPath><clipPath id="262"><path d="M8.866E-06 842L595 842L595 842L595 0L595 0L8.866E-06 0z" /></clipPath><clipPath id="263"><path d="M8.866E-06 842L595 842L595 842L595 0L595 0L8.866E-06 0z" /></clipPath><clipPath id="264"><path d="M8.866E-06 842L595 842L595 842L595 0L595 0L8.866E-06 0z" /></clipPath><clipPath id="265"><path d="M8.866E-06 842L595 842L595 842L595 0L595 0L8.866E-06 0z" /></clipPath><clipPath id="266"><path d="M8.866E-06 842L595 842L595 842L595 0L595 0L8.866E-06 0z" /></clipPath><clipPath id="267"><path d="M8.866E-06 842L595 842L595 842L595 0L595 0L8.866E-06 0z" /></clipPath><clipPath id="268"><path d="M8.866E-06 842L595 842L595 842L595 0L595 0L8.866E-06 0z" /></clipPath><clipPath id="269"><path d="M8.866E-06 842L595 842L595 842L595 0L595 0L8.866E-06 0z" /></clipPath><clipPath id="270"><path d="M8.866E-06 842L595 842L595 842L595 0L595 0L8.866E-06 0z" /></clipPath><clipPath id="271"><path d="M8.866E-06 842L595 842L595 842L595 0L595 0L8.866E-06 0z" /></clipPath><clipPath id="272"><path d="M8.866E-06 842L595 842L595 842L595 0L595 0L8.866E-06 0z" /></clipPath><clipPath id="273"><path d="M8.866E-06 842L595 842L595 842L595 0L595 0L8.866E-06 0z" /></clipPath><clipPath id="274"><path d="M8.866E-06 842L595 842L595 842L595 0L595 0L8.866E-06 0z" /></clipPath><clipPath id="275"><path d="M8.866E-06 842L595 842L595 842L595 0L595 0L8.866E-06 0z" /></clipPath></defs><g transform="matrix(1.333333 0 0 1.333333 0 0)"><g><g clip-path="url(#1)"><g clip-path="url(#2)"></g><g clip-path="url(#3)"></g><g clip-path="url(#4)"></g><g clip-path="url(#5)"><path transform="matrix(1 0 0 -1 0 842)" d="M41.025 811.5L568.225 811.5L568.225 811.5L568.225 812.25L568.225 812.25L41.025 812.25z" stroke="none" fill="#000000" fill-rule="evenodd" /></g><g clip-path="url(#6)"></g><g clip-path="url(#7)"></g><g clip-path="url(#8)"></g><g clip-path="url(#9)"></g><g clip-path="url(#10)"></g><g clip-path="url(#11)"></g><g clip-path="url(#12)"></g><g clip-path="url(#13)"></g><g clip-path="url(#14)"></g><g clip-path="url(#15)"></g><g clip-path="url(#16)"></g><g clip-path="url(#17)"></g><g clip-path="url(#18)"></g><g clip-path="url(#19)"></g><g clip-path="url(#20)"></g><g clip-path="url(#21)"></g><g clip-path="url(#22)"></g><g clip-path="url(#23)"></g><g clip-path="url(#24)"></g><g clip-path="url(#25)"></g><g clip-path="url(#26)"></g><g clip-path="url(#27)"></g><g clip-path="url(#28)"></g><g clip-path="url(#29)"></g><g clip-path="url(#30)"></g><g clip-path="url(#31)"></g><g clip-path="url(#32)"></g><g clip-path="url(#33)"></g><g clip-path="url(#34)"></g><g clip-path="url(#35)"></g><g clip-path="url(#36)"></g><g clip-path="url(#37)"></g><g clip-path="url(#38)"></g><g clip-path="url(#39)"></g><g clip-path="url(#40)"></g><g clip-path="url(#41)"></g><g clip-path="url(#42)"></g><g clip-path="url(#43)"></g><g clip-path="url(#44)"></g><g clip-path="url(#45)"></g><g clip-path="url(#46)"></g><g clip-path="url(#47)"></g><g clip-path="url(#48)"></g><g clip-path="url(#49)"></g><g clip-path="url(#50)"></g><g clip-path="url(#51)"></g><g clip-path="url(#52)"></g><g clip-path="url(#53)"></g><g clip-path="url(#54)"></g><g clip-path="url(#55)"></g><g clip-path="url(#56)"></g><g clip-path="url(#57)"></g><g clip-path="url(#58)"></g><g clip-path="url(#59)"></g><g clip-path="url(#60)"></g><g clip-path="url(#61)"></g><g clip-path="url(#62)"></g><g clip-path="url(#63)"></g><g clip-path="url(#64)"></g><g clip-path="url(#65)"></g><g clip-path="url(#66)"></g><g clip-path="url(#67)"></g><g clip-path="url(#68)"></g><g clip-path="url(#69)"></g><g clip-path="url(#70)"></g><g clip-path="url(#71)"></g><g clip-path="url(#72)"></g><g clip-path="url(#73)"></g><g clip-path="url(#74)"></g><g clip-path="url(#75)"></g><g clip-path="url(#76)"></g><g clip-path="url(#77)"></g><g clip-path="url(#78)"></g><g clip-path="url(#79)"></g><g clip-path="url(#80)"></g><g clip-path="url(#81)"></g><g clip-path="url(#82)"></g><g clip-path="url(#83)"></g><g clip-path="url(#84)"></g><g clip-path="url(#85)"></g><g clip-path="url(#86)"></g><g clip-path="url(#87)"></g><g clip-path="url(#88)"></g><g clip-path="url(#89)"></g><g clip-path="url(#90)"></g><g clip-path="url(#91)"></g><g clip-path="url(#92)"></g><g clip-path="url(#93)"></g><g clip-path="url(#94)"></g><g clip-path="url(#95)"></g><g clip-path="url(#96)"></g><g clip-path="url(#97)"></g><g clip-path="url(#98)"></g><g clip-path="url(#99)"></g><g clip-path="url(#100)"></g><g clip-path="url(#101)"></g><g clip-path="url(#102)"></g><g clip-path="url(#103)"></g><g clip-path="url(#104)"></g><g clip-path="url(#105)"></g><g clip-path="url(#106)"></g><g clip-path="url(#107)"></g><g clip-path="url(#108)"></g><g clip-path="url(#109)"></g><g clip-path="url(#110)"></g><g clip-path="url(#111)"></g><g clip-path="url(#112)"></g><g clip-path="url(#113)"></g><g clip-path="url(#114)"></g><g clip-path="url(#115)"></g><g clip-path="url(#116)"></g><path transform="matrix(1 0 0 -1 0 842)" d="M106.8 414.63L169.825 414.63L169.825 414.63L169.825 444.88L169.825 444.88L106.8 444.88z" stroke="none" fill="#E5E5E5" fill-rule="evenodd" /><g clip-path="url(#117)"><path transform="matrix(1 0 0 -1 0 842)" d="M115.3 419.13L161.325 419.13L161.325 419.13L161.325 440.38L161.325 440.38L115.3 440.38z" stroke="none" fill="#E5E5E5" fill-rule="evenodd" /><g clip-path="url(#118)"></g><g clip-path="url(#119)"></g></g><path transform="matrix(1 0 0 -1 0 842)" d="M170.58 414.63L247.855 414.63L247.855 414.63L247.855 444.88L247.855 444.88L170.58 444.88z" stroke="none" fill="#E5E5E5" fill-rule="evenodd" /><g clip-path="url(#120)"><path transform="matrix(1 0 0 -1 0 842)" d="M179.33 419.13L239.105 419.13L239.105 419.13L239.105 440.38L239.105 440.38L179.33 440.38z" stroke="none" fill="#E5E5E5" fill-rule="evenodd" /><g clip-path="url(#121)"></g><g clip-path="url(#122)"></g></g><path transform="matrix(1 0 0 -1 0 842)" d="M248.6 414.63L347.15 414.63L347.15 414.63L347.15 444.88L347.15 444.88L248.6 444.88z" stroke="none" fill="#E5E5E5" fill-rule="evenodd" /><g clip-path="url(#123)"><path transform="matrix(1 0 0 -1 0 842)" d="M257.1 419.13L338.4 419.13L338.4 419.13L338.4 440.38L338.4 440.38L257.1 440.38z" stroke="none" fill="#E5E5E5" fill-rule="evenodd" /><g clip-path="url(#124)"></g><g clip-path="url(#125)"></g></g><path transform="matrix(1 0 0 -1 0 842)" d="M347.9 418.38L403.925 418.38L403.925 418.38L403.925 441.13L403.925 441.13L347.9 441.13z" stroke="none" fill="#E5E5E5" fill-rule="evenodd" /><g clip-path="url(#126)"><path transform="matrix(1 0 0 -1 0 842)" d="M348.15 419.13L403.425 419.13L403.425 419.13L403.425 440.38L403.425 440.38L348.15 440.38z" stroke="none" fill="#E5E5E5" fill-rule="evenodd" /><g clip-path="url(#127)"></g><g clip-path="url(#128)"></g></g><path transform="matrix(1 0 0 -1 0 842)" d="M404.68 414.63L554.98 414.63L554.98 414.63L554.98 444.88L554.98 444.88L404.68 444.88z" stroke="none" fill="#E5E5E5" fill-rule="evenodd" /><g clip-path="url(#129)"><path transform="matrix(1 0 0 -1 0 842)" d="M413.18 419.13L546.48 419.13L546.48 419.13L546.48 440.38L546.48 440.38L413.18 440.38z" stroke="none" fill="#E5E5E5" fill-rule="evenodd" /><g clip-path="url(#130)"></g><g clip-path="url(#131)"></g></g><path transform="matrix(1 0 0 -1 0 842)" d="M105.8 440.38L106.55 440.38L106.55 440.38L106.55 445.63L106.55 445.63L105.8 445.63z" stroke="none" fill="#DDDDDD" fill-rule="evenodd" /><path transform="matrix(1 0 0 -1 0 842)" d="M105.8 444.88L106.55 444.88L106.55 444.88L106.55 445.63L106.55 445.63L105.8 445.63z" stroke="none" fill="#DDDDDD" fill-rule="evenodd" /><path transform="matrix(1 0 0 -1 0 842)" d="M106.55 444.88L169.575 444.88L169.575 444.88L169.575 445.63L169.575 445.63L106.55 445.63z" stroke="none" fill="#DDDDDD" fill-rule="evenodd" /><path transform="matrix(1 0 0 -1 0 842)" d="M106.55 440.38L169.575 440.38L169.575 440.38L169.575 444.88L169.575 444.88L106.55 444.88z" stroke="none" fill="#E5E5E5" fill-rule="evenodd" /><path transform="matrix(1 0 0 -1 0 842)" d="M169.58 440.38L170.33 440.38L170.33 440.38L170.33 444.88L170.33 444.88L169.58 444.88z" stroke="none" fill="#DDDDDD" fill-rule="evenodd" /><path transform="matrix(1 0 0 -1 0 842)" d="M169.58 444.88L170.33 444.88L170.33 444.88L170.33 445.63L170.33 445.63L169.58 445.63z" stroke="none" fill="#DDDDDD" fill-rule="evenodd" /><path transform="matrix(1 0 0 -1 0 842)" d="M170.33 444.88L247.605 444.88L247.605 444.88L247.605 445.63L247.605 445.63L170.33 445.63z" stroke="none" fill="#DDDDDD" fill-rule="evenodd" /><path transform="matrix(1 0 0 -1 0 842)" d="M170.33 440.38L247.605 440.38L247.605 440.38L247.605 444.88L247.605 444.88L170.33 444.88z" stroke="none" fill="#E5E5E5" fill-rule="evenodd" /><path transform="matrix(1 0 0 -1 0 842)" d="M247.6 440.38L248.35 440.38L248.35 440.38L248.35 444.88L248.35 444.88L247.6 444.88z" stroke="none" fill="#DDDDDD" fill-rule="evenodd" /><path transform="matrix(1 0 0 -1 0 842)" d="M247.6 444.88L248.35 444.88L248.35 444.88L248.35 445.63L248.35 445.63L247.6 445.63z" stroke="none" fill="#DDDDDD" fill-rule="evenodd" /><path transform="matrix(1 0 0 -1 0 842)" d="M248.35 444.88L346.9 444.88L346.9 444.88L346.9 445.63L346.9 445.63L248.35 445.63z" stroke="none" fill="#DDDDDD" fill-rule="evenodd" /><path transform="matrix(1 0 0 -1 0 842)" d="M248.35 440.38L346.9 440.38L346.9 440.38L346.9 444.88L346.9 444.88L248.35 444.88z" stroke="none" fill="#E5E5E5" fill-rule="evenodd" /><path transform="matrix(1 0 0 -1 0 842)" d="M346.9 440.38L347.65 440.38L347.65 440.38L347.65 444.88L347.65 444.88L346.9 444.88z" stroke="none" fill="#DDDDDD" fill-rule="evenodd" /><path transform="matrix(1 0 0 -1 0 842)" d="M346.9 444.88L347.65 444.88L347.65 444.88L347.65 445.63L347.65 445.63L346.9 445.63z" stroke="none" fill="#DDDDDD" fill-rule="evenodd" /><path transform="matrix(1 0 0 -1 0 842)" d="M347.65 444.88L403.675 444.88L403.675 444.88L403.675 445.63L403.675 445.63L347.65 445.63z" stroke="none" fill="#DDDDDD" fill-rule="evenodd" /><path transform="matrix(1 0 0 -1 0 842)" d="M347.65 440.38L403.675 440.38L403.675 440.38L403.675 444.88L403.675 444.88L347.65 444.88z" stroke="none" fill="#E5E5E5" fill-rule="evenodd" /><path transform="matrix(1 0 0 -1 0 842)" d="M403.68 440.38L404.43 440.38L404.43 440.38L404.43 444.88L404.43 444.88L403.68 444.88z" stroke="none" fill="#DDDDDD" fill-rule="evenodd" /><path transform="matrix(1 0 0 -1 0 842)" d="M403.68 444.88L404.43 444.88L404.43 444.88L404.43 445.63L404.43 445.63L403.68 445.63z" stroke="none" fill="#DDDDDD" fill-rule="evenodd" /><path transform="matrix(1 0 0 -1 0 842)" d="M404.43 444.88L554.98 444.88L554.98 444.88L554.98 445.63L554.98 445.63L404.43 445.63z" stroke="none" fill="#DDDDDD" fill-rule="evenodd" /><path transform="matrix(1 0 0 -1 0 842)" d="M404.43 440.38L554.98 440.38L554.98 440.38L554.98 444.88L554.98 444.88L404.43 444.88z" stroke="none" fill="#E5E5E5" fill-rule="evenodd" /><path transform="matrix(1 0 0 -1 0 842)" d="M554.98 440.38L555.73 440.38L555.73 440.38L555.73 445.63L555.73 445.63L554.98 445.63z" stroke="none" fill="#DDDDDD" fill-rule="evenodd" /><path transform="matrix(1 0 0 -1 0 842)" d="M554.98 444.88L555.73 444.88L555.73 444.88L555.73 445.63L555.73 445.63L554.98 445.63z" stroke="none" fill="#DDDDDD" fill-rule="evenodd" /><path transform="matrix(1 0 0 -1 0 842)" d="M106.3 414.63L170.075 414.63L170.075 414.63L170.075 419.13L170.075 419.13L106.3 419.13z" stroke="none" fill="#E5E5E5" fill-rule="evenodd" /><path transform="matrix(1 0 0 -1 0 842)" d="M105.8 414.63L106.55 414.63L106.55 414.63L106.55 440.38L106.55 440.38L105.8 440.38z" stroke="none" fill="#DDDDDD" fill-rule="evenodd" /><path transform="matrix(1 0 0 -1 0 842)" d="M170.08 414.63L248.105 414.63L248.105 414.63L248.105 419.13L248.105 419.13L170.08 419.13z" stroke="none" fill="#E5E5E5" fill-rule="evenodd" /><path transform="matrix(1 0 0 -1 0 842)" d="M169.58 414.63L170.33 414.63L170.33 414.63L170.33 440.38L170.33 440.38L169.58 440.38z" stroke="none" fill="#DDDDDD" fill-rule="evenodd" /><path transform="matrix(1 0 0 -1 0 842)" d="M248.1 414.63L347.4 414.63L347.4 414.63L347.4 419.13L347.4 419.13L248.1 419.13z" stroke="none" fill="#E5E5E5" fill-rule="evenodd" /><path transform="matrix(1 0 0 -1 0 842)" d="M247.6 414.63L248.35 414.63L248.35 414.63L248.35 440.38L248.35 440.38L247.6 440.38z" stroke="none" fill="#DDDDDD" fill-rule="evenodd" /><path transform="matrix(1 0 0 -1 0 842)" d="M347.4 414.63L404.175 414.63L404.175 414.63L404.175 419.13L404.175 419.13L347.4 419.13z" stroke="none" fill="#E5E5E5" fill-rule="evenodd" /><path transform="matrix(1 0 0 -1 0 842)" d="M346.9 414.63L347.65 414.63L347.65 414.63L347.65 440.38L347.65 440.38L346.9 440.38z" stroke="none" fill="#DDDDDD" fill-rule="evenodd" /><path transform="matrix(1 0 0 -1 0 842)" d="M404.18 414.63L555.48 414.63L555.48 414.63L555.48 419.13L555.48 419.13L404.18 419.13z" stroke="none" fill="#E5E5E5" fill-rule="evenodd" /><path transform="matrix(1 0 0 -1 0 842)" d="M403.68 414.63L404.43 414.63L404.43 414.63L404.43 440.38L404.43 440.38L403.68 440.38z" stroke="none" fill="#DDDDDD" fill-rule="evenodd" /><path transform="matrix(1 0 0 -1 0 842)" d="M554.98 414.63L555.73 414.63L555.73 414.63L555.73 440.38L555.73 440.38L554.98 440.38z" stroke="none" fill="#DDDDDD" fill-rule="evenodd" /><path transform="matrix(1 0 0 -1 0 842)" d="M106.8 383.88L169.825 383.88L169.825 383.88L169.825 413.88L169.825 413.88L106.8 413.88z" stroke="none" fill="#FFFFFF" fill-rule="evenodd" /><g clip-path="url(#132)"><path transform="matrix(1 0 0 -1 0 842)" d="M115.3 388.38L161.325 388.38L161.325 388.38L161.325 409.38L161.325 409.38L115.3 409.38z" stroke="none" fill="#FFFFFF" fill-rule="evenodd" /><g clip-path="url(#133)"></g><g clip-path="url(#134)"></g></g><path transform="matrix(1 0 0 -1 0 842)" d="M170.58 383.88L247.855 383.88L247.855 383.88L247.855 413.88L247.855 413.88L170.58 413.88z" stroke="none" fill="#FFFFFF" fill-rule="evenodd" /><g clip-path="url(#135)"><path transform="matrix(1 0 0 -1 0 842)" d="M179.33 388.38L239.105 388.38L239.105 388.38L239.105 409.38L239.105 409.38L179.33 409.38z" stroke="none" fill="#FFFFFF" fill-rule="evenodd" /><g clip-path="url(#136)"></g><g clip-path="url(#137)"></g><g clip-path="url(#138)"></g><g clip-path="url(#139)"></g></g><path transform="matrix(1 0 0 -1 0 842)" d="M248.6 383.88L347.15 383.88L347.15 383.88L347.15 413.88L347.15 413.88L248.6 413.88z" stroke="none" fill="#FFFFFF" fill-rule="evenodd" /><g clip-path="url(#140)"><path transform="matrix(1 0 0 -1 0 842)" d="M257.1 388.38L338.4 388.38L338.4 388.38L338.4 409.38L338.4 409.38L257.1 409.38z" stroke="none" fill="#FFFFFF" fill-rule="evenodd" /><g clip-path="url(#141)"></g><g clip-path="url(#142)"></g></g><path transform="matrix(1 0 0 -1 0 842)" d="M347.9 387.63L403.925 387.63L403.925 387.63L403.925 410.13L403.925 410.13L347.9 410.13z" stroke="none" fill="#FFFFFF" fill-rule="evenodd" /><g clip-path="url(#143)"><path transform="matrix(1 0 0 -1 0 842)" d="M348.15 388.38L403.425 388.38L403.425 388.38L403.425 409.38L403.425 409.38L348.15 409.38z" stroke="none" fill="#FFFFFF" fill-rule="evenodd" /><g clip-path="url(#144)"></g><g clip-path="url(#145)"></g></g><path transform="matrix(1 0 0 -1 0 842)" d="M404.68 383.88L554.98 383.88L554.98 383.88L554.98 413.88L554.98 413.88L404.68 413.88z" stroke="none" fill="#FFFFFF" fill-rule="evenodd" /><g clip-path="url(#146)"><path transform="matrix(1 0 0 -1 0 842)" d="M413.18 388.38L546.48 388.38L546.48 388.38L546.48 409.38L546.48 409.38L413.18 409.38z" stroke="none" fill="#FFFFFF" fill-rule="evenodd" /><g clip-path="url(#147)"></g><g clip-path="url(#148)"></g><g clip-path="url(#149)"></g><g clip-path="url(#150)"></g><g clip-path="url(#151)"></g></g><path transform="matrix(1 0 0 -1 0 842)" d="M105.8 409.38L106.55 409.38L106.55 409.38L106.55 414.63L106.55 414.63L105.8 414.63z" stroke="none" fill="#DDDDDD" fill-rule="evenodd" /><path transform="matrix(1 0 0 -1 0 842)" d="M106.55 413.88L169.575 413.88L169.575 413.88L169.575 414.63L169.575 414.63L106.55 414.63z" stroke="none" fill="#DDDDDD" fill-rule="evenodd" /><path transform="matrix(1 0 0 -1 0 842)" d="M106.55 409.38L169.575 409.38L169.575 409.38L169.575 413.88L169.575 413.88L106.55 413.88z" stroke="none" fill="#FFFFFF" fill-rule="evenodd" /><path transform="matrix(1 0 0 -1 0 842)" d="M169.58 409.38L170.33 409.38L170.33 409.38L170.33 414.63L170.33 414.63L169.58 414.63z" stroke="none" fill="#DDDDDD" fill-rule="evenodd" /><path transform="matrix(1 0 0 -1 0 842)" d="M170.33 413.88L247.605 413.88L247.605 413.88L247.605 414.63L247.605 414.63L170.33 414.63z" stroke="none" fill="#DDDDDD" fill-rule="evenodd" /><path transform="matrix(1 0 0 -1 0 842)" d="M170.33 409.38L247.605 409.38L247.605 409.38L247.605 413.88L247.605 413.88L170.33 413.88z" stroke="none" fill="#FFFFFF" fill-rule="evenodd" /><path transform="matrix(1 0 0 -1 0 842)" d="M247.6 409.38L248.35 409.38L248.35 409.38L248.35 414.63L248.35 414.63L247.6 414.63z" stroke="none" fill="#DDDDDD" fill-rule="evenodd" /><path transform="matrix(1 0 0 -1 0 842)" d="M248.35 413.88L346.9 413.88L346.9 413.88L346.9 414.63L346.9 414.63L248.35 414.63z" stroke="none" fill="#DDDDDD" fill-rule="evenodd" /><path transform="matrix(1 0 0 -1 0 842)" d="M248.35 409.38L346.9 409.38L346.9 409.38L346.9 413.88L346.9 413.88L248.35 413.88z" stroke="none" fill="#FFFFFF" fill-rule="evenodd" /><path transform="matrix(1 0 0 -1 0 842)" d="M346.9 409.38L347.65 409.38L347.65 409.38L347.65 414.63L347.65 414.63L346.9 414.63z" stroke="none" fill="#DDDDDD" fill-rule="evenodd" /><path transform="matrix(1 0 0 -1 0 842)" d="M347.65 413.88L403.675 413.88L403.675 413.88L403.675 414.63L403.675 414.63L347.65 414.63z" stroke="none" fill="#DDDDDD" fill-rule="evenodd" /><path transform="matrix(1 0 0 -1 0 842)" d="M347.65 409.38L403.675 409.38L403.675 409.38L403.675 413.88L403.675 413.88L347.65 413.88z" stroke="none" fill="#FFFFFF" fill-rule="evenodd" /><path transform="matrix(1 0 0 -1 0 842)" d="M403.68 409.38L404.43 409.38L404.43 409.38L404.43 414.63L404.43 414.63L403.68 414.63z" stroke="none" fill="#DDDDDD" fill-rule="evenodd" /><path transform="matrix(1 0 0 -1 0 842)" d="M404.43 413.88L554.98 413.88L554.98 413.88L554.98 414.63L554.98 414.63L404.43 414.63z" stroke="none" fill="#DDDDDD" fill-rule="evenodd" /><path transform="matrix(1 0 0 -1 0 842)" d="M404.43 409.38L554.98 409.38L554.98 409.38L554.98 413.88L554.98 413.88L404.43 413.88z" stroke="none" fill="#FFFFFF" fill-rule="evenodd" /><path transform="matrix(1 0 0 -1 0 842)" d="M554.98 409.38L555.73 409.38L555.73 409.38L555.73 414.63L555.73 414.63L554.98 414.63z" stroke="none" fill="#DDDDDD" fill-rule="evenodd" /><path transform="matrix(1 0 0 -1 0 842)" d="M106.3 383.88L170.075 383.88L170.075 383.88L170.075 388.38L170.075 388.38L106.3 388.38z" stroke="none" fill="#FFFFFF" fill-rule="evenodd" /><path transform="matrix(1 0 0 -1 0 842)" d="M105.8 383.88L106.55 383.88L106.55 383.88L106.55 409.38L106.55 409.38L105.8 409.38z" stroke="none" fill="#DDDDDD" fill-rule="evenodd" /><path transform="matrix(1 0 0 -1 0 842)" d="M170.08 383.88L248.105 383.88L248.105 383.88L248.105 388.38L248.105 388.38L170.08 388.38z" stroke="none" fill="#FFFFFF" fill-rule="evenodd" /><path transform="matrix(1 0 0 -1 0 842)" d="M169.58 383.88L170.33 383.88L170.33 383.88L170.33 409.38L170.33 409.38L169.58 409.38z" stroke="none" fill="#DDDDDD" fill-rule="evenodd" /><path transform="matrix(1 0 0 -1 0 842)" d="M248.1 383.88L347.4 383.88L347.4 383.88L347.4 388.38L347.4 388.38L248.1 388.38z" stroke="none" fill="#FFFFFF" fill-rule="evenodd" /><path transform="matrix(1 0 0 -1 0 842)" d="M247.6 383.88L248.35 383.88L248.35 383.88L248.35 409.38L248.35 409.38L247.6 409.38z" stroke="none" fill="#DDDDDD" fill-rule="evenodd" /><path transform="matrix(1 0 0 -1 0 842)" d="M347.4 383.88L404.175 383.88L404.175 383.88L404.175 388.38L404.175 388.38L347.4 388.38z" stroke="none" fill="#FFFFFF" fill-rule="evenodd" /><path transform="matrix(1 0 0 -1 0 842)" d="M346.9 383.88L347.65 383.88L347.65 383.88L347.65 409.38L347.65 409.38L346.9 409.38z" stroke="none" fill="#DDDDDD" fill-rule="evenodd" /><path transform="matrix(1 0 0 -1 0 842)" d="M404.18 383.88L555.48 383.88L555.48 383.88L555.48 388.38L555.48 388.38L404.18 388.38z" stroke="none" fill="#FFFFFF" fill-rule="evenodd" /><path transform="matrix(1 0 0 -1 0 842)" d="M403.68 383.88L404.43 383.88L404.43 383.88L404.43 409.38L404.43 409.38L403.68 409.38z" stroke="none" fill="#DDDDDD" fill-rule="evenodd" /><path transform="matrix(1 0 0 -1 0 842)" d="M554.98 383.88L555.73 383.88L555.73 383.88L555.73 409.38L555.73 409.38L554.98 409.38z" stroke="none" fill="#DDDDDD" fill-rule="evenodd" /><path transform="matrix(1 0 0 -1 0 842)" d="M106.8 352.85L169.825 352.85L169.825 352.85L169.825 383.125L169.825 383.125L106.8 383.125z" stroke="none" fill="#FFFFFF" fill-rule="evenodd" /><g clip-path="url(#152)"><path transform="matrix(1 0 0 -1 0 842)" d="M115.3 357.35L161.325 357.35L161.325 357.35L161.325 378.625L161.325 378.625L115.3 378.625z" stroke="none" fill="#FFFFFF" fill-rule="evenodd" /><g clip-path="url(#153)"></g><g clip-path="url(#154)"></g></g><path transform="matrix(1 0 0 -1 0 842)" d="M170.58 352.85L247.855 352.85L247.855 352.85L247.855 383.125L247.855 383.125L170.58 383.125z" stroke="none" fill="#FFFFFF" fill-rule="evenodd" /><g clip-path="url(#155)"><path transform="matrix(1 0 0 -1 0 842)" d="M179.33 357.35L239.105 357.35L239.105 357.35L239.105 378.625L239.105 378.625L179.33 378.625z" stroke="none" fill="#FFFFFF" fill-rule="evenodd" /><g clip-path="url(#156)"></g><g clip-path="url(#157)"></g></g><path transform="matrix(1 0 0 -1 0 842)" d="M248.6 352.85L347.15 352.85L347.15 352.85L347.15 383.125L347.15 383.125L248.6 383.125z" stroke="none" fill="#FFFFFF" fill-rule="evenodd" /><g clip-path="url(#158)"><path transform="matrix(1 0 0 -1 0 842)" d="M257.1 357.35L338.4 357.35L338.4 357.35L338.4 378.625L338.4 378.625L257.1 378.625z" stroke="none" fill="#FFFFFF" fill-rule="evenodd" /><g clip-path="url(#159)"></g><g clip-path="url(#160)"></g></g><path transform="matrix(1 0 0 -1 0 842)" d="M347.9 356.6L403.925 356.6L403.925 356.6L403.925 379.375L403.925 379.375L347.9 379.375z" stroke="none" fill="#FFFFFF" fill-rule="evenodd" /><g clip-path="url(#161)"><path transform="matrix(1 0 0 -1 0 842)" d="M348.15 357.35L403.425 357.35L403.425 357.35L403.425 378.625L403.425 378.625L348.15 378.625z" stroke="none" fill="#FFFFFF" fill-rule="evenodd" /><g clip-path="url(#162)"></g><g clip-path="url(#163)"></g></g><path transform="matrix(1 0 0 -1 0 842)" d="M404.68 352.85L554.98 352.85L554.98 352.85L554.98 383.125L554.98 383.125L404.68 383.125z" stroke="none" fill="#FFFFFF" fill-rule="evenodd" /><g clip-path="url(#164)"><path transform="matrix(1 0 0 -1 0 842)" d="M413.18 357.35L546.48 357.35L546.48 357.35L546.48 378.625L546.48 378.625L413.18 378.625z" stroke="none" fill="#FFFFFF" fill-rule="evenodd" /><g clip-path="url(#165)"></g><g clip-path="url(#166)"></g><g clip-path="url(#167)"></g><g clip-path="url(#168)"></g><g clip-path="url(#169)"></g></g><path transform="matrix(1 0 0 -1 0 842)" d="M105.8 378.63L106.55 378.63L106.55 378.63L106.55 383.88L106.55 383.88L105.8 383.88z" stroke="none" fill="#DDDDDD" fill-rule="evenodd" /><path transform="matrix(1 0 0 -1 0 842)" d="M106.55 383.13L169.575 383.13L169.575 383.13L169.575 383.88L169.575 383.88L106.55 383.88z" stroke="none" fill="#DDDDDD" fill-rule="evenodd" /><path transform="matrix(1 0 0 -1 0 842)" d="M106.55 378.63L169.575 378.63L169.575 378.63L169.575 383.13L169.575 383.13L106.55 383.13z" stroke="none" fill="#FFFFFF" fill-rule="evenodd" /><path transform="matrix(1 0 0 -1 0 842)" d="M169.58 378.63L170.33 378.63L170.33 378.63L170.33 383.88L170.33 383.88L169.58 383.88z" stroke="none" fill="#DDDDDD" fill-rule="evenodd" /><path transform="matrix(1 0 0 -1 0 842)" d="M170.33 383.13L247.605 383.13L247.605 383.13L247.605 383.88L247.605 383.88L170.33 383.88z" stroke="none" fill="#DDDDDD" fill-rule="evenodd" /><path transform="matrix(1 0 0 -1 0 842)" d="M170.33 378.63L247.605 378.63L247.605 378.63L247.605 383.13L247.605 383.13L170.33 383.13z" stroke="none" fill="#FFFFFF" fill-rule="evenodd" /><path transform="matrix(1 0 0 -1 0 842)" d="M247.6 378.63L248.35 378.63L248.35 378.63L248.35 383.88L248.35 383.88L247.6 383.88z" stroke="none" fill="#DDDDDD" fill-rule="evenodd" /><path transform="matrix(1 0 0 -1 0 842)" d="M248.35 383.13L346.9 383.13L346.9 383.13L346.9 383.88L346.9 383.88L248.35 383.88z" stroke="none" fill="#DDDDDD" fill-rule="evenodd" /><path transform="matrix(1 0 0 -1 0 842)" d="M248.35 378.63L346.9 378.63L346.9 378.63L346.9 383.13L346.9 383.13L248.35 383.13z" stroke="none" fill="#FFFFFF" fill-rule="evenodd" /><path transform="matrix(1 0 0 -1 0 842)" d="M346.9 378.63L347.65 378.63L347.65 378.63L347.65 383.88L347.65 383.88L346.9 383.88z" stroke="none" fill="#DDDDDD" fill-rule="evenodd" /><path transform="matrix(1 0 0 -1 0 842)" d="M347.65 383.13L403.675 383.13L403.675 383.13L403.675 383.88L403.675 383.88L347.65 383.88z" stroke="none" fill="#DDDDDD" fill-rule="evenodd" /><path transform="matrix(1 0 0 -1 0 842)" d="M347.65 378.63L403.675 378.63L403.675 378.63L403.675 383.13L403.675 383.13L347.65 383.13z" stroke="none" fill="#FFFFFF" fill-rule="evenodd" /><path transform="matrix(1 0 0 -1 0 842)" d="M403.68 378.63L404.43 378.63L404.43 378.63L404.43 383.88L404.43 383.88L403.68 383.88z" stroke="none" fill="#DDDDDD" fill-rule="evenodd" /><path transform="matrix(1 0 0 -1 0 842)" d="M404.43 383.13L554.98 383.13L554.98 383.13L554.98 383.88L554.98 383.88L404.43 383.88z" stroke="none" fill="#DDDDDD" fill-rule="evenodd" /><path transform="matrix(1 0 0 -1 0 842)" d="M404.43 378.63L554.98 378.63L554.98 378.63L554.98 383.13L554.98 383.13L404.43 383.13z" stroke="none" fill="#FFFFFF" fill-rule="evenodd" /><path transform="matrix(1 0 0 -1 0 842)" d="M554.98 378.63L555.73 378.63L555.73 378.63L555.73 383.88L555.73 383.88L554.98 383.88z" stroke="none" fill="#DDDDDD" fill-rule="evenodd" /><path transform="matrix(1 0 0 -1 0 842)" d="M106.3 352.85L170.075 352.85L170.075 352.85L170.075 357.35L170.075 357.35L106.3 357.35z" stroke="none" fill="#FFFFFF" fill-rule="evenodd" /><path transform="matrix(1 0 0 -1 0 842)" d="M105.8 352.85L106.55 352.85L106.55 352.85L106.55 378.625L106.55 378.625L105.8 378.625z" stroke="none" fill="#DDDDDD" fill-rule="evenodd" /><path transform="matrix(1 0 0 -1 0 842)" d="M170.08 352.85L248.105 352.85L248.105 352.85L248.105 357.35L248.105 357.35L170.08 357.35z" stroke="none" fill="#FFFFFF" fill-rule="evenodd" /><path transform="matrix(1 0 0 -1 0 842)" d="M169.58 352.85L170.33 352.85L170.33 352.85L170.33 378.625L170.33 378.625L169.58 378.625z" stroke="none" fill="#DDDDDD" fill-rule="evenodd" /><path transform="matrix(1 0 0 -1 0 842)" d="M248.1 352.85L347.4 352.85L347.4 352.85L347.4 357.35L347.4 357.35L248.1 357.35z" stroke="none" fill="#FFFFFF" fill-rule="evenodd" /><path transform="matrix(1 0 0 -1 0 842)" d="M247.6 352.85L248.35 352.85L248.35 352.85L248.35 378.625L248.35 378.625L247.6 378.625z" stroke="none" fill="#DDDDDD" fill-rule="evenodd" /><path transform="matrix(1 0 0 -1 0 842)" d="M347.4 352.85L404.175 352.85L404.175 352.85L404.175 357.35L404.175 357.35L347.4 357.35z" stroke="none" fill="#FFFFFF" fill-rule="evenodd" /><path transform="matrix(1 0 0 -1 0 842)" d="M346.9 352.85L347.65 352.85L347.65 352.85L347.65 378.625L347.65 378.625L346.9 378.625z" stroke="none" fill="#DDDDDD" fill-rule="evenodd" /><path transform="matrix(1 0 0 -1 0 842)" d="M404.18 352.85L555.48 352.85L555.48 352.85L555.48 357.35L555.48 357.35L404.18 357.35z" stroke="none" fill="#FFFFFF" fill-rule="evenodd" /><path transform="matrix(1 0 0 -1 0 842)" d="M403.68 352.85L404.43 352.85L404.43 352.85L404.43 378.625L404.43 378.625L403.68 378.625z" stroke="none" fill="#DDDDDD" fill-rule="evenodd" /><path transform="matrix(1 0 0 -1 0 842)" d="M554.98 352.85L555.73 352.85L555.73 352.85L555.73 378.625L555.73 378.625L554.98 378.625z" stroke="none" fill="#DDDDDD" fill-rule="evenodd" /><path transform="matrix(1 0 0 -1 0 842)" d="M106.8 322.1L169.825 322.1L169.825 322.1L169.825 352.1L169.825 352.1L106.8 352.1z" stroke="none" fill="#FFFFFF" fill-rule="evenodd" /><g clip-path="url(#170)"><path transform="matrix(1 0 0 -1 0 842)" d="M115.3 326.6L161.325 326.6L161.325 326.6L161.325 347.6L161.325 347.6L115.3 347.6z" stroke="none" fill="#FFFFFF" fill-rule="evenodd" /><g clip-path="url(#171)"></g><g clip-path="url(#172)"></g></g><path transform="matrix(1 0 0 -1 0 842)" d="M170.58 322.1L247.855 322.1L247.855 322.1L247.855 352.1L247.855 352.1L170.58 352.1z" stroke="none" fill="#FFFFFF" fill-rule="evenodd" /><g clip-path="url(#173)"><path transform="matrix(1 0 0 -1 0 842)" d="M179.33 326.6L239.105 326.6L239.105 326.6L239.105 347.6L239.105 347.6L179.33 347.6z" stroke="none" fill="#FFFFFF" fill-rule="evenodd" /><g clip-path="url(#174)"></g><g clip-path="url(#175)"></g></g><path transform="matrix(1 0 0 -1 0 842)" d="M248.6 322.1L347.15 322.1L347.15 322.1L347.15 352.1L347.15 352.1L248.6 352.1z" stroke="none" fill="#FFFFFF" fill-rule="evenodd" /><g clip-path="url(#176)"><path transform="matrix(1 0 0 -1 0 842)" d="M257.1 326.6L338.4 326.6L338.4 326.6L338.4 347.6L338.4 347.6L257.1 347.6z" stroke="none" fill="#FFFFFF" fill-rule="evenodd" /><g clip-path="url(#177)"></g><g clip-path="url(#178)"></g></g><path transform="matrix(1 0 0 -1 0 842)" d="M347.9 325.85L403.925 325.85L403.925 325.85L403.925 348.35L403.925 348.35L347.9 348.35z" stroke="none" fill="#FFFFFF" fill-rule="evenodd" /><g clip-path="url(#179)"><path transform="matrix(1 0 0 -1 0 842)" d="M348.15 326.6L403.425 326.6L403.425 326.6L403.425 347.6L403.425 347.6L348.15 347.6z" stroke="none" fill="#FFFFFF" fill-rule="evenodd" /><g clip-path="url(#180)"></g><g clip-path="url(#181)"></g></g><path transform="matrix(1 0 0 -1 0 842)" d="M404.68 322.1L554.98 322.1L554.98 322.1L554.98 352.1L554.98 352.1L404.68 352.1z" stroke="none" fill="#FFFFFF" fill-rule="evenodd" /><g clip-path="url(#182)"><path transform="matrix(1 0 0 -1 0 842)" d="M413.18 326.6L546.48 326.6L546.48 326.6L546.48 347.6L546.48 347.6L413.18 347.6z" stroke="none" fill="#FFFFFF" fill-rule="evenodd" /><g clip-path="url(#183)"></g><g clip-path="url(#184)"></g><g clip-path="url(#185)"></g><g clip-path="url(#186)"></g><g clip-path="url(#187)"></g><g clip-path="url(#188)"></g><g clip-path="url(#189)"></g></g><path transform="matrix(1 0 0 -1 0 842)" d="M105.8 347.6L106.55 347.6L106.55 347.6L106.55 352.85L106.55 352.85L105.8 352.85z" stroke="none" fill="#DDDDDD" fill-rule="evenodd" /><path transform="matrix(1 0 0 -1 0 842)" d="M106.55 352.1L169.575 352.1L169.575 352.1L169.575 352.85L169.575 352.85L106.55 352.85z" stroke="none" fill="#DDDDDD" fill-rule="evenodd" /><path transform="matrix(1 0 0 -1 0 842)" d="M106.55 347.6L169.575 347.6L169.575 347.6L169.575 352.1L169.575 352.1L106.55 352.1z" stroke="none" fill="#FFFFFF" fill-rule="evenodd" /><path transform="matrix(1 0 0 -1 0 842)" d="M169.58 347.6L170.33 347.6L170.33 347.6L170.33 352.85L170.33 352.85L169.58 352.85z" stroke="none" fill="#DDDDDD" fill-rule="evenodd" /><path transform="matrix(1 0 0 -1 0 842)" d="M170.33 352.1L247.605 352.1L247.605 352.1L247.605 352.85L247.605 352.85L170.33 352.85z" stroke="none" fill="#DDDDDD" fill-rule="evenodd" /><path transform="matrix(1 0 0 -1 0 842)" d="M170.33 347.6L247.605 347.6L247.605 347.6L247.605 352.1L247.605 352.1L170.33 352.1z" stroke="none" fill="#FFFFFF" fill-rule="evenodd" /><path transform="matrix(1 0 0 -1 0 842)" d="M247.6 347.6L248.35 347.6L248.35 347.6L248.35 352.85L248.35 352.85L247.6 352.85z" stroke="none" fill="#DDDDDD" fill-rule="evenodd" /><path transform="matrix(1 0 0 -1 0 842)" d="M248.35 352.1L346.9 352.1L346.9 352.1L346.9 352.85L346.9 352.85L248.35 352.85z" stroke="none" fill="#DDDDDD" fill-rule="evenodd" /><path transform="matrix(1 0 0 -1 0 842)" d="M248.35 347.6L346.9 347.6L346.9 347.6L346.9 352.1L346.9 352.1L248.35 352.1z" stroke="none" fill="#FFFFFF" fill-rule="evenodd" /><path transform="matrix(1 0 0 -1 0 842)" d="M346.9 347.6L347.65 347.6L347.65 347.6L347.65 352.85L347.65 352.85L346.9 352.85z" stroke="none" fill="#DDDDDD" fill-rule="evenodd" /><path transform="matrix(1 0 0 -1 0 842)" d="M347.65 352.1L403.675 352.1L403.675 352.1L403.675 352.85L403.675 352.85L347.65 352.85z" stroke="none" fill="#DDDDDD" fill-rule="evenodd" /><path transform="matrix(1 0 0 -1 0 842)" d="M347.65 347.6L403.675 347.6L403.675 347.6L403.675 352.1L403.675 352.1L347.65 352.1z" stroke="none" fill="#FFFFFF" fill-rule="evenodd" /><path transform="matrix(1 0 0 -1 0 842)" d="M403.68 347.6L404.43 347.6L404.43 347.6L404.43 352.85L404.43 352.85L403.68 352.85z" stroke="none" fill="#DDDDDD" fill-rule="evenodd" /><path transform="matrix(1 0 0 -1 0 842)" d="M404.43 352.1L554.98 352.1L554.98 352.1L554.98 352.85L554.98 352.85L404.43 352.85z" stroke="none" fill="#DDDDDD" fill-rule="evenodd" /><path transform="matrix(1 0 0 -1 0 842)" d="M404.43 347.6L554.98 347.6L554.98 347.6L554.98 352.1L554.98 352.1L404.43 352.1z" stroke="none" fill="#FFFFFF" fill-rule="evenodd" /><path transform="matrix(1 0 0 -1 0 842)" d="M554.98 347.6L555.73 347.6L555.73 347.6L555.73 352.85L555.73 352.85L554.98 352.85z" stroke="none" fill="#DDDDDD" fill-rule="evenodd" /><path transform="matrix(1 0 0 -1 0 842)" d="M106.3 322.1L170.075 322.1L170.075 322.1L170.075 326.6L170.075 326.6L106.3 326.6z" stroke="none" fill="#FFFFFF" fill-rule="evenodd" /><path transform="matrix(1 0 0 -1 0 842)" d="M105.8 322.1L106.55 322.1L106.55 322.1L106.55 347.6L106.55 347.6L105.8 347.6z" stroke="none" fill="#DDDDDD" fill-rule="evenodd" /><path transform="matrix(1 0 0 -1 0 842)" d="M170.08 322.1L248.105 322.1L248.105 322.1L248.105 326.6L248.105 326.6L170.08 326.6z" stroke="none" fill="#FFFFFF" fill-rule="evenodd" /><path transform="matrix(1 0 0 -1 0 842)" d="M169.58 322.1L170.33 322.1L170.33 322.1L170.33 347.6L170.33 347.6L169.58 347.6z" stroke="none" fill="#DDDDDD" fill-rule="evenodd" /><path transform="matrix(1 0 0 -1 0 842)" d="M248.1 322.1L347.4 322.1L347.4 322.1L347.4 326.6L347.4 326.6L248.1 326.6z" stroke="none" fill="#FFFFFF" fill-rule="evenodd" /><path transform="matrix(1 0 0 -1 0 842)" d="M247.6 322.1L248.35 322.1L248.35 322.1L248.35 347.6L248.35 347.6L247.6 347.6z" stroke="none" fill="#DDDDDD" fill-rule="evenodd" /><path transform="matrix(1 0 0 -1 0 842)" d="M347.4 322.1L404.175 322.1L404.175 322.1L404.175 326.6L404.175 326.6L347.4 326.6z" stroke="none" fill="#FFFFFF" fill-rule="evenodd" /><path transform="matrix(1 0 0 -1 0 842)" d="M346.9 322.1L347.65 322.1L347.65 322.1L347.65 347.6L347.65 347.6L346.9 347.6z" stroke="none" fill="#DDDDDD" fill-rule="evenodd" /><path transform="matrix(1 0 0 -1 0 842)" d="M404.18 322.1L555.48 322.1L555.48 322.1L555.48 326.6L555.48 326.6L404.18 326.6z" stroke="none" fill="#FFFFFF" fill-rule="evenodd" /><path transform="matrix(1 0 0 -1 0 842)" d="M403.68 322.1L404.43 322.1L404.43 322.1L404.43 347.6L404.43 347.6L403.68 347.6z" stroke="none" fill="#DDDDDD" fill-rule="evenodd" /><path transform="matrix(1 0 0 -1 0 842)" d="M554.98 322.1L555.73 322.1L555.73 322.1L555.73 347.6L555.73 347.6L554.98 347.6z" stroke="none" fill="#DDDDDD" fill-rule="evenodd" /><path transform="matrix(1 0 0 -1 0 842)" d="M106.8 291.1L169.825 291.1L169.825 291.1L169.825 321.35L169.825 321.35L106.8 321.35z" stroke="none" fill="#FFFFFF" fill-rule="evenodd" /><g clip-path="url(#190)"><path transform="matrix(1 0 0 -1 0 842)" d="M115.3 295.6L161.325 295.6L161.325 295.6L161.325 316.85L161.325 316.85L115.3 316.85z" stroke="none" fill="#FFFFFF" fill-rule="evenodd" /><g clip-path="url(#191)"></g><g clip-path="url(#192)"></g></g><path transform="matrix(1 0 0 -1 0 842)" d="M170.58 291.1L247.855 291.1L247.855 291.1L247.855 321.35L247.855 321.35L170.58 321.35z" stroke="none" fill="#FFFFFF" fill-rule="evenodd" /><g clip-path="url(#193)"><path transform="matrix(1 0 0 -1 0 842)" d="M179.33 295.6L239.105 295.6L239.105 295.6L239.105 316.85L239.105 316.85L179.33 316.85z" stroke="none" fill="#FFFFFF" fill-rule="evenodd" /><g clip-path="url(#194)"></g><g clip-path="url(#195)"></g><g clip-path="url(#196)"></g><g clip-path="url(#197)"></g></g><path transform="matrix(1 0 0 -1 0 842)" d="M248.6 291.1L347.15 291.1L347.15 291.1L347.15 321.35L347.15 321.35L248.6 321.35z" stroke="none" fill="#FFFFFF" fill-rule="evenodd" /><g clip-path="url(#198)"><path transform="matrix(1 0 0 -1 0 842)" d="M257.1 295.6L338.4 295.6L338.4 295.6L338.4 316.85L338.4 316.85L257.1 316.85z" stroke="none" fill="#FFFFFF" fill-rule="evenodd" /><g clip-path="url(#199)"></g><g clip-path="url(#200)"></g></g><path transform="matrix(1 0 0 -1 0 842)" d="M347.9 294.85L403.925 294.85L403.925 294.85L403.925 317.6L403.925 317.6L347.9 317.6z" stroke="none" fill="#FFFFFF" fill-rule="evenodd" /><g clip-path="url(#201)"><path transform="matrix(1 0 0 -1 0 842)" d="M348.15 295.6L403.425 295.6L403.425 295.6L403.425 316.85L403.425 316.85L348.15 316.85z" stroke="none" fill="#FFFFFF" fill-rule="evenodd" /><g clip-path="url(#202)"></g><g clip-path="url(#203)"></g></g><path transform="matrix(1 0 0 -1 0 842)" d="M404.68 291.1L554.98 291.1L554.98 291.1L554.98 321.35L554.98 321.35L404.68 321.35z" stroke="none" fill="#FFFFFF" fill-rule="evenodd" /><g clip-path="url(#204)"><path transform="matrix(1 0 0 -1 0 842)" d="M413.18 295.6L546.48 295.6L546.48 295.6L546.48 316.85L546.48 316.85L413.18 316.85z" stroke="none" fill="#FFFFFF" fill-rule="evenodd" /><g clip-path="url(#205)"></g><g clip-path="url(#206)"></g><g clip-path="url(#207)"></g><g clip-path="url(#208)"></g><g clip-path="url(#209)"></g><g clip-path="url(#210)"></g><g clip-path="url(#211)"></g><g clip-path="url(#212)"></g></g><path transform="matrix(1 0 0 -1 0 842)" d="M105.8 316.85L106.55 316.85L106.55 316.85L106.55 322.1L106.55 322.1L105.8 322.1z" stroke="none" fill="#DDDDDD" fill-rule="evenodd" /><path transform="matrix(1 0 0 -1 0 842)" d="M106.55 321.35L169.575 321.35L169.575 321.35L169.575 322.1L169.575 322.1L106.55 322.1z" stroke="none" fill="#DDDDDD" fill-rule="evenodd" /><path transform="matrix(1 0 0 -1 0 842)" d="M106.55 316.85L169.575 316.85L169.575 316.85L169.575 321.35L169.575 321.35L106.55 321.35z" stroke="none" fill="#FFFFFF" fill-rule="evenodd" /><path transform="matrix(1 0 0 -1 0 842)" d="M169.58 316.85L170.33 316.85L170.33 316.85L170.33 322.1L170.33 322.1L169.58 322.1z" stroke="none" fill="#DDDDDD" fill-rule="evenodd" /><path transform="matrix(1 0 0 -1 0 842)" d="M170.33 321.35L247.605 321.35L247.605 321.35L247.605 322.1L247.605 322.1L170.33 322.1z" stroke="none" fill="#DDDDDD" fill-rule="evenodd" /><path transform="matrix(1 0 0 -1 0 842)" d="M170.33 316.85L247.605 316.85L247.605 316.85L247.605 321.35L247.605 321.35L170.33 321.35z" stroke="none" fill="#FFFFFF" fill-rule="evenodd" /><path transform="matrix(1 0 0 -1 0 842)" d="M247.6 316.85L248.35 316.85L248.35 316.85L248.35 322.1L248.35 322.1L247.6 322.1z" stroke="none" fill="#DDDDDD" fill-rule="evenodd" /><path transform="matrix(1 0 0 -1 0 842)" d="M248.35 321.35L346.9 321.35L346.9 321.35L346.9 322.1L346.9 322.1L248.35 322.1z" stroke="none" fill="#DDDDDD" fill-rule="evenodd" /><path transform="matrix(1 0 0 -1 0 842)" d="M248.35 316.85L346.9 316.85L346.9 316.85L346.9 321.35L346.9 321.35L248.35 321.35z" stroke="none" fill="#FFFFFF" fill-rule="evenodd" /><path transform="matrix(1 0 0 -1 0 842)" d="M346.9 316.85L347.65 316.85L347.65 316.85L347.65 322.1L347.65 322.1L346.9 322.1z" stroke="none" fill="#DDDDDD" fill-rule="evenodd" /><path transform="matrix(1 0 0 -1 0 842)" d="M347.65 321.35L403.675 321.35L403.675 321.35L403.675 322.1L403.675 322.1L347.65 322.1z" stroke="none" fill="#DDDDDD" fill-rule="evenodd" /><path transform="matrix(1 0 0 -1 0 842)" d="M347.65 316.85L403.675 316.85L403.675 316.85L403.675 321.35L403.675 321.35L347.65 321.35z" stroke="none" fill="#FFFFFF" fill-rule="evenodd" /><path transform="matrix(1 0 0 -1 0 842)" d="M403.68 316.85L404.43 316.85L404.43 316.85L404.43 322.1L404.43 322.1L403.68 322.1z" stroke="none" fill="#DDDDDD" fill-rule="evenodd" /><path transform="matrix(1 0 0 -1 0 842)" d="M404.43 321.35L554.98 321.35L554.98 321.35L554.98 322.1L554.98 322.1L404.43 322.1z" stroke="none" fill="#DDDDDD" fill-rule="evenodd" /><path transform="matrix(1 0 0 -1 0 842)" d="M404.43 316.85L554.98 316.85L554.98 316.85L554.98 321.35L554.98 321.35L404.43 321.35z" stroke="none" fill="#FFFFFF" fill-rule="evenodd" /><path transform="matrix(1 0 0 -1 0 842)" d="M554.98 316.85L555.73 316.85L555.73 316.85L555.73 322.1L555.73 322.1L554.98 322.1z" stroke="none" fill="#DDDDDD" fill-rule="evenodd" /><path transform="matrix(1 0 0 -1 0 842)" d="M106.3 291.1L170.075 291.1L170.075 291.1L170.075 295.6L170.075 295.6L106.3 295.6z" stroke="none" fill="#FFFFFF" fill-rule="evenodd" /><path transform="matrix(1 0 0 -1 0 842)" d="M105.8 291.1L106.55 291.1L106.55 291.1L106.55 316.85L106.55 316.85L105.8 316.85z" stroke="none" fill="#DDDDDD" fill-rule="evenodd" /><path transform="matrix(1 0 0 -1 0 842)" d="M105.8 290.33L106.55 290.33L106.55 290.33L106.55 291.1049L106.55 291.1049L105.8 291.1049z" stroke="none" fill="#DDDDDD" fill-rule="evenodd" /><path transform="matrix(1 0 0 -1 0 842)" d="M105.8 290.33L106.55 290.33L106.55 290.33L106.55 291.1049L106.55 291.1049L105.8 291.1049z" stroke="none" fill="#DDDDDD" fill-rule="evenodd" /><path transform="matrix(1 0 0 -1 0 842)" d="M106.55 290.33L169.575 290.33L169.575 290.33L169.575 291.1049L169.575 291.1049L106.55 291.1049z" stroke="none" fill="#DDDDDD" fill-rule="evenodd" /><path transform="matrix(1 0 0 -1 0 842)" d="M170.08 291.1L248.105 291.1L248.105 291.1L248.105 295.6L248.105 295.6L170.08 295.6z" stroke="none" fill="#FFFFFF" fill-rule="evenodd" /><path transform="matrix(1 0 0 -1 0 842)" d="M169.58 291.1L170.33 291.1L170.33 291.1L170.33 316.85L170.33 316.85L169.58 316.85z" stroke="none" fill="#DDDDDD" fill-rule="evenodd" /><path transform="matrix(1 0 0 -1 0 842)" d="M169.58 290.33L170.33 290.33L170.33 290.33L170.33 291.1049L170.33 291.1049L169.58 291.1049z" stroke="none" fill="#DDDDDD" fill-rule="evenodd" /><path transform="matrix(1 0 0 -1 0 842)" d="M170.33 290.33L247.605 290.33L247.605 290.33L247.605 291.1049L247.605 291.1049L170.33 291.1049z" stroke="none" fill="#DDDDDD" fill-rule="evenodd" /><path transform="matrix(1 0 0 -1 0 842)" d="M248.1 291.1L347.4 291.1L347.4 291.1L347.4 295.6L347.4 295.6L248.1 295.6z" stroke="none" fill="#FFFFFF" fill-rule="evenodd" /><path transform="matrix(1 0 0 -1 0 842)" d="M247.6 291.1L248.35 291.1L248.35 291.1L248.35 316.85L248.35 316.85L247.6 316.85z" stroke="none" fill="#DDDDDD" fill-rule="evenodd" /><path transform="matrix(1 0 0 -1 0 842)" d="M247.6 290.33L248.35 290.33L248.35 290.33L248.35 291.1049L248.35 291.1049L247.6 291.1049z" stroke="none" fill="#DDDDDD" fill-rule="evenodd" /><path transform="matrix(1 0 0 -1 0 842)" d="M248.35 290.33L346.9 290.33L346.9 290.33L346.9 291.1049L346.9 291.1049L248.35 291.1049z" stroke="none" fill="#DDDDDD" fill-rule="evenodd" /><path transform="matrix(1 0 0 -1 0 842)" d="M347.4 291.1L404.175 291.1L404.175 291.1L404.175 295.6L404.175 295.6L347.4 295.6z" stroke="none" fill="#FFFFFF" fill-rule="evenodd" /><path transform="matrix(1 0 0 -1 0 842)" d="M346.9 291.1L347.65 291.1L347.65 291.1L347.65 316.85L347.65 316.85L346.9 316.85z" stroke="none" fill="#DDDDDD" fill-rule="evenodd" /><path transform="matrix(1 0 0 -1 0 842)" d="M346.9 290.33L347.65 290.33L347.65 290.33L347.65 291.1049L347.65 291.1049L346.9 291.1049z" stroke="none" fill="#DDDDDD" fill-rule="evenodd" /><path transform="matrix(1 0 0 -1 0 842)" d="M347.65 290.33L403.675 290.33L403.675 290.33L403.675 291.1049L403.675 291.1049L347.65 291.1049z" stroke="none" fill="#DDDDDD" fill-rule="evenodd" /><path transform="matrix(1 0 0 -1 0 842)" d="M404.18 291.1L555.48 291.1L555.48 291.1L555.48 295.6L555.48 295.6L404.18 295.6z" stroke="none" fill="#FFFFFF" fill-rule="evenodd" /><path transform="matrix(1 0 0 -1 0 842)" d="M403.68 291.1L404.43 291.1L404.43 291.1L404.43 316.85L404.43 316.85L403.68 316.85z" stroke="none" fill="#DDDDDD" fill-rule="evenodd" /><path transform="matrix(1 0 0 -1 0 842)" d="M403.68 290.33L404.43 290.33L404.43 290.33L404.43 291.1049L404.43 291.1049L403.68 291.1049z" stroke="none" fill="#DDDDDD" fill-rule="evenodd" /><path transform="matrix(1 0 0 -1 0 842)" d="M404.43 290.33L554.98 290.33L554.98 290.33L554.98 291.1049L554.98 291.1049L404.43 291.1049z" stroke="none" fill="#DDDDDD" fill-rule="evenodd" /><path transform="matrix(1 0 0 -1 0 842)" d="M554.98 291.1L555.73 291.1L555.73 291.1L555.73 316.85L555.73 316.85L554.98 316.85z" stroke="none" fill="#DDDDDD" fill-rule="evenodd" /><path transform="matrix(1 0 0 -1 0 842)" d="M554.98 290.33L555.73 290.33L555.73 290.33L555.73 291.1049L555.73 291.1049L554.98 291.1049z" stroke="none" fill="#DDDDDD" fill-rule="evenodd" /><path transform="matrix(1 0 0 -1 0 842)" d="M554.98 290.33L555.73 290.33L555.73 290.33L555.73 291.1049L555.73 291.1049L554.98 291.1049z" stroke="none" fill="#DDDDDD" fill-rule="evenodd" /><g clip-path="url(#213)"></g><g clip-path="url(#214)"></g><g clip-path="url(#215)"></g><g clip-path="url(#216)"></g><g clip-path="url(#217)"></g><g clip-path="url(#218)"></g><g clip-path="url(#219)"></g><g clip-path="url(#220)"></g><g clip-path="url(#221)"></g><g clip-path="url(#222)"></g><g clip-path="url(#223)"></g><g clip-path="url(#224)"></g><g clip-path="url(#225)"></g><g clip-path="url(#226)"></g><g clip-path="url(#227)"></g><g clip-path="url(#228)"></g><g clip-path="url(#229)"></g><g clip-path="url(#230)"></g><g clip-path="url(#231)"></g><g clip-path="url(#232)"></g><g clip-path="url(#233)"></g><g clip-path="url(#234)"></g><g clip-path="url(#235)"></g><g clip-path="url(#236)"></g><g clip-path="url(#237)"></g><g clip-path="url(#238)"></g><g clip-path="url(#239)"></g><g clip-path="url(#240)"></g><g clip-path="url(#241)"></g><g clip-path="url(#242)"></g><g clip-path="url(#243)"></g><g clip-path="url(#244)"></g><g clip-path="url(#245)"></g><g clip-path="url(#246)"></g><g clip-path="url(#247)"></g><g clip-path="url(#248)"></g><g clip-path="url(#249)"></g><g clip-path="url(#250)"></g><g clip-path="url(#251)"></g><g clip-path="url(#252)"></g><g clip-path="url(#253)"></g><g clip-path="url(#254)"></g><g clip-path="url(#255)"></g><g clip-path="url(#256)"></g><g clip-path="url(#257)"></g><g clip-path="url(#258)"></g><g clip-path="url(#259)"></g><g clip-path="url(#260)"></g><g clip-path="url(#261)"></g><g clip-path="url(#262)"></g><g clip-path="url(#263)"></g><g clip-path="url(#264)"></g><g clip-path="url(#265)"></g><g clip-path="url(#266)"></g><g clip-path="url(#267)"></g><g clip-path="url(#268)"></g><g clip-path="url(#269)"></g><g clip-path="url(#270)"></g><g clip-path="url(#271)"></g><g clip-path="url(#272)"></g><g clip-path="url(#273)"></g><g clip-path="url(#274)"></g><g clip-path="url(#275)"></g></g></g></g></svg>